<svg width="112" height="159" viewBox="0 0 112 159" fill="none" xmlns="http://www.w3.org/2000/svg">
<path d="M19.8324 36.4256C22.7474 41.2515 25.6242 46.1067 28.5077 50.9552C28.9551 51.6624 29.1253 52.5115 28.9853 53.3377C28.3933 57.2169 28.4785 61.1344 28.8507 65.0136C30.4203 81.4478 33.5976 97.5192 40.127 112.774C40.5597 113.789 40.5059 114.605 40.0642 115.583C35.7449 125.078 33.7321 135.469 34.1918 145.9C34.5505 154.641 44.9545 160.585 52.4885 156.214C56.2263 154.048 57.1254 148.524 53.863 145.868C51.8203 144.205 52.5355 142.469 52.9279 140.752C53.2755 139.23 54.8271 140.139 55.8227 139.924C57.2196 139.62 58.6501 139.474 60.4238 139.194C59.6502 142.656 58.7869 145.819 58.5694 149.098C58.3452 152.479 59.5493 155.252 62.5651 156.722C64.2103 157.54 66.0164 157.979 67.8518 158.008C69.6872 158.036 71.5058 157.653 73.1754 156.886C75.7629 155.741 76.3414 153.347 75.0791 150.71C74.7696 150.063 73.9983 149.529 74.4938 148.645C79.2407 151.425 82.6489 150.879 86.5885 146.842C91.4968 141.816 93.6291 135.513 94.8982 128.81C95.4476 125.907 95.8243 122.972 96.2862 120.019C99.2011 121.247 100.219 121.033 101.755 118.5C104.161 114.53 105.32 110.097 106.127 105.562C106.562 103.105 105.78 101.067 104.065 99.3066C102.006 97.1968 99.3558 96.6694 96.6091 96.2637C95.6046 96.1149 94.5417 96.2907 93.7502 95.229C91.0237 91.5752 87.4159 89.1048 83.1063 87.7051C82.1578 87.3963 81.817 86.9094 81.7609 85.9266C81.3125 78.7137 79.7295 71.7126 77.3953 64.8942C75.3302 58.8601 73.718 52.8711 74.3234 46.2983C74.7719 41.3845 73.9602 36.367 74.0297 31.3991C74.1979 19.4527 68.3748 10.4366 60.4013 2.41894C58.6255 0.63599 56.5021 -0.885486 53.8988 0.46243C51.4929 1.70666 51.4077 4.29429 51.2081 6.66329C51.1855 7.11973 51.2385 7.57678 51.3651 8.01571C52.6297 13.0287 54.9034 17.4218 59.1905 20.5099C59.8408 20.9787 60.4103 21.434 60.5762 22.2252C61.74 27.7318 61.6974 33.3624 62.6884 39.4731C60.3901 37.5887 58.6053 36.0582 56.4326 35.1228C55.9012 34.8974 55.7061 34.4105 55.6388 33.8335C54.8047 26.6476 50.7059 20.9449 47.1183 15.0258C44.5509 10.7972 41.3849 7.10734 36.8645 4.85555C35.786 4.31684 34.5797 2.85622 33.4451 3.98775C32.4921 4.94121 33.629 6.29138 34.1379 7.34176C37.8354 14.992 40.544 23.0073 43.0643 31.1061C43.6383 32.9499 43.3222 33.6802 41.4163 34.0048C40.0911 34.2302 38.7368 34.7419 37.6964 35.6548C36.656 36.5676 36.3196 36.1191 35.8174 35.0912C33.4384 30.227 31.0212 25.3853 29.0638 20.3205C27.2991 15.7516 24.1129 12.3931 19.5454 10.6755C13.7829 8.5071 7.601 12.7695 6.61217 19.3716C5.45069 27.1255 10.498 34.0747 18.0476 34.947C19.1306 35.089 19.4378 35.772 19.8324 36.4256Z" fill="#FDFDFD"/>
<path d="M20.9494 84.6239C21.0009 83.7606 20.5547 83.1024 19.6309 83.1114C18.5793 83.1114 17.8865 83.7741 17.8752 84.82C17.8752 85.6855 18.2475 86.4654 19.317 86.5624C20.3103 86.3031 20.8888 85.6314 20.9494 84.6239Z" fill="#FDFDFD"/>
<path d="M93.1232 37.8285C93.0613 37.1718 92.7188 36.7251 92.3144 36.326C92.0076 36.025 91.672 35.8066 92.1149 35.3081C92.5125 34.8614 92.9623 34.2705 92.39 33.6979C91.8563 33.1658 91.196 33.5746 90.7242 33.8701C89.9084 34.3826 89.3375 34.3938 88.7901 33.5088C88.5438 33.1112 88.0789 32.8241 87.5823 33.1252C87.0857 33.4262 87.2411 33.9569 87.3883 34.3994C87.6001 35.0365 87.7322 35.5489 86.8229 35.731C86.3731 35.8206 85.9274 36.1664 86.0099 36.7279C86.1117 37.428 86.7624 37.428 87.2287 37.3622C88.3155 37.2222 88.7419 37.715 88.8368 38.7414C88.8808 39.2049 89.0198 39.7831 89.5411 39.8532C90.2028 39.9414 90.3748 39.2931 90.4587 38.81C90.6224 37.8481 90.9965 37.9937 91.6513 38.3815C92.3061 38.7694 92.9183 38.6994 93.1232 37.8285Z" fill="#FFC013"/>
<path d="M16.1232 56.8285C16.0613 56.1718 15.7188 55.7251 15.3144 55.326C15.0076 55.025 14.672 54.8066 15.1149 54.3081C15.5125 53.8614 15.9623 53.2705 15.39 52.6979C14.8563 52.1658 14.196 52.5746 13.7242 52.8701C12.9084 53.3826 12.3375 53.3938 11.7901 52.5088C11.5438 52.1112 11.0789 51.8241 10.5823 52.1252C10.0857 52.4262 10.2411 52.9569 10.3883 53.3994C10.6001 54.0365 10.7322 54.5489 9.82293 54.731C9.3731 54.8206 8.9274 55.1664 9.00994 55.7279C9.11173 56.428 9.7624 56.428 10.2287 56.3622C11.3155 56.2222 11.7419 56.715 11.8368 57.7414C11.8808 58.2049 12.0198 58.7831 12.5411 58.8532C13.2028 58.9414 13.3748 58.2931 13.4587 57.81C13.6224 56.8481 13.9965 56.9937 14.6513 57.3815C15.3061 57.7694 15.9183 57.6994 16.1232 56.8285Z" fill="#FFC013"/>
<path d="M25.3375 113.075C25.4205 112.342 24.9563 111.995 24.2343 111.993C23.472 111.977 23.1401 112.407 23.167 113.12C23.1917 113.71 23.537 114.152 24.1245 114.175C24.2762 114.183 24.4281 114.162 24.5715 114.111C24.7149 114.06 24.8468 113.982 24.9596 113.879C25.0725 113.777 25.164 113.653 25.2288 113.515C25.2937 113.377 25.3307 113.227 25.3375 113.075Z" fill="#FDFDFD"/>
<path d="M60.423 139.194C58.6494 139.467 57.2189 139.62 55.8219 139.925C54.8264 140.15 53.2747 139.231 52.9272 140.752C52.5371 142.47 51.8195 144.205 53.8622 145.869C57.1247 148.524 56.2255 154.049 52.4877 156.215C44.9448 160.585 34.5498 154.637 34.191 145.9C33.7314 135.47 35.7441 125.079 40.0635 115.583C40.5119 114.605 40.559 113.78 40.124 112.775C33.5968 97.5195 30.4263 81.4437 28.85 65.014C28.4778 61.1348 28.4015 57.2173 28.9845 53.3381C29.1246 52.5118 28.9544 51.6627 28.5069 50.9555C25.6234 46.1071 22.7511 41.2519 19.8317 36.426C19.4371 35.7723 19.1299 35.0893 18.0379 34.9631C10.4815 34.0908 5.43425 27.1416 6.60246 19.3877C7.59129 12.7856 13.7776 8.5232 19.5357 10.6916C24.1032 12.4092 27.2894 15.7677 29.054 20.3366C31.0115 25.4015 33.4287 30.2544 35.8077 35.1074C36.3099 36.1352 36.6171 36.6086 37.6867 35.6709C38.7562 34.7332 40.0814 34.2463 41.4066 34.0209C43.3125 33.6963 43.6286 32.966 43.0546 31.1222C40.5343 23.0235 37.8257 15.0081 34.1282 7.35787C33.6192 6.30749 32.4824 4.95731 33.4354 4.00385C34.57 2.87683 35.7763 4.33295 36.8548 4.87166C41.3752 7.1257 44.5412 10.8133 47.1063 15.0419C50.6939 20.961 54.8017 26.6637 55.6269 33.8496C55.6941 34.4267 55.8892 34.909 56.4206 35.1389C58.5934 36.0744 60.3782 37.6048 62.6765 39.4892C61.6854 33.3785 61.728 27.7479 60.5643 22.2413C60.3984 21.4501 59.8288 20.9948 59.1786 20.526C54.8914 17.4379 52.6178 13.0448 51.3531 8.03182C51.2266 7.59289 51.1735 7.13584 51.1962 6.6794C51.4025 4.30589 51.4877 1.72051 53.8869 0.478531C56.4969 -0.873894 58.6203 0.652097 60.3894 2.43504C68.3718 10.4414 74.1926 19.4711 74.0245 31.4175C73.955 36.3764 74.7711 41.4029 74.3182 46.3167C73.7128 52.8895 75.325 58.8785 77.3901 64.9126C79.7243 71.731 81.3073 78.7276 81.7557 85.945C81.8163 86.9278 82.1571 87.4146 83.1011 87.7234C87.4107 89.1232 91.0184 91.5936 93.745 95.2474C94.5365 96.3091 95.5993 96.1333 96.6039 96.2821C99.3416 96.6878 102.001 97.2152 104.059 99.325C105.775 101.085 106.557 103.123 106.122 105.58C105.315 110.115 104.156 114.549 101.75 118.518C100.214 121.052 99.1869 121.266 96.281 120.037C95.8191 122.997 95.4424 125.932 94.893 128.828C93.6239 135.525 91.4915 141.827 86.5833 146.86C82.6437 150.891 79.2354 151.436 74.4909 148.664C73.9931 149.547 74.7644 150.081 75.0738 150.728C76.3362 153.366 75.7577 155.759 73.1702 156.904C71.5006 157.671 69.682 158.055 67.8466 158.026C66.0111 157.998 64.2051 157.558 62.5599 156.74C59.5441 155.27 58.3377 152.507 58.5642 149.117C58.7862 145.819 59.645 142.657 60.423 139.194ZM93.4827 123.867C92.5275 125.037 91.4646 126.137 90.644 127.392C89.5991 128.97 88.2986 129.486 86.4106 129.392C81.7849 129.166 77.5874 127.214 73.1455 126.268C71.5602 125.927 70.1162 124.915 68.6095 124.194C67.7126 123.77 67.2641 123.067 67.0645 122.075C66.3784 118.771 66.3784 115.36 67.0645 112.056C67.6991 109.008 70.0109 106.95 72.863 107.365C80.0539 108.411 87.0115 110.189 92.7136 115.142C93.0006 115.39 93.3257 115.613 93.745 115.072C92.8702 113.672 91.754 112.441 90.4489 111.436C87.1977 108.936 83.4397 107.55 79.6861 106.053C68.1274 101.435 60.1786 103.315 52.5931 113.041C48.2095 118.671 46.4157 125.233 47.2924 132.399C47.6557 135.342 49.6244 137.263 52.5236 137.603C59.9095 138.469 65.8537 134.772 71.8316 131.251C72.3876 130.927 72.3249 129.527 73.3877 130.124C74.298 130.636 73.881 131.578 73.7106 132.408C72.8966 136.384 73.1747 140.297 74.3294 144.183C76.1568 150.35 80.9194 149.475 84.2334 146.888C85.1774 146.148 85.9532 145.154 86.6999 144.183C91.2516 138.293 92.7965 131.312 93.8369 124.153C93.9782 123.826 94.0612 123.5 93.8078 123.184C93.6957 123.412 93.5903 123.642 93.4827 123.871V123.867ZM11.3538 15.0712C10.6004 14.4987 10.4972 15.2448 10.3089 15.6415C9.21095 17.93 8.79883 20.4901 9.12274 23.0099C9.79541 28.5143 13.383 31.8187 18.9124 32.2515C20.3115 32.3619 21.4484 32.8173 22.1771 34.2621C23.3117 36.5049 24.6749 38.6327 25.9508 40.7988C29.6281 47.0403 33.5094 53.169 36.57 59.7598C36.949 60.5803 37.597 61.5428 36.4333 62.1356C35.431 62.645 34.9646 61.6284 34.5161 60.9657C33.395 59.3203 32.3524 57.6343 31.099 55.689C29.7671 66.6166 36.9467 102.122 42.0321 111.589C42.929 110.462 43.8259 109.335 44.7363 108.233C44.9919 107.924 45.3821 107.728 45.7408 107.969C46.0996 108.21 46.039 108.645 45.8686 109.004C45.6602 109.497 45.4151 109.973 45.1354 110.428C41.5478 115.768 39.6666 121.818 38.0253 127.954C36.1575 134.941 35.6776 141.953 37.4019 149.045C38.0275 151.619 39.7047 153.257 41.9155 154.508C43.5143 155.41 44.4022 155.142 44.7094 153.208C44.8641 152.23 44.8013 151.143 45.6511 149.939C45.6511 151.168 45.53 152.027 45.6825 152.834C45.8507 153.735 44.4627 154.783 45.7632 155.419C46.6915 155.87 47.8485 155.699 48.9181 155.552C50.4428 155.34 49.8262 153.681 50.5302 152.895C51.3419 153.429 50.389 154.52 51.2029 154.677C52.0169 154.835 52.5034 154.001 52.9407 153.395C53.595 152.534 53.914 151.462 53.8376 150.381C53.6425 148.082 52.0595 146.75 50.389 145.513C49.288 144.699 48.0795 144.027 47.1736 142.97C46.9202 142.675 46.7139 142.294 46.9494 141.935C47.1848 141.577 47.6669 141.681 47.9898 141.827C48.8643 142.224 49.7051 142.69 50.7343 143.22C51.0774 141.092 51.5437 139.431 48.871 138.41C46.3597 137.45 45.2363 135.009 45.0412 132.324C44.4313 124.002 46.631 116.51 52.2725 110.345C54.4878 107.924 55.8354 105.551 55.1201 102.212C52.981 102.501 51.3375 104.182 49.2432 104.856C45.2789 106.13 42.9492 104.559 42.8999 100.427C42.8573 96.7824 43.7968 93.3202 44.808 89.8693C45.7431 86.6821 47.844 84.685 50.9406 83.6053C53.3891 82.7443 55.7233 83.2019 58.0978 83.8307C63.9411 85.395 69.6543 87.8452 75.9326 86.5356C76.3847 86.4463 76.8511 86.4625 77.2959 86.5829C79.3453 87.1464 79.5695 86.0622 79.3543 84.4258C78.6999 79.7332 77.7715 75.0833 76.5739 70.5003C73.8675 59.8477 69.3382 50.081 61.8334 41.9101C60.3176 40.2579 58.6808 38.6958 56.6762 37.7829C56.6762 39.2503 56.6987 40.623 56.665 41.9957C56.6516 42.6562 56.7749 43.6637 55.9318 43.693C54.8331 43.7291 55.1224 42.6336 55.0775 41.9326C54.8757 38.8085 54.4923 35.7227 53.5079 32.7226C53.2777 33.0413 53.1242 33.4093 53.0595 33.7978C52.8555 34.7512 52.8981 35.9662 51.6581 36.1623C50.4652 36.3516 50.0213 35.2111 49.4876 34.4154C48.5122 32.9593 47.6108 31.4513 46.6781 29.9659C46.4 29.5151 46.2005 28.9448 45.483 29.3889C44.9605 29.7134 44.7722 30.0651 45.0345 30.6962C45.2789 31.3386 45.4716 31.9996 45.6108 32.673C46.3955 35.9436 47.0615 39.2368 47.075 42.6201C47.075 43.1137 47.1041 43.8328 46.3731 43.8395C45.8574 43.8395 45.7251 43.2715 45.6377 42.8139C45.3978 41.5381 45.1892 40.2533 44.9291 38.9821C44.0322 34.5393 43.169 34.1629 39.1284 36.4485C38.9289 36.559 38.7473 36.6987 38.5477 36.8137C37.4625 37.438 37.1732 38.1458 37.7898 39.4171C39.2226 42.3654 40.5074 45.388 41.7519 48.4197C42.1824 49.4746 43.225 51.0389 41.8909 51.6723C40.7429 52.2178 40.263 50.401 39.8549 49.4904C36.6373 42.3226 32.9174 35.3824 30.09 28.0387C29.5182 26.5555 29.0585 25.9267 27.4284 26.7764C26.4284 27.2971 25.2019 27.0469 24.065 26.7471C18.6837 25.3338 15.2239 19.8295 16.1903 14.2327C16.2889 13.6602 16.6858 12.9817 16.1477 12.4993C15.2956 11.733 11.5982 13.7548 11.3269 15.0937L11.3538 15.0712ZM88.6641 92.5674C83.5069 87.5251 73.641 86.4341 66.652 89.8107C60.8087 92.6305 55.9273 99.8885 56.7973 105.433C63.033 100.114 70.1835 102.052 76.8744 103.452C83.7446 104.892 90.3099 107.692 95.0074 113.773C96.6622 109.525 96.7249 105.587 95.42 101.602C95.2563 101.103 95.1957 100.272 94.6778 100.292C91.8256 100.402 90.3996 97.8531 88.1372 96.9109C86.7716 96.3407 85.1639 95.7839 85.3478 94.0393C85.5429 92.1549 87.4914 93.0069 88.6641 92.5674ZM72.65 52.4725C72.7576 51.1201 72.8406 50.4732 72.8585 49.8172C73.0469 42.7801 72.5625 35.7588 72.289 28.7329C72.1241 24.7533 71.2246 20.8391 69.6364 17.19C69.2395 16.2681 68.7687 15.4702 67.6408 15.1997C61.2863 13.6714 58.6718 8.90189 57.3736 3.04814C57.0283 1.49962 55.4116 0.893277 54.203 1.93239C53.703 2.36066 53.5057 2.80696 54.3421 3.05941C55.8645 3.52149 56.517 4.50425 55.9116 6.01221C55.2591 7.63061 54.008 6.91382 52.9003 6.37962C52.6701 7.65977 52.8863 8.98057 53.5124 10.1191C55.1022 13.2589 56.9094 16.3109 59.7616 18.4703C61.3045 19.5915 62.3582 21.2675 62.7034 23.1497C63.8895 28.8321 65.2461 34.483 64.9299 40.3615C64.8941 41.0152 64.7057 41.75 65.3784 42.2707C68.6139 44.7795 70.614 48.2417 72.65 52.4725ZM71.354 155.482C74.0245 154.436 74.511 152.59 72.5693 150.69C71.6499 149.788 70.4997 149.135 69.5153 148.299C69.0669 147.913 68.0063 147.622 68.5848 146.802C69.0826 146.087 69.8337 146.802 70.4414 147.009C71.1544 147.246 71.8921 148.404 72.5154 147.634C72.8464 147.207 73.0455 146.691 73.0882 146.152C73.1308 145.612 73.0151 145.072 72.7554 144.597C71.7307 142.715 71.6454 140.66 71.6611 138.586C71.6611 137.1 71.6611 135.615 71.6611 133.796C69.1947 135.428 66.7775 136.474 64.3851 137.581C64.1079 137.683 63.863 137.857 63.6761 138.087C63.4891 138.317 63.3669 138.592 63.3222 138.886C62.6742 141.791 61.9276 144.674 61.2639 147.575C60.6226 150.37 60.9141 152.793 63.6025 154.563C66.1766 156.267 66.3627 156.273 67.0197 153.176C67.0713 152.933 67.0466 152.518 67.3471 152.597C68.9166 153.384 66.6116 155.593 68.7507 155.91C71.1701 156.269 69.4234 153.431 70.9167 152.89C71.4773 153.686 71.0647 154.65 71.3629 155.473L71.354 155.482ZM26.0113 25.7824C29.0249 25.7531 29.359 25.2798 28.2289 22.4329C27.6975 21.0917 27.184 19.7145 26.4351 18.5018C24.6279 15.6054 22.4753 13.0764 18.7801 12.6098C18.0895 12.5219 17.5491 12.3393 17.2105 13.3311C15.4257 18.6822 20.4506 25.841 26.0113 25.7824ZM58.3714 2.42603C58.8333 7.65315 63.0038 13.996 67.652 13.5317C64.7214 9.78998 62.0756 5.99417 58.3714 2.42603ZM83.9957 121.354C84.1348 122.086 83.9464 123.261 85.0675 123.475C86.1057 123.671 86.6371 122.724 87.0071 121.854C87.096 121.642 87.1563 121.419 87.1864 121.191C87.3703 119.868 88.2201 118.552 87.3703 117.211C87.099 116.783 86.5362 116.85 86.1303 117.116C84.6617 118.063 84.1348 119.526 83.9957 121.354ZM80.018 120.619C81.1884 120.031 81.2669 119.233 81.0539 118.381C81.0347 118.306 80.9969 118.238 80.9439 118.182C80.8909 118.126 80.8245 118.085 80.7512 118.062C80.6778 118.04 80.6 118.036 80.525 118.053C80.45 118.069 80.3804 118.104 80.3229 118.155C79.5314 118.8 79.8565 119.632 80.018 120.61V120.619ZM93.7697 115.66C93.7181 115.712 93.6172 115.773 93.6262 115.811C93.6619 115.919 93.7101 116.023 93.7697 116.12C93.819 116.068 93.9199 116.007 93.9132 115.969C93.8795 115.861 93.8313 115.757 93.7697 115.662V115.66Z" fill="#1E1E1E"/>
<path d="M105.611 19.7724C105.277 21.1745 104.248 21.2669 103.209 20.6628C102.171 20.0587 101.532 19.804 101.268 21.3638C101.131 22.1482 100.851 23.1851 99.772 23.0431C98.9222 22.9304 98.6958 21.9994 98.624 21.2533C98.4671 19.6011 97.772 18.81 96.0028 19.0331C95.2427 19.13 94.1821 19.1481 94.0162 18.012C93.8817 17.1104 94.6082 16.5514 95.3414 16.4072C96.8235 16.1141 96.6082 15.2801 96.2629 14.2636C96.023 13.5513 95.7382 12.7218 96.5791 12.2124C97.4199 11.703 98.1487 12.1899 98.5478 12.83C99.4447 14.2546 100.371 14.2365 101.7 13.4115C102.469 12.9359 103.546 12.2845 104.416 13.1343C105.351 14.0562 104.618 15.0074 103.967 15.7264C103.245 16.5289 103.792 16.8805 104.292 17.3651C104.952 17.9963 105.51 18.7153 105.611 19.7724Z" fill="#FFC013"/>
<path d="M94.633 73.0377C94.4312 74.6291 93.8482 75.9883 91.9849 76.1168C90.431 76.225 88.6215 74.6359 88.7112 73.2744C88.8435 71.2458 90.4332 70.698 92.0275 70.5357C93.6217 70.3735 94.5074 71.372 94.633 73.0377Z" fill="#FFFDFD"/>
<path d="M94.633 73.0377C94.4312 74.6291 93.8482 75.9883 91.9849 76.1168C90.431 76.225 88.6215 74.6359 88.7112 73.2744C88.8435 71.2458 90.4332 70.698 92.0275 70.5357C93.6217 70.3735 94.5074 71.372 94.633 73.0377Z" fill="#FFC013"/>
<path d="M19.3189 86.5623C18.2493 86.4653 17.8681 85.6854 17.8771 84.8199C17.8771 83.774 18.5812 83.1226 19.6328 83.1113C20.5566 83.1113 21.0028 83.7605 20.9512 84.6238C20.8907 85.6313 20.3122 86.3031 19.3189 86.5623Z" fill="#FFC013"/>
<path d="M91.7473 64.0456C91.9401 63.3356 92.1644 62.5895 93.068 62.5174C93.7025 62.4678 94.003 62.9186 93.9649 63.5227C93.9223 64.2553 93.5568 64.8391 92.8124 64.963C92.2294 65.069 91.8662 64.6768 91.7473 64.0456Z" fill="#FFC013"/>
<path d="M24.2459 111.993C24.9656 111.993 25.4298 112.342 25.3468 113.075C25.3399 113.227 25.303 113.377 25.2381 113.515C25.1733 113.653 25.0817 113.777 24.9689 113.879C24.8561 113.982 24.7241 114.06 24.5808 114.111C24.4374 114.162 24.2855 114.183 24.1338 114.175C23.5463 114.152 23.201 113.71 23.1763 113.12C23.1494 112.407 23.4813 111.977 24.2459 111.993Z" fill="#FFC013"/>
<path d="M11.3206 15.1002C11.5919 13.7613 15.2893 11.7394 16.1414 12.5058C16.6795 12.9882 16.2826 13.6666 16.184 14.2392C15.2176 19.8359 18.6863 25.3313 24.0587 26.7536C25.1799 27.0534 26.4176 27.3036 27.4221 26.7829C29.0522 25.9331 29.5119 26.5575 30.0837 28.0452C32.9111 35.3888 36.631 42.329 39.8486 49.4969C40.2567 50.3985 40.7455 52.2243 41.8846 51.6788C43.2187 51.0454 42.1761 49.4811 41.7456 48.4262C40.5011 45.3945 39.2163 42.3718 37.7835 39.4236C37.1669 38.1523 37.4562 37.4445 38.5414 36.8201C38.741 36.7052 38.9226 36.5654 39.1221 36.455C43.1582 34.1694 44.0327 34.5458 44.9228 38.9885C45.1784 40.2621 45.3914 41.5469 45.6314 42.8204C45.7188 43.2712 45.8556 43.8505 46.3668 43.846C47.0978 43.846 47.0709 43.1202 47.0686 42.6266C47.0552 39.2455 46.396 35.9501 45.6045 32.6795C45.4653 32.0061 45.2726 31.345 45.0282 30.7027C44.7614 30.0738 44.9497 29.7199 45.4767 29.3953C46.1942 28.9445 46.3937 29.5328 46.6718 29.9724C47.6045 31.4578 48.5059 32.9657 49.4813 34.4218C50.015 35.2175 50.4589 36.3581 51.6518 36.1687C52.8918 35.9726 52.8492 34.7577 53.0532 33.8042C53.1179 33.4158 53.2714 33.0477 53.5016 32.7291C54.495 35.7292 54.8784 38.815 55.0712 41.9391C55.1161 42.6401 54.8268 43.7423 55.9255 43.6995C56.7686 43.6702 56.6453 42.6626 56.6587 42.0022C56.6924 40.6295 56.6699 39.2568 56.6699 37.7894C58.688 38.7023 60.3225 40.2688 61.8271 41.9165C69.3319 50.0874 73.8612 59.8542 76.5676 70.5068C77.7652 75.0898 78.6936 79.7396 79.348 84.4322C79.5722 86.0687 79.348 87.1529 77.2896 86.5894C76.8448 86.469 76.3784 86.4528 75.9263 86.542C69.648 87.8516 63.9348 85.4015 58.0915 83.8372C55.717 83.2015 53.3828 82.744 50.9343 83.6118C47.8377 84.7027 45.7368 86.6885 44.8017 89.8757C43.7882 93.3267 42.851 96.7889 42.8936 100.434C42.9429 104.565 45.2726 106.136 49.2369 104.863C51.3312 104.187 52.9747 102.507 55.1138 102.219C55.8291 105.557 54.4815 107.931 52.2662 110.351C46.6247 116.516 44.4183 124.009 45.0349 132.331C45.23 135.013 46.3534 137.454 48.8647 138.417C51.5374 139.438 51.0711 141.099 50.728 143.227C49.6988 142.697 48.858 142.23 47.9835 141.834C47.6606 141.687 47.1942 141.565 46.9431 141.942C46.692 142.318 46.9162 142.681 47.1673 142.976C48.0642 144.034 49.2817 144.705 50.3827 145.519C52.0532 146.756 53.6362 148.089 53.8313 150.388C53.9077 151.469 53.5887 152.54 52.9344 153.401C52.4859 154.012 52.024 154.844 51.1966 154.684C50.3692 154.524 51.3334 153.435 50.5239 152.901C49.8199 153.688 50.4365 155.347 48.9118 155.559C47.8422 155.705 46.6852 155.876 45.7569 155.426C44.4564 154.79 45.8444 153.733 45.6762 152.84C45.5237 152.033 45.6448 151.174 45.6448 149.946C44.795 151.15 44.8578 152.236 44.7031 153.214C44.3959 155.148 43.508 155.419 41.9092 154.515C39.6984 153.264 38.0212 151.625 37.3956 149.051C35.6713 141.96 36.1512 134.936 38.019 127.96C39.6603 121.825 41.5303 115.775 45.1291 110.435C45.4088 109.979 45.6539 109.503 45.8623 109.01C46.0327 108.647 46.1 108.221 45.7345 107.976C45.369 107.73 44.9856 107.931 44.73 108.239C43.8174 109.348 42.9362 110.475 42.0258 111.596C36.9404 102.129 29.7608 66.6253 31.0927 55.6955C32.3461 57.6407 33.3999 59.3267 34.5098 60.9722C34.9583 61.6349 35.4247 62.6514 36.427 62.142C37.5907 61.5492 36.9427 60.5868 36.5637 59.7663C33.5031 53.1755 29.6128 47.0467 25.9445 40.8053C24.6642 38.6301 23.3188 36.5023 22.1753 34.2595C21.4465 32.8147 20.3097 32.3594 18.9106 32.2489C13.3834 31.8184 9.80257 28.514 9.12092 23.0074C8.7991 20.4869 9.21356 17.9267 10.3138 15.6389C10.5021 15.2422 10.6053 14.4961 11.3587 15.0686C11.3035 15.6568 11.2796 16.2474 11.2869 16.8381C11.3654 18.053 11.9125 18.9704 13.2534 18.8261C14.5045 18.6931 15.0472 17.7352 15.0068 16.545C14.9665 15.0822 13.944 14.9154 12.7646 14.9492C12.269 14.9627 11.8475 15.5871 11.3206 15.1002ZM37.2073 68.8658C37.3589 73.3771 38.0293 77.8556 39.2051 82.212C39.3486 82.7485 39.3307 83.6208 40.1648 83.4495C40.8105 83.3165 40.5886 82.5727 40.5146 82.079C39.6984 76.6558 38.1333 71.316 38.7342 65.7327C38.7858 65.2526 38.5975 64.7905 38.0279 64.7522C37.4225 64.7094 37.2476 65.2165 37.2252 65.6538C37.1736 66.729 37.2073 67.7997 37.2073 68.8658ZM16.8836 23.1764C16.8253 22.6546 16.5798 22.1719 16.1931 21.8188C15.8064 21.4658 15.3049 21.2665 14.7826 21.2582C13.5068 21.1951 13.0493 22.3041 13.0157 23.4514C12.9753 24.8038 14.083 25.0608 15.0337 25.0788C16.0741 25.1059 16.8925 24.5289 16.8836 23.1764ZM42.3981 87.3693C42.3353 86.6119 41.9675 86.0709 41.3083 86.0912C40.4989 86.1138 40.2836 86.8959 40.1581 87.5428C40.0325 88.1897 40.4765 88.5662 41.0684 88.5278C41.7792 88.4805 42.3218 88.1041 42.3981 87.3693Z" fill="#F9F9F9"/>
<path d="M93.8328 124.148C92.7924 131.307 91.2475 138.288 86.6957 144.178C85.9536 145.14 85.1777 146.134 84.2293 146.883C80.9152 149.482 76.1572 150.356 74.3253 144.178C73.1705 140.285 72.8925 136.379 73.7064 132.403C73.8768 131.573 74.2939 130.631 73.3835 130.119C72.3207 129.522 72.3835 130.922 71.8274 131.246C65.8496 134.767 59.9054 138.459 52.5195 137.598C49.6202 137.258 47.6516 135.344 47.2883 132.394C46.4161 125.233 48.2099 118.671 52.5979 113.036C60.1879 103.31 68.1322 101.43 79.691 106.049C83.44 107.545 87.198 108.931 90.4537 111.431C91.7604 112.439 92.8774 113.673 93.7521 115.076C93.3328 115.617 93.0077 115.394 92.7206 115.146C87.0141 110.194 80.0497 108.415 72.8745 107.378C70.0224 106.964 67.7174 109.022 67.0761 112.069C66.39 115.373 66.39 118.784 67.0761 122.088C67.2757 123.069 67.7264 123.783 68.621 124.207C70.1278 124.922 71.5718 125.94 73.1571 126.281C77.599 127.227 81.7964 129.175 86.4222 129.405C88.3102 129.5 89.6106 128.992 90.6555 127.406C91.4829 126.15 92.539 125.05 93.4942 123.88C93.6004 123.978 93.7136 124.067 93.8328 124.148Z" fill="#F9F9F9"/>
<path d="M88.6647 92.5671C87.492 93.018 85.5435 92.1547 85.3484 94.0413C85.1645 95.7859 86.7722 96.3427 88.1377 96.9129C90.4002 97.8574 91.8262 100.407 94.6784 100.294C95.1918 100.274 95.2569 101.105 95.4205 101.604C96.7255 105.584 96.6627 109.522 95.008 113.775C90.3105 107.69 83.7452 104.895 76.8749 103.454C70.1841 102.05 63.0336 100.116 56.7979 105.435C55.9279 99.8905 60.8093 92.6325 66.6526 89.8127C73.6484 86.4339 83.5075 87.5249 88.6647 92.5671ZM75.7449 94.0075V94.278C77.6373 94.1946 79.5455 94.2261 81.4222 93.994C83.216 93.7686 83.5815 92.6934 82.577 91.3139C80.2047 88.0478 71.9981 88.5347 70.2872 91.5686C69.9442 92.1772 69.4441 92.7497 69.7895 93.4462C70.0966 94.0661 70.7895 94.0188 71.4106 94.012C72.8591 93.9962 74.3031 94.0075 75.7449 94.0075ZM80.754 101.182C80.6374 99.6629 80.4356 98.2992 78.9468 98.2518C77.6149 98.2113 76.413 98.8469 75.4825 100.785C77.5633 99.9897 79.4916 98.0941 80.754 101.182ZM88.0323 104.771C88.9023 103.447 89.0301 102.273 87.8238 101.658C86.7655 101.119 85.521 101.164 84.7295 102.832C86.4336 102.532 88.0436 102.194 88.0323 104.771Z" fill="#F9F9F9"/>
<path d="M72.65 52.472C70.605 48.2412 68.6139 44.779 65.3627 42.2702C64.69 41.7496 64.8896 41.0147 64.9142 40.3611C65.2304 34.4825 63.8738 28.8317 62.6877 23.1492C62.3425 21.2671 61.2888 19.5911 59.7459 18.4698C56.8937 16.3105 55.0865 13.2585 53.4967 10.1186C52.8706 8.98012 52.6544 7.65931 52.8846 6.37916C53.9923 6.91337 55.2434 7.63015 55.8959 6.01175C56.5058 4.5038 55.8533 3.52103 54.3264 3.05895C53.49 2.8065 53.6873 2.3602 54.1873 1.93193C55.3959 0.892821 57.0126 1.49916 57.3579 3.04769C58.6584 8.90819 61.2706 13.671 67.6251 15.1992C68.7462 15.4697 69.2238 16.2676 69.6207 17.1895C71.2089 20.8387 72.1084 24.7528 72.2733 28.7325C72.5468 35.7583 73.0311 42.7797 72.8428 49.8168C72.8495 50.4727 72.7666 51.1286 72.65 52.472Z" fill="#F9F9F9"/>
<path d="M71.3627 155.473C71.0645 154.65 71.4771 153.686 70.9277 152.89C69.4433 153.42 71.1811 156.271 68.7617 155.91C66.6226 155.592 68.9254 153.384 67.3581 152.597C67.0576 152.518 67.0823 152.933 67.0307 153.176C66.3737 156.273 66.1876 156.266 63.6135 154.562C60.9228 152.784 60.6336 150.361 61.2748 147.575C61.9475 144.674 62.6852 141.791 63.3332 138.886C63.3779 138.592 63.5001 138.316 63.6871 138.087C63.874 137.857 64.1189 137.682 64.396 137.58C66.7885 136.474 69.2146 135.428 71.6721 133.796C71.6721 135.615 71.6721 137.1 71.6721 138.586C71.6564 140.659 71.7416 142.715 72.7663 144.597C73.0261 145.071 73.1418 145.612 73.0992 146.152C73.0565 146.691 72.8574 147.206 72.5264 147.633C71.9031 148.404 71.1654 147.246 70.4524 147.009C69.8447 146.808 69.0936 146.087 68.5958 146.802C68.0173 147.629 69.0711 147.913 69.5263 148.298C70.5106 149.135 71.6609 149.791 72.5802 150.69C74.5198 152.581 74.0332 154.427 71.3627 155.473Z" fill="#F9F9F9"/>
<path d="M26.0105 25.7824C20.4408 25.8388 15.4159 18.6799 17.2075 13.3311C17.5393 12.3393 18.0797 12.5219 18.7771 12.6098C22.4723 13.0764 24.6248 15.6054 26.4321 18.5019C27.1899 19.7145 27.7034 21.0918 28.2259 22.4329C29.3739 25.282 29.0331 25.7554 26.0105 25.7824Z" fill="#F9F9F9"/>
<path d="M58.3706 2.42578C62.0748 5.99393 64.7206 9.78973 67.6512 13.5314C63.0076 13.9958 58.8325 7.6529 58.3706 2.42578Z" fill="#F9F9F9"/>
<path d="M83.9958 121.354C84.1349 119.535 84.6685 118.072 86.1305 117.116C86.5363 116.85 87.0991 116.782 87.3704 117.211C88.2202 118.552 87.3704 119.868 87.1866 121.191C87.1565 121.419 87.0961 121.642 87.0072 121.854C86.6282 122.724 86.1103 123.671 85.0676 123.475C83.9465 123.251 84.1349 122.077 83.9958 121.354Z" fill="#F9F9F9"/>
<path d="M80.0179 120.61C79.8565 119.632 79.5313 118.807 80.3229 118.13C80.3804 118.079 80.4499 118.044 80.5249 118.028C80.5999 118.011 80.6778 118.015 80.7511 118.037C80.8244 118.06 80.8908 118.101 80.9438 118.157C80.9968 118.213 81.0347 118.281 81.0538 118.356C81.2668 119.224 81.1884 120.022 80.0179 120.61Z" fill="#F9F9F9"/>
<path d="M93.4819 123.871C93.5896 123.646 93.6949 123.42 93.8026 123.179C94.0672 123.495 93.973 123.822 93.8317 124.148C93.7084 124.065 93.5914 123.972 93.4819 123.871Z" fill="#F9F9F9"/>
<path d="M93.7703 115.662C93.8305 115.758 93.878 115.862 93.9115 115.971C93.9115 116.009 93.8174 116.07 93.768 116.122C93.7085 116.025 93.6603 115.921 93.6245 115.813C93.6156 115.775 93.7254 115.718 93.7703 115.662Z" fill="#F9F9F9"/>
<path d="M37.208 68.8661C37.208 67.8 37.1744 66.7293 37.226 65.6631C37.2484 65.2123 37.4233 64.7097 38.0287 64.7615C38.5982 64.7998 38.7866 65.2619 38.735 65.742C38.1341 71.3253 39.6992 76.6651 40.5153 82.0883C40.5893 82.5819 40.8113 83.3258 40.1656 83.4588C39.3314 83.6301 39.3494 82.7578 39.2059 82.2213C38.0294 77.862 37.359 73.3804 37.208 68.8661Z" fill="#1E1E1E"/>
<path d="M11.3214 15.1003C11.8484 15.5872 12.2699 14.9651 12.7587 14.9515C13.9381 14.9177 14.9606 15.0845 15.001 16.5474C15.0324 17.7375 14.4987 18.6955 13.2475 18.8285C11.9022 18.9727 11.3596 18.0553 11.2811 16.8404C11.2737 16.2497 11.2977 15.6591 11.3528 15.071L11.3214 15.1003Z" fill="#1E1E1E"/>
<path d="M16.8854 23.1764C16.8854 24.5289 16.0759 25.1014 15.0288 25.0789C14.0848 25.0608 12.9771 24.8084 13.0108 23.4514C13.0444 22.3041 13.5018 21.1974 14.7776 21.2583C15.3012 21.2649 15.8042 21.4634 16.1924 21.8167C16.5805 22.1699 16.8269 22.6534 16.8854 23.1764ZM15.9526 23.4176C15.9342 23.1519 15.8228 22.9012 15.6381 22.7102C15.4534 22.5191 15.2073 22.4 14.9436 22.374C14.2126 22.2365 14.0848 22.8248 13.9996 23.3365C13.8897 24.0127 14.3068 24.2967 14.9077 24.317C15.5086 24.3373 15.9212 24.0826 15.9526 23.4176Z" fill="#1E1E1E"/>
<path d="M42.399 87.3694C42.3227 88.1042 41.7801 88.4807 41.0693 88.528C40.4774 88.5663 40.0401 88.1673 40.159 87.543C40.2778 86.9186 40.4998 86.1139 41.3092 86.0914C41.9685 86.0711 42.3362 86.6121 42.399 87.3694Z" fill="#1E1E1E"/>
<path d="M75.7445 94.0073C74.3028 94.0073 72.8588 94.0073 71.417 94.0073C70.7959 94.0073 70.103 94.0614 69.7959 93.4416C69.4506 92.7451 69.9506 92.1725 70.2936 91.5639C72.0045 88.53 80.2111 88.0431 82.5834 91.3092C83.5879 92.6887 83.2224 93.7684 81.4286 93.9893C79.5519 94.2147 77.6437 94.1899 75.7513 94.2733L75.7445 94.0073Z" fill="#1E1E1E"/>
<path d="M80.7539 101.182C79.4916 98.0942 77.5632 99.9899 75.4824 100.788C76.413 98.8493 77.6148 98.2137 78.9467 98.2543C80.4355 98.2993 80.6373 99.663 80.7539 101.182Z" fill="#1E1E1E"/>
<path d="M88.0309 104.77C88.0309 102.192 86.4321 102.532 84.728 102.832C85.5195 101.164 86.764 101.119 87.8223 101.658C89.0287 102.273 88.9008 103.447 88.0309 104.77Z" fill="#1E1E1E"/>
<path d="M15.9531 23.4177C15.9105 24.0827 15.5047 24.3374 14.9082 24.3193C14.3118 24.3013 13.8902 24.015 14.0001 23.3388C14.0853 22.8227 14.2243 22.2389 14.9441 22.3764C15.2075 22.4023 15.4533 22.521 15.638 22.7116C15.8226 22.9022 15.9343 23.1523 15.9531 23.4177Z" fill="#F9F9F9"/>
<path d="M60.8306 89.8165C60.5841 89.9959 60.3555 90.2141 60.0383 90.2603C59.7468 90.3035 59.6427 90.1732 59.7559 89.8938C59.8692 89.6144 60.8271 89.048 61.1319 89.0847C61.3317 89.1065 61.3194 89.215 61.2504 89.3544C61.1539 89.5486 60.9838 89.675 60.8306 89.8165Z" fill="white"/>
<path d="M51.3135 90.4482C51.1595 91.3025 50.6942 92.0137 50.305 92.7582C50.2985 92.778 50.2875 92.7959 50.2727 92.8105C50.258 92.825 50.24 92.8359 50.2203 92.8421C50.2006 92.8484 50.1796 92.8498 50.1592 92.8463C50.1388 92.8428 50.1196 92.8345 50.103 92.822C50.0197 92.7653 50.0522 92.6805 50.0799 92.6051C50.3469 91.8122 50.7659 91.0795 51.3135 90.4482Z" fill="white"/>
<path d="M54.1641 93.8357C54.1392 94.4179 53.9588 94.9826 53.6417 95.4707C53.5513 95.6106 53.3899 95.7038 53.2195 95.6038C53.0735 95.5174 53.0763 95.3412 53.1233 95.2091C53.3321 94.6607 53.6933 94.1841 54.1641 93.8357Z" fill="white"/>
<path d="M49.343 97.2623C49.3096 97.8218 49.219 98.2233 48.9836 98.5787C48.8936 98.7131 48.7624 98.8459 48.581 98.7721C48.3695 98.6857 48.3825 98.4839 48.4435 98.3127C48.5902 97.8897 48.8812 97.5842 49.343 97.2623Z" fill="white"/>
<path d="M56.0176 89.3813C55.8324 89.9742 55.488 90.5044 55.0222 90.9137C54.9728 90.9564 54.9039 90.9928 54.8543 90.9365C54.8251 90.8971 54.8082 90.85 54.8057 90.8011C54.8032 90.7521 54.8153 90.7035 54.8403 90.6614C55.0927 90.1059 55.5275 89.7211 56.0176 89.3813Z" fill="white"/>
<path d="M99.5536 114.362C99.5666 114.056 99.5382 113.741 99.6992 113.463C99.8465 113.207 100.013 113.206 100.161 113.468C100.309 113.731 100.156 114.836 99.9378 115.053C99.7966 115.197 99.7195 115.12 99.6535 114.979C99.5619 114.782 99.5689 114.57 99.5536 114.362Z" fill="white"/>
<path d="M104.971 106.484C104.4 105.832 104.134 105.024 103.794 104.256C103.783 104.238 103.776 104.219 103.774 104.198C103.771 104.177 103.774 104.156 103.781 104.137C103.789 104.118 103.801 104.1 103.816 104.086C103.831 104.073 103.85 104.063 103.87 104.057C103.966 104.027 104.012 104.105 104.054 104.174C104.507 104.876 104.819 105.661 104.971 106.484Z" fill="white"/>
<path d="M100.556 106.621C100.117 106.24 99.7879 105.748 99.6037 105.195C99.5506 105.037 99.5781 104.852 99.7621 104.78C99.9202 104.719 100.056 104.831 100.13 104.95C100.428 105.455 100.576 106.035 100.556 106.621Z" fill="white"/>
<path d="M100.876 100.701C100.46 100.327 100.203 100.007 100.072 99.6008C100.023 99.4465 100.001 99.2608 100.171 99.164C100.37 99.0513 100.519 99.1869 100.615 99.3412C100.854 99.7193 100.912 100.138 100.876 100.701Z" fill="white"/>
<path d="M102.883 110.847C102.535 110.333 102.335 109.732 102.305 109.112C102.302 109.046 102.317 108.97 102.392 108.966C102.44 108.967 102.488 108.983 102.527 109.011C102.567 109.04 102.598 109.08 102.615 109.125C102.892 109.669 102.922 110.25 102.883 110.847Z" fill="white"/>
</svg>
