<svg width="273" height="250" viewBox="0 0 273 250" fill="none" xmlns="http://www.w3.org/2000/svg">
<g clip-path="url(#clip0_2630_5069)">
<path d="M154.106 237.623C153.381 238.534 152.831 239.246 152.259 239.939C150.948 241.514 149.616 243.037 147.729 243.936C145.545 244.978 144.02 243.962 144.213 241.532C144.392 239.241 145.361 237.204 146.397 235.192C146.545 234.9 146.908 234.573 146.633 234.241C146.357 233.91 145.973 234.167 145.637 234.215C144.676 234.35 143.723 234.612 142.745 234.464C140.875 234.176 140.216 232.802 141.194 231.196C141.96 230.056 142.962 229.095 144.134 228.378C147.026 226.41 150.249 225.289 153.626 224.451C154.215 224.307 155.028 224.451 155.172 223.513C155.316 222.575 154.941 222.073 154.159 221.589C147.845 217.673 142.167 212.818 137.32 207.192C136.573 206.319 135.961 205.351 135.263 204.443C135.083 204.207 134.826 203.863 134.594 203.867C134.157 203.867 134.205 204.386 134.118 204.692C133.044 208.479 131.825 212.2 129.575 215.49C127.125 219.076 124.032 221.833 119.634 222.627C113.422 223.753 108.316 221.554 104.249 216.925C100.244 212.392 98.3569 206.825 97.1863 201.027C95.2389 191.451 95.0318 181.603 96.5748 171.953C96.6578 171.425 97.1164 170.723 96.5748 170.356C96.138 170.042 95.64 170.679 95.1857 170.915C91.4292 172.847 88.3192 171.456 87.3582 167.311C86.6331 164.191 87.0656 161.081 87.712 157.996C89.4986 149.476 93.3905 141.889 98.2215 134.751C104.293 125.79 111.286 117.535 118.288 109.298C118.926 108.543 119.284 108.081 118.384 107.117C113.58 101.977 111.099 95.6991 110.151 88.8363C108.434 76.4502 112.212 65.5779 119.695 55.8357C124.5 49.5968 130.449 44.6625 137.167 40.6574C138.159 40.0684 138.338 39.5187 138.041 38.4367C136.337 32.1803 134.708 25.9066 134.109 19.419C133.943 17.6171 133.777 15.8066 134.175 14.0222C134.66 11.8626 136.215 11.0641 138.268 11.9324C139.989 12.661 141.4 13.9044 142.95 14.9122C144.322 15.7848 144.597 15.7586 145.134 14.249C145.96 11.9673 146.676 9.65059 147.462 7.36009C147.995 5.71306 148.693 4.12414 149.546 2.61767C151.424 -0.584659 153.914 -0.872607 156.491 1.84109C157.843 3.36068 158.971 5.06475 159.842 6.90199C162.921 12.8442 164.821 19.2358 166.909 25.5575C167.241 26.561 167.625 27.5557 167.861 28.5854C168.097 29.615 168.591 29.8069 169.556 29.6804C174.598 29.0482 179.686 28.8555 184.761 29.1045C192.896 29.4146 200.93 31.0139 208.563 33.8426C209.602 34.2309 210.174 34.0738 210.908 33.2274C216.15 27.1762 221.89 21.631 227.747 16.2123C228.427 15.5725 229.157 14.9889 229.931 14.4672C231.272 13.5946 232.382 14.1356 232.495 15.7498C232.519 17.0306 232.34 18.3071 231.967 19.5324C231.53 21.3299 231.032 23.1187 230.591 24.9162C230.503 25.2827 230.176 25.7626 230.499 26.0287C230.822 26.2949 231.303 25.9022 231.67 25.7146C236.709 23.154 242.118 21.3963 247.7 20.5054C248.737 20.2777 249.799 20.1882 250.858 20.2392C252.396 20.405 253.042 21.3299 252.627 22.8177C252.065 24.6327 251.233 26.3533 250.16 27.9222C245.695 34.9507 240.755 41.6521 235.671 48.2836C233.924 50.5916 233.967 50.5654 235.706 52.9126C245.315 65.9008 247.526 79.8663 241.126 94.9268C240.69 95.9652 239.628 97.0254 239.755 97.9459C239.882 98.8665 241.161 99.6605 241.882 100.564C246.827 106.637 250.845 113.303 254.711 120.092C259.602 128.551 263.537 137.526 266.444 146.853C270.737 160.937 273.668 175.273 272.869 190.081C272.201 202.384 268.789 213.884 261.075 223.775C257.492 228.426 252.515 231.813 246.87 233.443C238.772 235.821 232.019 233.408 226.424 227.304C225.32 226.097 224.299 224.817 223.366 223.474C222.798 222.654 222.357 222.475 221.461 223.038C213.846 227.653 205.316 230.558 196.463 231.549C195.417 231.713 194.36 231.804 193.301 231.82C192.082 231.789 191.881 232.348 191.864 233.425C191.807 236.597 192.008 239.778 191.588 242.941C191.507 243.821 191.273 244.68 190.898 245.48C189.85 247.531 187.893 247.723 186.465 245.916C186.173 245.53 185.924 245.113 185.722 244.673C185.08 243.294 185.093 243.29 184.145 244.564C183.209 245.903 182.151 247.151 180.983 248.294C180.349 248.911 179.609 249.409 178.799 249.764C177.113 250.445 175.689 249.825 175.09 248.12C174.461 246.313 174.82 244.529 175.418 242.806C175.798 241.706 175.58 241.335 174.418 241.497C173.934 241.543 173.447 241.543 172.963 241.497C170.364 241.362 169.377 239.603 170.635 237.304C171.806 235.166 173.605 233.604 175.514 232.152C175.99 231.789 176.602 231.549 176.873 230.777C175.741 230.507 174.636 230.258 173.54 229.979C170.97 229.34 168.447 228.529 165.987 227.549C165.061 227.174 164.773 227.322 164.777 228.36C164.848 231.539 164.501 234.713 163.747 237.801C163.358 239.531 162.573 241.147 161.453 242.522C160.44 243.7 159.191 244.577 157.522 244.267C155.853 243.957 155.142 242.574 154.705 241.095C154.434 240.057 154.333 238.971 154.106 237.623ZM210.616 178.632C210.345 178.798 210.179 178.899 209.995 179.012C207.768 180.53 205.474 180.356 203.496 178.484C202.057 177.088 201.195 175.205 201.08 173.205C200.761 169.558 201.561 166.102 202.993 162.773C203.245 162.158 203.631 161.606 204.125 161.159C204.588 160.758 205.108 160.527 205.702 160.828C205.961 160.962 206.164 161.184 206.275 161.454C206.387 161.724 206.398 162.025 206.309 162.302C206.169 162.992 205.955 163.668 205.754 164.344C205.016 166.84 204.234 169.331 204.295 171.975C204.33 173.454 204.601 174.885 205.632 176.037C206.776 177.319 208.117 177.297 209.039 175.862C210.519 173.649 211.333 171.058 211.384 168.397C211.384 167.088 212.044 166.216 213.132 166.181C214.219 166.146 215.067 167.053 215.075 168.388C215.068 168.74 215.039 169.092 214.988 169.44C214.641 172.02 214.431 174.617 214.359 177.219C214.219 189.797 216.965 202.239 222.388 213.592C224.528 218.116 227.096 222.392 230.831 225.834C235.321 229.979 240.48 231.122 246.276 229.106C251.031 227.455 255.166 224.39 258.127 220.324C262.534 214.417 265.072 207.672 266.789 200.586C269.156 190.8 268.584 180.954 267.186 171.124C264.806 154.397 259.324 138.695 251.418 123.783C246.87 115.214 241.506 107.095 237.261 98.3648C237.09 98.0623 236.985 97.7274 236.951 97.3817C236.918 97.036 236.958 96.6872 237.069 96.3579C237.798 94.0892 238.816 91.9339 239.462 89.6303C243.018 76.8341 240.48 65.2987 232.351 54.8846C231.691 54.0382 231.346 54.0775 230.739 54.9326C228.992 57.3758 227.184 59.7623 225.629 62.3494C225.496 62.58 225.343 62.7976 225.17 62.9995C224.973 63.2718 224.684 63.4637 224.357 63.5399C224.029 63.6161 223.685 63.5713 223.388 63.414C223.224 63.3419 223.076 63.2378 222.953 63.1079C222.83 62.978 222.734 62.8248 222.671 62.6574C222.608 62.49 222.579 62.3117 222.586 62.1329C222.593 61.9542 222.635 61.7786 222.711 61.6165C222.962 61.0027 223.278 60.4177 223.654 59.8713C225.751 56.6559 228.219 53.711 230.46 50.6003C234.094 45.5568 238.051 40.7533 241.755 35.7666C244.726 31.7702 247.836 27.8568 250.194 23.4372C250.369 23.1013 250.745 22.7173 250.496 22.3508C250.247 21.9844 249.766 22.2505 249.386 22.2723C249.036 22.3098 248.687 22.3666 248.342 22.4425C242.832 23.521 237.511 25.4057 232.552 28.0356C231.792 28.488 230.973 28.8344 230.119 29.0653C228.769 29.3445 227.834 28.629 227.826 27.2503C227.831 26.7205 227.908 26.1937 228.053 25.6841C228.747 23.1798 229.486 20.6842 230.18 18.18C230.359 17.5212 230.674 16.8711 230.451 15.9985C228.982 16.9993 227.623 18.1533 226.397 19.4408C220.662 24.9424 214.984 30.4832 209.947 36.6479C208.17 38.8293 206.252 40.8668 204.387 42.9609C204.029 43.358 203.688 43.8335 202.937 43.8641C203 43.6592 203.082 43.4606 203.181 43.2707C204.032 41.92 204.979 40.6326 206.016 39.4183C207.257 38.0222 207.204 37.8041 205.461 37.2369C196.784 34.4352 187.687 33.1497 178.572 33.4368C174.737 33.5415 170.928 33.8469 167.215 34.8722C166.437 35.086 166.005 34.9726 165.769 34.1C165.398 32.6995 165.066 31.2816 164.651 29.9073C162.689 23.4067 160.899 16.8449 158.203 10.5886C157.29 8.28887 156.098 6.11 154.652 4.10104C153.342 2.3559 152.608 2.3908 151.669 4.33227C151.107 5.52948 150.621 6.76078 150.214 8.01888C149.402 10.4403 148.755 12.9227 147.869 15.3179C146.58 18.8082 144.558 19.3885 141.526 17.3117C140.395 16.5395 139.342 15.6844 138.193 14.9165C136.883 14.044 136.608 14.1618 136.516 15.7891C136.453 17.5542 136.553 19.3213 136.813 21.0682C137.719 28.1889 139.196 35.2255 141.229 42.1102C141.666 43.5237 141.186 44.0473 139.993 44.5752C138.815 45.0792 137.761 45.8341 136.905 46.7872C139.711 46.7913 142.504 47.1804 145.204 47.9433C149.9 49.3002 154.268 51.2155 157.762 54.7319C158.343 55.3122 158.557 56.5425 159.339 56.477C160.029 56.4291 160.65 55.5347 161.318 55.0199C170.08 48.192 179.878 45.0551 190.946 47.2714C205.483 50.1815 216.001 62.5894 216.98 77.6543C218.614 102.802 196.664 121.073 178.842 118.94C178.541 118.905 178.096 118.783 178.039 119.346C177.956 120.157 177.842 120.964 177.772 121.776C177.759 121.918 177.782 122.06 177.841 122.19C177.899 122.32 177.99 122.433 178.104 122.518C180.175 124.485 182.568 126.104 184.368 128.351C187.129 131.789 188.854 135.767 189.924 139.969C193.012 152.115 192.514 164.27 188.771 176.133C186.05 184.762 180.079 190.914 171.36 193.715C161.606 196.852 153.014 193.758 145.327 187.607C142.531 185.377 141.037 182.31 140.321 178.816C139.447 174.527 139.91 170.304 140.727 166.081C141.164 163.842 141.164 163.825 138.954 163.144C135.835 162.18 133.742 160.226 133.048 156.98C132.72 155.423 132.633 153.825 132.79 152.242C133.131 149.081 133.954 145.991 135.232 143.08C135.529 142.382 135.743 141.954 134.594 141.889C131.807 141.727 130.165 139.502 130.663 136.753C130.965 135.185 131.708 133.734 132.803 132.569C133.087 132.251 133.533 132.05 133.598 131.531C133.196 131.278 132.725 131.37 132.314 131.326C129.331 131.016 126.339 130.75 123.364 130.384C121.669 130.174 121.617 130.039 121.888 128.311C121.909 128.18 121.94 128.05 121.962 127.919C123.547 118.521 125.919 109.294 127.907 99.9965C128.191 98.6876 128.99 98.0768 130.335 98.1292C131.746 98.1772 133.157 98.2382 134.568 98.3517C137.998 98.6222 141.427 98.913 144.855 99.2242C145.637 99.294 145.846 99.089 145.728 98.2906C145.551 96.6202 145.618 94.9328 145.929 93.282C146.493 90.0317 147.506 86.9908 150.407 85.0406C153.307 83.0904 154.748 83.7012 155.211 87.161C155.762 91.1879 156.019 95.2322 155.478 99.2897C155.404 99.8656 155.294 100.254 156.133 100.332C163.607 101 171.076 101.724 178.55 102.4C180.428 102.571 180.695 102.837 180.349 104.665C179.589 108.696 179.144 112.771 178.554 116.824C178.428 117.697 178.624 117.958 179.568 117.871C181.505 117.725 183.433 117.472 185.342 117.112C204.5 113.089 217.203 95.4984 214.743 76.0313C213.464 65.927 208.493 57.9124 199.599 52.6857C187.491 45.5656 171.246 47.7993 161.034 57.8077C160.501 58.3313 160.025 58.9333 159.217 59.0686C158.64 59.1689 158.129 59.1166 157.963 58.4447C157.387 56.0582 155.609 54.6577 153.709 53.4274C148.79 50.2556 143.352 48.5716 137.547 47.9826C135.8 47.8081 134.254 48.1484 132.943 49.4485C131.72 50.6526 130.322 51.6997 129.104 52.8951C123.111 58.7239 118.594 65.4863 116.318 73.5969C113.483 83.6794 115.126 93.2297 119.769 102.448C120.596 103.96 121.306 105.532 121.892 107.152C122.071 107.701 122.329 108.325 122.014 108.818C121.464 109.691 121.407 110.646 121.171 111.575C117.345 126.723 116.2 142.015 118.699 157.499C121.381 174.134 127.435 189.348 138.124 202.537C145.833 212.026 155.089 219.552 166.516 224.211C175.068 227.734 184.33 229.199 193.554 228.487C202.875 227.802 211.511 224.896 219.727 220.564C220.837 219.979 220.85 219.491 220.3 218.448C215.156 208.604 212.029 197.834 211.1 186.769C210.873 184.112 210.786 181.438 210.616 178.632ZM177.633 124.363C177.148 127.482 176.606 130.554 176.244 133.647C176.134 134.563 175.807 134.633 175.095 134.581C166.909 133.974 158.723 133.39 150.538 132.775C145.654 132.412 140.775 132.007 135.892 131.636C135.455 131.601 134.952 131.431 134.612 132.015C134.101 132.888 133.445 133.678 132.943 134.555C131.196 137.609 132.222 140.907 136.119 140.327C137.241 140.161 137.704 140.916 137.394 142.028C137.249 142.49 137.078 142.943 136.883 143.385C135.573 146.723 134.502 150.117 134.52 153.76C134.52 158.35 135.97 160.335 140.316 161.735C142.54 162.455 143.011 163.24 142.679 165.583C142.382 167.677 141.985 169.767 141.863 171.874C141.513 178.026 142.736 183.58 148.292 187.301C149.235 187.955 150.215 188.552 151.228 189.09C156.491 191.756 162.008 193.536 167.94 192.253C177.41 190.211 183.735 184.247 186.722 175.238C190.007 165.387 190.427 155.147 188.867 144.899C187.657 136.793 184.678 129.511 177.633 124.363ZM118.227 114.708L117.939 114.551L113.571 120.493C108.788 127.037 103.682 133.372 99.5319 140.375C95.6313 146.958 92.5693 153.851 91.4947 161.5C91.3012 162.812 91.2821 164.144 91.438 165.461C91.6957 167.494 92.2897 167.791 93.9714 166.674C94.872 166.039 95.7394 165.359 96.5704 164.636C97.2518 164.074 97.8808 163.428 98.5797 162.913C98.9232 162.628 99.3468 162.456 99.7922 162.421C100.238 162.387 100.683 162.491 101.066 162.72C101.45 162.949 101.753 163.291 101.933 163.699C102.114 164.107 102.163 164.561 102.074 164.999C102.032 165.349 101.971 165.697 101.891 166.041C100.71 170.705 99.979 175.47 99.7067 180.273C99.2437 188.833 99.7766 197.288 102.419 205.516C103.551 209.007 105.079 212.344 107.705 215.036C113.597 221.074 121.783 220.271 126.435 213.269C128.999 209.417 130.244 205.163 130.977 200.691C131.058 200.238 131.048 199.773 130.949 199.324C130.849 198.875 130.661 198.45 130.397 198.073C115.912 175.482 111.487 150.902 115.882 124.59C116.441 121.248 117.323 117.976 118.205 114.708H118.227ZM129.964 100.812C129.88 100.923 129.807 101.041 129.746 101.166C127.562 110.328 125.814 119.616 123.194 128.682C123.015 129.315 123.277 129.411 123.844 129.424C129.278 129.52 134.682 130.074 140.089 130.502C147.131 131.056 154.163 131.658 161.2 132.247C165.463 132.61 169.725 132.994 173.985 133.398C174.916 133.486 175.357 133.398 175.466 132.242C175.781 128.996 176.257 125.772 176.733 122.548C177.488 117.448 178.318 112.361 179.048 107.278C179.17 106.405 179.799 105.132 179.122 104.708C178.445 104.285 177.606 105.441 176.838 105.895C169.849 110.035 162.899 114.215 155.91 118.347C155.037 118.87 154.648 119.32 154.862 120.493C155.57 124.42 152.739 127.735 148.908 127.67C144.4 127.596 141.072 122.91 142.317 118.368C142.461 117.854 142.671 117.409 142.273 116.889C138.176 111.571 134.105 106.248 129.942 100.812H129.964ZM178.244 103.609C177.471 103.478 177.087 103.382 176.693 103.347C169.132 102.693 161.563 102.099 154.01 101.366C151.948 101.161 150.516 101.523 149.69 103.618C149.253 104.778 147.978 104.787 147.318 103.705C146.935 103.065 146.643 102.375 146.449 101.654C146.253 100.939 145.881 100.708 145.139 100.651C142.54 100.455 139.954 100.18 137.364 99.9267C135.18 99.7129 133.035 99.4904 130.571 99.2373C131.445 100.328 132.157 101.166 132.838 102.012C136.289 106.256 139.734 110.499 143.173 114.743C143.488 115.131 143.654 115.729 144.483 115.223C147.847 113.194 150.97 113.783 153.346 116.855C153.866 117.526 154.194 117.605 154.923 117.169C160.08 114.097 165.249 111.061 170.43 108.059C172.915 106.619 175.405 105.219 178.222 103.609H178.244ZM153.648 119.821C152.167 120.759 150.747 121.71 149.28 122.57C147.698 123.499 147.214 123.377 146.052 121.924C145.292 120.977 144.558 120.005 143.741 118.957C143.461 120.101 143.532 121.302 143.944 122.405C144.356 123.509 145.09 124.463 146.052 125.144C146.846 125.75 147.803 126.106 148.801 126.168C149.799 126.229 150.793 125.993 151.656 125.489C153.455 124.341 154.198 122.308 153.626 119.821H153.648ZM148.323 115.306C147.27 115.362 146.471 115.458 145.733 115.964C144.995 116.471 144.859 116.837 145.492 117.5C146.462 118.499 146.999 120.266 148.262 120.506C149.45 120.733 150.669 119.455 151.861 118.818C152.013 118.73 152.169 118.65 152.328 118.578C152.914 118.325 153.01 118.028 152.564 117.5C152.05 116.854 151.404 116.324 150.669 115.946C149.934 115.567 149.127 115.349 148.301 115.306H148.323Z" fill="#35312B"/>
<path d="M210.616 178.633C210.782 181.438 210.869 184.108 211.105 186.765C212.033 197.83 215.16 208.6 220.304 218.444C220.854 219.486 220.841 219.975 219.732 220.56C211.516 224.892 202.88 227.798 193.559 228.483C184.335 229.195 175.073 227.73 166.52 224.207C155.085 219.539 145.829 212.021 138.128 202.532C127.413 189.348 121.381 174.13 118.699 157.499C116.2 142.02 117.345 126.728 121.198 111.593C121.433 110.664 121.49 109.695 122.041 108.836C122.359 108.343 122.097 107.719 121.918 107.169C121.332 105.55 120.622 103.977 119.795 102.466C115.152 93.2647 113.51 83.7057 116.345 73.6144C118.62 65.5039 123.137 58.7415 129.13 52.9127C130.362 51.7173 131.751 50.6702 132.969 49.4661C134.28 48.1572 135.813 47.8256 137.573 48.0002C143.374 48.5891 148.812 50.2732 153.735 53.445C155.635 54.6753 157.413 56.0627 157.99 58.4623C158.156 59.1342 158.667 59.1865 159.243 59.0862C160.051 58.9509 160.527 58.3488 161.06 57.8253C171.273 47.8169 187.517 45.5831 199.626 52.7033C208.519 57.9387 213.49 65.9446 214.77 76.0489C217.229 95.516 204.527 113.107 185.368 117.13C183.462 117.488 181.537 117.74 179.603 117.884C178.659 117.972 178.463 117.71 178.589 116.837C179.179 112.784 179.624 108.709 180.384 104.678C180.73 102.832 180.463 102.584 178.585 102.414C171.111 101.737 163.642 101.013 156.168 100.346C155.329 100.267 155.439 99.8788 155.513 99.3029C156.054 95.2455 155.797 91.2011 155.246 87.1742C154.775 83.7144 153.359 83.0906 150.442 85.0538C147.524 87.0171 146.51 90.0449 145.964 93.2953C145.653 94.9461 145.586 96.6334 145.763 98.3038C145.859 99.1022 145.65 99.3073 144.89 99.2375C141.465 98.9175 138.036 98.6267 134.603 98.3649C133.192 98.2515 131.781 98.1904 130.37 98.1424C129.025 98.09 128.226 98.6834 127.942 100.01C125.954 109.324 123.574 118.552 121.997 127.932C121.997 128.063 121.944 128.194 121.923 128.325C121.669 130.07 121.704 130.188 123.399 130.397C126.374 130.763 129.366 131.03 132.349 131.339C132.786 131.383 133.223 131.291 133.633 131.544C133.568 132.064 133.122 132.264 132.838 132.583C131.743 133.747 131 135.198 130.698 136.767C130.213 139.515 131.856 141.74 134.629 141.902C135.778 141.967 135.564 142.395 135.267 143.093C133.989 146.004 133.166 149.094 132.825 152.255C132.668 153.838 132.755 155.436 133.083 156.993C133.738 160.252 135.839 162.206 138.98 163.171C141.164 163.851 141.164 163.869 140.753 166.107C139.936 170.33 139.443 174.553 140.347 178.842C141.063 182.332 142.557 185.386 145.353 187.633C153.049 193.767 161.632 196.861 171.386 193.741C180.122 190.94 186.076 184.789 188.797 176.159C192.541 164.296 193.039 152.141 189.951 139.995C188.88 135.789 187.155 131.815 184.394 128.377C182.595 126.13 180.201 124.511 178.131 122.544C178.016 122.459 177.925 122.347 177.867 122.217C177.809 122.087 177.785 121.944 177.799 121.802C177.868 120.991 177.982 120.183 178.065 119.372C178.122 118.809 178.567 118.936 178.869 118.966C196.69 121.1 218.618 102.824 217.006 77.6806C216.028 62.6157 205.509 50.1947 190.973 47.2977C179.904 45.0814 170.106 48.2183 161.344 55.0462C160.685 55.561 160.034 56.4554 159.365 56.5033C158.584 56.5601 158.37 55.3297 157.789 54.7582C154.294 51.2418 149.926 49.3134 145.235 47.9696C142.534 47.2067 139.742 46.8177 136.936 46.8135C137.792 45.8604 138.845 45.1055 140.024 44.6015C141.216 44.0736 141.679 43.5501 141.26 42.1365C139.209 35.2447 137.716 28.1992 136.796 21.0683C136.535 19.3214 136.436 17.5543 136.499 15.7892C136.59 14.1619 136.861 14.0441 138.176 14.9167C139.307 15.6845 140.36 16.5397 141.509 17.3119C144.54 19.3886 146.563 18.7909 147.851 15.3181C148.725 12.9228 149.384 10.4404 150.197 8.01901C150.604 6.76091 151.09 5.52961 151.651 4.3324C152.591 2.39093 153.303 2.35167 154.635 4.10117C156.085 6.10808 157.282 8.2855 158.199 10.5844C160.894 16.8407 162.685 23.4024 164.646 29.9031C165.083 31.2774 165.393 32.6953 165.765 34.0958C166.001 34.9683 166.433 35.0818 167.21 34.868C170.928 33.8427 174.737 33.5591 178.567 33.4326C187.683 33.1454 196.779 34.431 205.457 37.2326C207.204 37.7998 207.252 38.018 206.012 39.4141C204.98 40.6287 204.037 41.9162 203.19 43.2665C203.09 43.4563 203.009 43.6549 202.945 43.8598C203.697 43.8162 204.037 43.3537 204.396 42.9567C206.248 40.8625 208.17 38.8294 209.947 36.648C214.984 30.4833 220.662 24.9425 226.376 19.4191C227.601 18.1316 228.96 16.9777 230.429 15.9768C230.652 16.8494 230.337 17.5082 230.158 18.1583C229.464 20.6625 228.726 23.1581 228.031 25.6624C227.886 26.172 227.81 26.6988 227.804 27.2286C227.804 28.5942 228.747 29.3228 230.097 29.0436C230.951 28.8128 231.77 28.4663 232.53 28.0139C237.49 25.384 242.81 23.4993 248.321 22.4208C248.665 22.345 249.014 22.2882 249.365 22.2506C249.745 22.2288 250.238 21.9539 250.474 22.3292C250.71 22.7044 250.347 23.0796 250.173 23.4155C247.814 27.8438 244.686 31.7573 241.734 35.7755C238.03 40.7709 234.072 45.5744 230.438 50.6091C228.197 53.7199 225.729 56.6648 223.632 59.8802C223.256 60.4265 222.94 61.0116 222.689 61.6253C222.613 61.7875 222.571 61.963 222.564 62.1418C222.557 62.3205 222.586 62.4988 222.649 62.6663C222.712 62.8337 222.808 62.9868 222.931 63.1167C223.054 63.2467 223.202 63.3507 223.366 63.4228C223.663 63.5802 224.007 63.6249 224.335 63.5487C224.662 63.4726 224.951 63.2806 225.148 63.0084C225.321 62.8065 225.475 62.5888 225.607 62.3583C227.162 59.7886 228.979 57.4021 230.717 54.9415C231.325 54.0689 231.67 54.0689 232.329 54.8935C240.458 65.3076 242.996 76.843 239.44 89.6392C238.803 91.9428 237.776 94.098 237.047 96.3667C236.936 96.696 236.897 97.0448 236.93 97.3905C236.963 97.7362 237.068 98.0711 237.239 98.3736C241.507 107.099 246.87 115.223 251.418 123.796C259.324 138.708 264.806 154.41 267.186 171.137C268.584 180.971 269.156 190.814 266.789 200.6C265.072 207.689 262.534 214.43 258.127 220.337C255.16 224.395 251.022 227.45 246.268 229.093C240.471 231.109 235.313 229.966 230.822 225.821C227.088 222.379 224.519 218.103 222.379 213.579C216.956 202.226 214.21 189.784 214.35 177.206C214.424 174.601 214.635 172.001 214.984 169.418C215.035 169.07 215.064 168.719 215.071 168.367C215.071 167.058 214.228 166.124 213.127 166.159C212.027 166.194 211.402 167.062 211.38 168.376C211.326 171.03 210.514 173.614 209.039 175.823C208.117 177.258 206.776 177.28 205.632 175.997C204.601 174.846 204.321 173.415 204.295 171.936C204.234 169.292 205.016 166.801 205.754 164.305C205.955 163.629 206.169 162.953 206.309 162.263C206.398 161.985 206.387 161.685 206.276 161.415C206.164 161.145 205.961 160.923 205.702 160.789C205.108 160.488 204.588 160.719 204.125 161.12C203.631 161.567 203.245 162.118 202.993 162.734C201.561 166.063 200.761 169.519 201.08 173.166C201.191 175.174 202.055 177.066 203.5 178.467C205.479 180.338 207.772 180.513 210 178.995C210.179 178.899 210.349 178.798 210.616 178.633ZM199.036 78.9022C198.93 74.9671 197.965 71.1025 196.207 67.5793C194.449 64.056 191.941 60.9593 188.858 58.5059C185.941 56.1456 182.599 54.6666 178.812 54.5401C172.304 54.3219 167.687 57.5941 164.511 62.9342C161.423 68.1347 160.938 73.8675 162.13 79.7006C163.782 87.7893 167.809 94.3249 175.348 98.1773C182.656 101.908 190.684 99.7697 195.336 93.0335C198.005 89.1593 199.019 84.7921 199.036 78.9022ZM118.887 77.3927C118.883 79.166 119.097 80.933 119.525 82.6543C122.11 93.4916 132.869 96.6896 140.976 89.0284C143.943 86.2175 146.095 82.6587 147.205 78.7277C148.952 72.7506 148.991 66.8477 145.72 61.3243C143.295 57.2319 139.683 55.0985 134.8 55.5741C132.458 55.8418 130.235 56.7474 128.374 58.1918C121.879 62.9604 119.236 69.6224 118.887 77.3927ZM227.987 151.954C228.137 152.511 228.124 153.1 227.952 153.651C225.987 162.893 225.241 172.352 225.733 181.787C225.93 185.714 226.441 189.605 227.843 193.322C228.756 195.739 229.927 198.004 231.906 199.744C234.679 202.183 237.733 202.157 240.467 199.683C242.279 197.987 243.675 195.897 244.547 193.575C246.857 187.795 247.473 181.7 247.735 175.561C247.823 173.537 247.993 171.482 247.299 169.558C246.98 169.68 246.98 169.968 246.919 170.217C246.255 172.834 246.407 175.561 246.128 178.227C245.643 182.882 245.097 187.52 243.533 191.97C242.66 194.448 241.472 196.769 239.515 198.571C237.287 200.643 235.09 200.652 232.792 198.662C232.165 198.103 231.611 197.465 231.146 196.765C229.868 194.853 228.941 192.73 228.407 190.495C226.537 183.078 226.804 175.535 227.236 167.996C227.533 162.795 228.446 157.669 229.363 152.547C229.477 151.914 229.673 151.16 228.97 150.741C228.267 150.322 227.856 150.92 227.328 151.238C225.764 152.185 224.318 153.372 222.405 153.62C220.221 153.9 218.932 152.848 218.841 150.632C218.841 150.226 218.841 149.816 218.841 149.114C217.53 152.22 219.278 154.702 222.291 154.445C224.406 154.27 226.17 153.219 227.966 151.954H227.987ZM219.474 38.9167C219.401 40.254 219.145 41.5751 218.714 42.8433C218.522 43.5239 218.194 44.2874 219.002 44.7324C219.81 45.1774 220.313 44.5273 220.824 44.0431C221.925 43.0265 223.008 42.0056 224.157 41.0327C224.528 40.7186 224.995 40.0205 225.441 40.4175C225.886 40.8145 225.222 41.3381 224.965 41.7264C223.047 44.7411 220.763 47.4984 218.653 50.3736C218.164 50.9432 217.777 51.5925 217.508 52.2932C217.443 52.4358 217.427 52.5959 217.461 52.7488C217.496 52.9017 217.58 53.039 217.701 53.1396C217.831 53.2302 217.989 53.2739 218.147 53.2636C218.306 53.2533 218.457 53.1896 218.574 53.0829C218.858 52.8745 219.118 52.6345 219.347 52.3674C222.144 49.0156 224.715 45.4827 227.044 41.7918C227.518 41.1016 227.871 40.3359 228.088 39.5275C228.223 38.9036 228.228 38.2754 227.677 37.826C227.127 37.3766 226.524 37.4682 225.93 37.73C224.813 38.2681 223.759 38.9295 222.789 39.702C222.257 40.1034 221.846 40.7098 221.068 40.8494C221.046 40.651 221.037 40.4513 221.042 40.2517C221.156 39.1305 221.601 37.7606 220.291 37.1977C218.915 36.6044 218.155 37.9569 217.417 38.8294C215.518 41.0921 213.804 43.5039 212.293 46.0412C212.057 46.4339 211.319 46.8833 212.057 47.3501C212.656 47.7209 212.983 47.0316 213.285 46.6433C214.473 45.1076 215.613 43.5413 216.779 42.0012C217.552 40.8699 218.456 39.8344 219.474 38.9167ZM144.968 30.8323C144.326 30.2346 143.815 29.2835 142.784 29.7591C142.09 30.0863 142.033 30.8629 142.064 31.5042C142.203 34.4099 142.549 37.2937 143.549 40.0554C143.71 40.4917 143.916 41.1418 144.497 40.928C145.078 40.7142 144.85 40.1252 144.75 39.6453C144.313 37.5773 143.876 35.5137 143.44 33.4413C143.247 32.5811 143.228 31.6914 143.383 30.8236C144.05 31.6375 144.603 32.5388 145.025 33.5024C145.257 33.9649 145.41 34.6018 146.113 34.375C146.746 34.1787 146.502 33.5766 146.497 33.1228C146.497 32.0801 145.999 31.0592 146.344 29.8245C148.14 32.6778 149.219 35.6882 150.599 38.5764C151.206 38.1139 150.822 37.6297 150.656 37.2414C149.808 35.2548 148.935 33.2843 148.035 31.3297C147.638 30.5002 147.19 29.6959 146.694 28.9214C146.475 28.5724 146.196 28.1623 145.641 28.3281C145.086 28.4939 145.235 28.9389 145.169 29.3053C145.095 29.7765 145.283 30.2652 144.968 30.8323Z" fill="#FEFEFE"/>
<path d="M177.633 124.363C184.678 129.511 187.657 136.793 188.885 144.89C190.444 155.139 190.025 165.396 186.74 175.23C183.735 184.248 177.41 190.212 167.957 192.245C162.026 193.527 156.509 191.747 151.245 189.082C150.233 188.543 149.252 187.946 148.31 187.293C142.763 183.571 141.531 178.017 141.88 171.866C142.002 169.758 142.4 167.669 142.697 165.575C143.029 163.232 142.557 162.446 140.334 161.726C135.966 160.326 134.559 158.341 134.538 153.751C134.538 150.108 135.568 146.714 136.901 143.376C137.096 142.934 137.267 142.481 137.412 142.019C137.722 140.907 137.259 140.152 136.136 140.318C132.24 140.898 131.209 137.613 132.961 134.546C133.463 133.673 134.118 132.879 134.629 132.007C134.97 131.422 135.459 131.592 135.909 131.627C140.793 131.998 145.672 132.404 150.555 132.766C158.741 133.381 166.927 133.966 175.112 134.572C175.82 134.624 176.152 134.572 176.261 133.638C176.606 130.554 177.148 127.482 177.633 124.363Z" fill="#FEFEFE"/>
<path d="M118.205 114.708C117.332 117.976 116.458 121.252 115.882 124.59C111.487 150.902 115.912 175.482 130.397 198.073C130.661 198.45 130.849 198.875 130.949 199.324C131.048 199.773 131.058 200.238 130.978 200.691C130.252 205.167 128.999 209.417 126.448 213.273C121.796 220.254 113.61 221.079 107.718 215.04C105.097 212.349 103.564 209.028 102.432 205.521C99.8116 197.301 99.2568 188.837 99.7198 180.277C99.9921 175.475 100.723 170.709 101.904 166.046C101.984 165.702 102.046 165.354 102.087 165.003C102.176 164.566 102.127 164.112 101.946 163.704C101.766 163.295 101.463 162.953 101.079 162.724C100.696 162.496 100.251 162.391 99.8054 162.426C99.36 162.46 98.9363 162.632 98.5929 162.917C97.8809 163.432 97.2825 164.078 96.5836 164.641C95.7536 165.358 94.8876 166.032 93.989 166.661C92.3073 167.778 91.7132 167.481 91.4555 165.448C91.2996 164.131 91.3187 162.799 91.5123 161.486C92.5868 153.838 95.6488 146.945 99.5495 140.362C103.699 133.359 108.805 127.037 113.588 120.48L117.956 114.538L118.205 114.708Z" fill="#FEFEFE"/>
<path d="M129.942 100.812C134.105 106.248 138.176 111.571 142.26 116.881C142.658 117.4 142.448 117.845 142.304 118.36C141.059 122.901 144.387 127.587 148.895 127.661C152.726 127.727 155.557 124.42 154.849 120.484C154.635 119.311 155.011 118.861 155.897 118.338C162.886 114.206 169.844 110.027 176.825 105.886C177.593 105.45 178.423 104.272 179.109 104.7C179.795 105.127 179.157 106.397 179.035 107.269C178.305 112.369 177.475 117.457 176.72 122.539C176.244 125.763 175.767 128.988 175.453 132.233C175.344 133.377 174.903 133.477 173.972 133.39C169.715 132.985 165.453 132.601 161.187 132.238C154.15 131.64 147.117 131.038 140.076 130.493C134.669 130.056 129.265 129.511 123.831 129.415C123.264 129.415 123.002 129.306 123.181 128.673C125.801 119.607 127.549 110.349 129.733 101.157C129.792 101.036 129.862 100.92 129.942 100.812Z" fill="#FEFEFE"/>
<path d="M178.222 103.609C175.405 105.219 172.915 106.619 170.447 108.059C165.261 111.087 160.088 114.128 154.928 117.182C154.198 117.618 153.87 117.54 153.351 116.868C150.974 113.814 147.851 113.207 144.488 115.236C143.654 115.742 143.488 115.144 143.177 114.756C139.724 110.507 136.286 106.253 132.865 101.995C132.183 101.148 131.489 100.311 130.598 99.22C133.061 99.473 135.223 99.6955 137.39 99.9093C139.98 100.162 142.566 100.437 145.165 100.634C145.894 100.69 146.266 100.921 146.475 101.637C146.647 102.36 146.917 103.056 147.279 103.705C147.939 104.787 149.201 104.778 149.651 103.618C150.463 101.524 151.909 101.161 153.971 101.366C161.523 102.099 169.093 102.675 176.654 103.347C177.065 103.4 177.449 103.478 178.222 103.609Z" fill="#FEFEFE"/>
<path d="M153.626 119.821C154.198 122.308 153.456 124.319 151.63 125.493C150.767 125.997 149.773 126.234 148.775 126.172C147.777 126.111 146.82 125.755 146.025 125.148C145.064 124.467 144.33 123.513 143.918 122.41C143.506 121.307 143.435 120.106 143.715 118.962C144.532 120.009 145.265 120.982 146.025 121.929C147.187 123.381 147.672 123.504 149.253 122.574C150.725 121.724 152.145 120.759 153.626 119.821Z" fill="#DC3545"/>
<path d="M148.301 115.306C149.122 115.351 149.924 115.568 150.655 115.944C151.386 116.32 152.029 116.846 152.543 117.487C152.979 118.015 152.892 118.312 152.307 118.565C152.147 118.637 151.991 118.717 151.839 118.805C150.647 119.442 149.428 120.72 148.24 120.493C146.978 120.253 146.44 118.486 145.471 117.487C144.833 116.824 145.034 116.427 145.711 115.951C146.388 115.476 147.248 115.362 148.301 115.306Z" fill="#DC3545"/>
<path d="M199.036 78.9022C199.036 84.7921 198.005 89.1593 195.332 93.0335C190.68 99.7698 182.665 101.908 175.344 98.1773C167.809 94.3249 163.777 87.7894 162.13 79.7006C160.938 73.8675 161.423 68.1347 164.511 62.9342C167.687 57.581 172.304 54.3219 178.812 54.5401C182.603 54.6666 185.945 56.1456 188.858 58.5059C191.941 60.9593 194.449 64.0561 196.207 67.5793C197.965 71.1025 198.93 74.9671 199.036 78.9022ZM197.35 79.5698C197.389 78.2899 197.298 77.0095 197.079 75.7479C195.913 68.8066 192.864 62.956 186.919 58.9291C178.545 53.2574 168.669 56.4074 165.079 65.8355C162.122 73.6101 163.301 80.9964 167.363 88.038C169.364 91.6054 172.414 94.4731 176.099 96.2533C182.651 99.4076 189.579 97.6232 193.768 91.6679C196.328 88.0468 197.328 83.9457 197.35 79.5698Z" fill="#35312B"/>
<path d="M118.887 77.3927C119.258 69.6225 121.901 62.9604 128.361 58.1962C130.222 56.7518 132.445 55.8462 134.786 55.5785C139.683 55.1029 143.295 57.2363 145.707 61.3287C148.978 66.8521 148.943 72.755 147.192 78.7321C146.082 82.6631 143.93 86.2218 140.963 89.0328C132.865 96.6896 122.089 93.4916 119.503 82.6543C119.083 80.9322 118.876 79.1651 118.887 77.3927ZM146.51 70.8484C146.56 69.5205 146.436 68.1919 146.143 66.8957C145.921 65.8622 145.611 64.8493 145.217 63.8679C142.422 57.1534 135.922 55.0636 129.807 58.9989C126.461 61.1498 124.29 64.2954 122.818 67.9166C120.52 73.5578 119.926 79.2818 122.543 84.9841C125.299 90.9961 131.358 92.7761 137.01 89.3469C138.222 88.6185 139.326 87.7242 140.29 86.6899C144.449 82.2224 146.353 76.8648 146.488 70.831L146.51 70.8484Z" fill="#35312B"/>
<path d="M227.966 151.954C226.17 153.219 224.406 154.27 222.287 154.453C219.286 154.711 217.53 152.228 218.836 149.122C218.836 149.824 218.836 150.235 218.836 150.64C218.928 152.857 220.204 153.908 222.401 153.629C224.314 153.38 225.76 152.194 227.324 151.247C227.852 150.928 228.315 150.374 228.966 150.749C229.617 151.125 229.473 151.923 229.359 152.556C228.442 157.678 227.529 162.804 227.232 168.004C226.795 175.543 226.533 183.082 228.402 190.504C228.939 192.736 229.868 194.856 231.146 196.764C231.615 197.46 232.171 198.094 232.801 198.649C235.099 200.639 237.296 200.63 239.523 198.558C241.48 196.743 242.668 194.435 243.542 191.957C245.106 187.506 245.652 182.869 246.137 178.214C246.416 175.548 246.263 172.834 246.927 170.203C246.988 169.955 246.988 169.667 247.307 169.545C247.984 171.469 247.814 173.523 247.744 175.548C247.482 181.686 246.871 187.764 244.555 193.562C243.683 195.884 242.287 197.974 240.476 199.67C237.741 202.144 234.688 202.17 231.914 199.731C229.936 197.986 228.765 195.726 227.852 193.309C226.45 189.592 225.939 185.705 225.742 181.774C225.249 172.338 225.995 162.879 227.961 153.638C228.121 153.088 228.122 152.504 227.966 151.954Z" fill="#35312B"/>
<path d="M219.474 38.9166C218.463 39.8255 217.563 40.8506 216.792 41.9706C215.613 43.5107 214.473 45.0769 213.298 46.6126C212.996 47.0009 212.669 47.6903 212.07 47.3194C211.332 46.8831 212.07 46.4119 212.306 46.0106C213.815 43.4842 215.524 41.0827 217.417 38.8293C218.155 37.9567 218.906 36.6479 220.291 37.2194C221.601 37.7866 221.164 39.1565 221.042 40.2734C221.037 40.473 221.046 40.6727 221.068 40.8711C221.846 40.7315 222.256 40.1251 222.789 39.7237C223.75 38.9453 224.795 38.2765 225.904 37.7299C226.498 37.4681 227.105 37.3721 227.651 37.8259C228.197 38.2796 228.197 38.9035 228.062 39.5274C227.85 40.338 227.501 41.1066 227.031 41.8004C224.707 45.4908 222.142 49.0237 219.352 52.376C219.122 52.6431 218.863 52.8831 218.579 53.0915C218.461 53.1982 218.31 53.2619 218.152 53.2722C217.993 53.2825 217.836 53.2388 217.705 53.1482C217.585 53.0476 217.5 52.9103 217.466 52.7574C217.431 52.6045 217.448 52.4444 217.513 52.3018C217.781 51.6011 218.168 50.9518 218.657 50.3821C220.767 47.507 223.051 44.7497 224.969 41.735C225.227 41.3336 225.891 40.8101 225.445 40.4261C225 40.0422 224.532 40.7272 224.161 41.0413C223.025 42.0142 221.929 43.0351 220.828 44.0516C220.304 44.5359 219.775 45.1642 219.007 44.741C218.238 44.3178 218.526 43.5325 218.718 42.8519C219.149 41.5807 219.403 40.2567 219.474 38.9166ZM225.629 40.0596L225.467 40.1382C225.493 40.1643 225.528 40.2167 225.55 40.2123C225.608 40.1924 225.664 40.1661 225.716 40.1338L225.629 40.0596Z" fill="#35312B"/>
<path d="M144.968 30.8322C145.283 30.265 145.086 29.7764 145.169 29.3183C145.235 28.9518 145.121 28.4937 145.641 28.341C146.161 28.1883 146.475 28.5853 146.694 28.9343C147.19 29.7089 147.638 30.5131 148.035 31.3426C148.943 33.2972 149.817 35.2678 150.656 37.2543C150.822 37.6426 151.206 38.1269 150.599 38.5893C149.219 35.7011 148.14 32.6908 146.344 29.8375C145.999 31.0721 146.489 32.0931 146.497 33.1358C146.497 33.5721 146.746 34.1916 146.113 34.3879C145.41 34.6104 145.239 33.9734 145.025 33.5153C144.603 32.5517 144.05 31.6504 143.383 30.8366C143.228 31.7043 143.248 32.594 143.44 33.4543C143.876 35.5266 144.313 37.5902 144.75 39.6582C144.85 40.1381 145.051 40.7533 144.497 40.9409C143.942 41.1285 143.71 40.5046 143.549 40.0683C142.549 37.3067 142.203 34.4228 142.064 31.5172C142.033 30.8802 142.09 30.1036 142.784 29.772C143.815 29.2834 144.326 30.2345 144.968 30.8322Z" fill="#35312B"/>
<path d="M197.35 79.5698C197.35 83.9326 196.328 88.0468 193.781 91.6679C189.592 97.6232 182.66 99.4076 176.108 96.2533C172.423 94.4731 169.373 91.6054 167.372 88.0381C163.31 80.9964 162.13 73.6101 165.088 65.8355C168.669 56.4074 178.546 53.2574 186.928 58.9291C192.873 62.956 195.922 68.8066 197.088 75.7479C197.304 77.0098 197.392 78.2902 197.35 79.5698ZM168.958 74.8666C168.958 75.3553 168.923 75.8003 168.958 76.2365C169.394 80.8132 171.273 84.5696 175.51 86.7074C178.965 88.4525 182.7 87.3356 184.774 84.1159C188.356 78.5663 185.43 69.2473 179.314 66.7386C176.174 65.4298 173.199 66.1191 171.063 68.6801C170.316 69.5181 169.745 70.4976 169.385 71.5605C169.025 72.6233 168.883 73.7477 168.966 74.8666H168.958Z" fill="#FFC013"/>
<path d="M146.489 70.8308C146.353 76.8646 144.449 82.2222 140.282 86.6941C139.318 87.7284 138.213 88.6227 137.001 89.3511C131.349 92.7759 125.29 90.9959 122.534 84.9882C119.913 79.286 120.512 73.5619 122.809 67.9207C124.286 64.2996 126.457 61.154 129.798 59.0031C135.913 55.0765 142.417 57.1358 145.191 63.8546C145.585 64.836 145.894 65.8489 146.117 66.8824C146.411 68.177 146.536 69.5041 146.489 70.8308ZM126.527 74.0854C126.443 76.2134 126.938 78.3242 127.959 80.1934C130.174 84.12 134.367 84.3949 137.132 80.8479C140.155 76.978 140.399 69.9407 137.652 65.8746C137.04 64.8964 136.153 64.1207 135.101 63.6452C133.079 62.7726 130.873 63.4314 129.235 65.4339C127.186 67.9469 126.723 70.9835 126.527 74.0854Z" fill="#FFC013"/>
<path d="M225.629 40.0596L225.716 40.1425C225.664 40.1748 225.608 40.2011 225.55 40.221C225.528 40.221 225.493 40.173 225.467 40.1468L225.629 40.0596Z" fill="#FEFEFE"/>
<path d="M168.966 74.8665C168.89 73.7491 169.038 72.6276 169.404 71.5686C169.769 70.5096 170.344 69.5347 171.094 68.7018C173.247 66.1408 176.204 65.469 179.345 66.7604C185.46 69.269 188.387 78.588 184.805 84.1376C182.73 87.3574 178.995 88.5004 175.54 86.7291C171.29 84.5695 169.425 80.8131 168.988 76.2583C168.931 75.8002 168.966 75.3552 168.966 74.8665Z" fill="#35312B"/>
<path d="M126.526 74.0855C126.723 70.9836 127.182 67.947 129.239 65.434C130.877 63.4315 133.083 62.7814 135.105 63.6453C136.163 64.1198 137.055 64.8973 137.669 65.879C140.417 69.9583 140.172 76.9825 137.15 80.8523C134.38 84.3993 130.187 84.1157 127.977 80.1979C126.948 78.3291 126.447 76.2165 126.526 74.0855Z" fill="#35312B"/>
<path d="M69.1569 236.317C67.9649 235.591 66.7948 234.826 65.5754 234.152C64.7143 233.674 64.1729 232.713 63.1149 232.554L62.7267 232.259C62.2264 231.476 61.4363 231.055 60.6517 230.621C60.5779 230.483 60.4772 230.361 60.3556 230.262C60.2341 230.163 60.094 230.089 59.9436 230.045C59.6456 229.597 59.4269 229.054 58.7516 229.067L58.347 228.704C57.956 228.016 57.3136 227.563 56.7559 227.036C54.782 225.176 52.737 223.393 50.8123 221.487C46.2002 216.927 41.826 212.146 37.963 206.933C34.3898 202.124 31.0544 197.166 28.7579 191.595C27.6999 189.028 26.9043 186.407 27.1586 183.551C27.2871 182.084 27.9131 181.164 29.1926 181.069C30.7318 180.954 32.2792 180.921 33.802 181.355C37.5338 182.426 41.0468 183.952 44.2209 186.21C45.6945 187.259 47.168 188.313 48.6662 189.323C49.2786 189.75 50.0129 189.968 50.7594 189.944C51.5059 189.92 52.2246 189.655 52.8081 189.189C53.9427 188.234 53.9153 186.975 53.4806 185.708C53.2034 184.842 52.8446 184.005 52.4089 183.207C49.7352 178.532 46.9657 173.909 44.2482 169.259C39.7688 161.693 35.7969 153.839 32.3585 145.748C27.7491 134.785 23.774 123.6 22.7488 111.596C22.4317 107.912 22.3469 104.264 23.1589 100.635C23.8615 97.4924 25.5456 95.835 28.0799 95.9196C29.1656 95.9631 30.2448 96.1085 31.3032 96.3538C35.7185 97.3504 39.5541 99.5977 43.275 102.044C47.4224 104.814 51.3227 107.935 54.9323 111.375C57.3409 113.636 59.7358 115.913 62.1581 118.161C63.3774 119.291 64.7908 119.736 66.4038 119.07C68.0168 118.404 68.4734 116.945 68.4242 115.397C68.3499 113.907 68.1607 112.424 67.8582 110.963C66.4448 103.59 65.9445 96.1244 65.8707 88.6425C65.8215 83.5226 66.1222 78.4054 67.0818 73.351C67.7598 69.7685 68.6347 66.2733 70.4719 63.0948C71.8033 60.7902 73.5748 58.9989 76.4865 59.1027C78.6639 59.1883 80.802 59.7092 82.7744 60.6345C87.8267 62.9637 92.1135 66.3688 96.0968 70.1753C98.0324 72.0267 99.8395 73.9982 101.682 75.9533C105.77 80.2559 109.532 84.857 112.935 89.7184C114.301 91.6886 115.564 93.7274 116.721 95.8268C116.995 96.2964 117.287 96.9409 117.785 95.9769C118.799 94.8847 120.141 94.1037 120.811 92.7002C121.574 92.3889 121.21 91.9438 120.945 91.5233C119.179 88.7435 117.468 85.9392 115.524 83.2659C111.806 78.1542 107.481 73.5777 103.221 68.9493C100.007 65.5029 96.4503 62.3922 92.6056 59.6652C89.3877 57.3496 85.9868 55.3781 82.173 54.2776C77.96 53.0653 73.7553 52.7458 69.8212 55.3126C66.9752 57.1721 65.3622 59.9246 64.0527 62.9583C61.5347 68.7827 60.6489 74.973 60.3236 81.1961C59.8236 90.0818 60.2147 98.9953 61.491 107.803C61.5402 108.125 61.6359 108.478 61.2996 108.666C60.9059 108.885 60.6298 108.59 60.3509 108.338C56.7969 105.135 53.2428 101.922 49.3032 99.1417C43.2531 94.8519 36.9979 91.1437 29.4414 90.1716C25.13 89.6255 20.1461 92.0694 18.6179 95.9551C17.5468 98.6569 16.9316 101.517 16.7971 104.42C16.4608 111.7 17.5243 118.81 19.3834 125.817C21.6142 134.188 24.4832 142.375 27.9651 150.308C30.0702 155.119 32.3913 159.841 34.8217 164.483C37.0089 168.644 39.4912 172.639 41.8397 176.708C42.0666 177.098 42.3564 177.511 41.99 177.958C41.5881 178.45 41.1699 178.092 40.7625 177.923C38.1048 176.76 35.2925 175.987 32.4132 175.629C30.4776 175.405 28.4736 175.405 26.6446 176.224C23.4924 177.59 22.1091 180.181 21.9286 183.534C21.7373 187.223 22.8199 190.634 24.2525 193.935C26.5735 199.282 29.7421 204.137 33.1869 208.823C36.3389 213.08 39.7818 217.114 43.4909 220.897C48.2315 225.761 53.2947 230.323 58.8883 234.228C60.8321 235.594 62.6693 237.161 65.0095 237.865L65.6985 238.209C66.2097 238.629 66.8262 238.9 67.481 238.993C67.9145 239.397 68.4848 239.622 69.0776 239.624C69.1805 239.742 69.3178 239.825 69.4703 239.861C69.6227 239.897 69.7827 239.885 69.9278 239.826C71.0241 240.036 72.1505 240.036 73.2468 239.826C73.6596 239.889 73.9631 239.763 74.0669 239.326C74.1963 239.236 74.2869 239.1 74.3208 238.945C74.3547 238.791 74.3295 238.63 74.2501 238.493C74.3759 238.24 74.2501 238.122 74.0177 238.059L73.676 237.718C73.2112 237.153 72.5633 237.016 71.8826 236.956L71.169 236.833C71.0945 236.735 70.9888 236.665 70.8691 236.634C70.7495 236.603 70.623 236.614 70.5101 236.664L69.1569 236.317ZM57.6444 143.531C60.3919 143.531 62.5025 141.393 62.5463 138.564C62.5927 135.287 59.7714 132.338 56.57 132.308C53.6693 132.278 51.3919 134.626 51.3755 137.671C51.3427 140.833 54.2297 143.528 57.6444 143.531ZM82.3315 201.04C82.3433 200.096 82.1533 199.159 81.7744 198.294C81.3954 197.428 80.8362 196.653 80.1339 196.021C79.4316 195.388 78.6023 194.912 77.7014 194.624C76.8005 194.337 75.8485 194.244 74.909 194.353C72.3911 194.683 70.5347 196.193 70.0372 198.293C69.7955 199.441 69.9387 200.636 70.4447 201.695C70.9506 202.754 71.7912 203.616 72.8367 204.15C75.0676 205.275 77.5089 205.628 79.8738 204.361C81.4813 203.501 82.3124 202.103 82.3315 201.04Z" fill="#FEFEFE"/>
<path d="M65.6985 238.21L65.0095 237.865C58.3552 234.119 52.6276 229.171 47.1052 223.98C42.6415 219.777 38.5271 215.218 34.8026 210.349C30.6853 204.972 26.8004 199.427 24.2661 193.094C22.9566 189.817 21.8849 186.513 22.3278 182.838C23.0222 177.044 27.5468 175.596 31.8746 175.932C35.5982 176.224 39.0456 177.437 42.3919 179.012C42.6653 179.141 42.9852 179.417 43.2558 179.103C43.5265 178.788 43.2039 178.499 43.059 178.245C42.1814 176.713 41.2409 175.211 40.3825 173.666C36.607 166.88 32.8424 160.089 29.5836 153.014C26.9325 147.296 24.605 141.433 22.6121 135.454C20.2281 128.228 18.1722 120.918 17.4177 113.297C16.931 108.456 16.7916 103.647 18.0301 98.9015C19.1236 94.6636 21.4393 91.466 26.0486 90.6441C28.5884 90.1908 31.1227 90.5949 33.5751 91.3131C40.4098 93.3119 46.2631 97.072 51.7692 101.449C55.0201 103.995 58.1236 106.724 61.0645 109.622C61.2723 109.829 61.4691 110.22 61.8409 110.004C62.1662 109.816 62.0842 109.403 62.0077 109.13C61.7616 108.24 61.8546 107.323 61.7097 106.435C60.8512 101.247 60.6353 96.0016 60.4193 90.7642C60.2525 86.7775 60.5806 82.799 60.9059 78.8178C61.3625 73.2309 62.2729 67.767 64.5557 62.6143C66.1468 58.9989 68.405 55.9188 72.2708 54.4388C75.7155 53.109 79.1493 53.6196 82.5229 54.7364C89.0187 56.8636 94.2568 60.9923 99.1642 65.547C102.491 68.6353 105.562 71.983 108.58 75.3772C112.798 80.1449 116.719 85.1119 119.986 90.5758C120.368 91.2148 120.973 91.8073 120.806 92.6757C120.136 94.0819 118.794 94.8602 117.779 95.9524C117.017 95.9388 116.839 95.2479 116.579 94.781C111.912 86.428 105.507 79.4376 99.0658 72.48C96.502 69.7803 93.7174 67.2987 90.741 65.0609C87.4275 62.5023 83.8817 60.2769 79.7507 59.2365C74.9992 58.035 72.2024 59.2174 69.9087 63.2778C69.0301 64.8693 68.3419 66.5584 67.8582 68.3103C66.2972 73.7334 65.7723 79.3257 65.6028 84.9344C65.4493 89.7864 65.6091 94.6434 66.0812 99.4749C66.4557 103.254 66.9014 107.017 67.4263 110.771C67.6696 112.47 68.1508 114.138 68.0414 115.886C67.8856 118.363 65.6766 119.662 63.4676 118.521C62.5848 118.051 61.7813 117.446 61.0863 116.727C56.2091 111.842 51.1732 107.129 45.5277 103.131C40.8801 99.8545 36.0848 96.7798 30.3108 95.8541C28.2658 95.5292 26.1006 95.166 24.4657 97.0392C23.6986 97.9491 23.1789 99.0409 22.9566 100.209C22.2839 103.44 22.0649 106.749 22.3059 110.04C22.5397 113.874 23.0828 117.684 23.9298 121.432C26.0787 130.689 29.2281 139.604 33.0857 148.293C37.1674 157.484 42.001 166.266 47.0997 174.914C49.0818 178.275 51.1623 181.582 52.901 185.083C53.6064 186.5 53.4123 188.119 52.5046 188.87C51.3372 189.837 49.7707 189.771 48.3819 188.695C47.9882 188.392 47.5945 188.084 47.1954 187.789C42.6544 184.43 37.7853 181.825 32.1698 180.725C29.0887 180.121 27.1449 181.033 26.7922 183.455C26.6534 184.409 26.6727 185.38 26.8497 186.328C27.8202 191.516 30.2889 196.062 33.0611 200.442C38.6738 209.311 45.6371 217.083 53.1826 224.322C54.8038 225.875 56.3895 227.522 58.336 228.721L58.7407 229.084C59.0988 229.458 59.3777 229.928 59.9326 230.061C60.083 230.106 60.2231 230.179 60.3447 230.278C60.4663 230.377 60.5669 230.499 60.6407 230.638C61.1875 231.378 61.9421 231.828 62.7158 232.276L63.104 232.571C64.8826 234.168 66.9274 235.441 69.1459 236.334L70.5129 236.68C70.5949 236.769 70.7006 236.832 70.8174 236.862C70.9342 236.892 71.0572 236.888 71.1717 236.85L71.8853 236.973L73.6787 237.734L74.0205 238.076L74.2528 238.51C74.3322 238.646 74.3574 238.808 74.3235 238.962C74.2896 239.116 74.199 239.252 74.0697 239.343L73.2495 239.842C72.1532 240.053 71.0268 240.053 69.9305 239.842C69.7009 239.553 69.3838 239.624 69.0803 239.64C68.4875 239.639 67.9172 239.413 67.4837 239.01C66.9834 238.515 66.289 238.483 65.6985 238.21Z" fill="white"/>
<path d="M120.795 92.6865C120.973 91.8181 120.368 91.2256 119.975 90.5866C116.708 85.1254 112.787 80.1556 108.569 75.388C105.561 71.9829 102.48 68.6352 99.1532 65.5578C94.2568 60.9922 89.0186 56.8635 82.5229 54.7254C79.1492 53.6195 75.7154 53.0979 72.2707 54.4387C68.4022 55.9296 66.1468 59.0097 64.5502 62.6305C62.2755 67.7832 61.357 73.2472 60.9004 78.834C60.5751 82.8153 60.247 86.7938 60.4138 90.7805C60.6297 96.0178 60.8457 101.261 61.7042 106.452C61.8491 107.339 61.7561 108.256 62.0022 109.147C62.0787 109.42 62.1607 109.832 61.8354 110.02C61.4636 110.236 61.2667 109.846 61.059 109.638C58.118 106.74 55.0146 104.012 51.7637 101.465C46.2603 97.0718 40.4043 93.3118 33.575 91.302C31.1145 90.5839 28.5884 90.1798 26.0486 90.633C21.4392 91.4522 19.1373 94.6525 18.03 98.8904C16.7916 103.636 16.9365 108.448 17.4149 113.286C18.1722 120.907 20.2281 128.217 22.6093 135.443C24.6028 141.426 26.9312 147.292 29.5835 153.014C32.8341 160.081 36.5987 166.872 40.3742 173.658C41.2327 175.203 42.1731 176.705 43.0507 178.237C43.1956 178.491 43.51 178.783 43.2476 179.094C42.9851 179.405 42.657 179.132 42.3837 179.004C39.0456 177.437 35.5981 176.224 31.8745 175.932C27.5467 175.596 23.0221 177.044 22.3332 182.838C21.8903 186.513 22.962 189.815 24.2715 193.094C26.8059 199.435 30.6907 204.972 34.808 210.357C38.5325 215.226 42.6469 219.785 47.1106 223.988C52.6331 229.176 58.3606 234.127 65.0149 237.874C62.6747 237.169 60.8375 235.593 58.8937 234.236C53.3001 230.332 48.2315 225.771 43.4964 220.905C39.79 217.122 36.3499 213.088 33.2005 208.831C29.7503 204.137 26.5762 199.282 24.2606 193.935C22.828 190.634 21.7454 187.223 21.9368 183.534C22.109 180.181 23.4924 177.59 26.6446 176.224C28.4735 175.422 30.472 175.405 32.4131 175.629C35.2924 175.987 38.1047 176.76 40.7624 177.923C41.1589 178.092 41.5826 178.45 41.99 177.958C42.3563 177.51 42.0665 177.098 41.8396 176.708C39.4912 172.628 36.9979 168.633 34.8217 164.483C32.3912 159.841 30.0701 155.13 27.965 150.319C24.4826 142.382 21.6136 134.191 19.3833 125.817C17.5242 118.81 16.4608 111.7 16.797 104.431C16.9315 101.528 17.5468 98.6677 18.6178 95.9659C20.1515 92.0803 25.13 89.6282 29.4413 90.1825C36.9979 91.1437 43.253 94.8518 49.2868 99.1171C53.2127 101.897 56.7667 105.111 60.3345 108.314C60.6079 108.565 60.8813 108.86 61.2831 108.641C61.6194 108.453 61.5237 108.095 61.4745 107.779C60.1982 98.9706 59.8072 90.0572 60.3071 81.1714C60.6325 74.9484 61.5183 68.758 64.0362 62.9336C65.3457 59.9054 66.9587 57.1529 69.8047 55.2879C73.7388 52.7211 77.9436 53.0406 82.1565 54.253C85.9703 55.3452 89.3713 57.3249 92.5891 59.6405C96.4338 62.3675 99.9907 65.4782 103.205 68.9246C107.464 73.5667 111.789 78.1295 115.507 83.2412C117.451 85.9145 119.163 88.7189 120.929 91.4986C121.194 91.9301 121.558 92.3752 120.795 92.6865Z" fill="white"/>
<path d="M58.3472 228.712C56.4006 227.514 54.8149 225.867 53.1937 224.313C45.64 217.074 38.6849 209.295 33.0722 200.434C30.3 196.054 27.8313 191.516 26.8498 186.328C26.6717 185.387 26.6486 184.425 26.7815 183.477C27.1342 181.041 29.078 180.129 32.1591 180.746C37.7636 181.839 42.6436 184.452 47.1764 187.808C47.5756 188.103 47.9692 188.411 48.3629 188.714C49.7654 189.79 51.3183 189.856 52.4857 188.889C53.3933 188.138 53.5792 186.519 52.8821 185.102C51.1433 181.601 49.0546 178.294 47.0807 174.933C41.982 166.285 37.1484 157.503 33.0667 148.312C29.2092 139.623 26.0597 130.708 23.9109 121.451C23.0638 117.703 22.5208 113.894 22.2869 110.059C22.046 106.768 22.265 103.459 22.9376 100.228C23.1595 99.0511 23.6832 97.9513 24.4577 97.0364C26.098 95.1632 28.2578 95.5263 30.3027 95.8513C36.0768 96.777 40.872 99.8407 45.5197 103.128C51.1652 107.126 56.201 111.839 61.0783 116.724C61.7733 117.443 62.5768 118.048 63.4596 118.518C65.6686 119.66 67.8775 118.36 68.0334 115.883C68.1427 114.136 67.6616 112.467 67.4183 110.769C66.8715 107.014 66.4477 103.251 66.0732 99.4721C65.6011 94.6405 65.4413 89.7836 65.5947 84.9315C65.7642 79.3228 66.2892 73.736 67.8502 68.3075C68.3365 66.5552 69.0274 64.8661 69.9088 63.275C72.2026 59.2145 74.9994 58.0322 79.7509 59.2337C83.8818 60.274 87.4277 62.5104 90.7412 65.0581C93.7144 67.3007 96.4952 69.7869 99.055 72.4908C105.496 79.4484 111.904 86.4388 116.568 94.7918C116.828 95.2587 117.006 95.9496 117.769 95.9632C117.271 96.9271 116.968 96.2827 116.705 95.813C115.548 93.7137 114.284 91.6748 112.919 89.7046C109.516 84.8433 105.754 80.2421 101.666 75.9396C99.8232 73.9954 98.0161 72.013 96.0805 70.1616C92.0972 66.3387 87.8105 62.95 82.7582 60.6208C80.7858 59.6955 78.6477 59.1746 76.4702 59.0889C73.5668 58.9934 71.7952 60.7765 70.4556 63.0811C68.6184 66.2595 67.7436 69.7547 67.0656 73.3373C66.106 78.4026 65.8052 83.5198 65.8545 88.6288C65.9447 96.1243 66.4313 103.59 67.8584 110.963C68.1637 112.424 68.3556 113.906 68.4325 115.397C68.4817 116.945 68.0525 118.401 66.4122 119.07C64.7718 119.739 63.3857 119.291 62.1664 118.16C59.7442 115.913 57.3493 113.636 54.9407 111.375C51.331 107.935 47.4308 104.814 43.2833 102.044C39.5625 99.5868 35.7268 97.3504 31.3116 96.3537C30.2531 96.1084 29.174 95.9631 28.0883 95.9195C25.5567 95.8349 23.8726 97.4924 23.1673 100.635C22.3471 104.264 22.44 107.912 22.7572 111.596C23.7851 123.611 27.7602 134.784 32.3586 145.756C35.797 153.847 39.769 161.701 44.2484 169.267C46.9659 173.909 49.7354 178.551 52.4091 183.215C52.8447 184.013 53.2036 184.85 53.4808 185.716C53.9155 186.983 53.9428 188.242 52.8083 189.198C52.2248 189.663 51.5061 189.928 50.7596 189.952C50.0131 189.976 49.2788 189.758 48.6664 189.331C47.1682 188.321 45.6946 187.267 44.2211 186.218C41.0361 183.96 37.5121 182.434 33.7912 181.363C32.2684 180.929 30.721 180.962 29.1818 181.077C27.9024 181.172 27.2681 182.092 27.1478 183.559C26.8936 186.404 27.6946 189.036 28.7472 191.603C31.0436 197.174 34.379 202.132 37.9522 206.941C41.8262 212.154 46.2004 216.935 50.8016 221.495C52.7153 223.407 54.7712 225.184 56.7451 227.044C57.3137 227.56 57.9562 228.024 58.3472 228.712Z" fill="white"/>
<path d="M57.6443 143.531C54.2297 143.531 51.3563 140.833 51.3563 137.671C51.3809 134.626 53.6583 132.278 56.5507 132.308C59.7521 132.338 62.5653 135.295 62.5271 138.564C62.5025 141.392 60.3919 143.533 57.6443 143.531ZM59.9299 138.678C59.9025 137.586 59.6155 136.786 59.0113 136.111C57.8849 134.847 56.0832 134.569 54.976 135.489C53.8688 136.409 53.7868 138.162 54.8858 139.527C55.1855 139.868 55.506 140.19 55.8454 140.491C56.5918 141.212 57.4037 141.584 58.4289 141.037C58.8755 140.824 59.253 140.49 59.5184 140.073C59.7838 139.656 59.9264 139.172 59.9299 138.678Z" fill="white"/>
<path d="M82.3315 201.04C82.3124 202.103 81.4813 203.498 79.871 204.361C77.5062 205.628 75.0648 205.276 72.8339 204.151C71.7904 203.615 70.9522 202.751 70.4483 201.693C69.9444 200.634 69.8028 199.44 70.0454 198.293C70.532 196.193 72.3993 194.683 74.9172 194.353C75.8561 194.246 76.8071 194.339 77.707 194.627C78.607 194.915 79.4352 195.391 80.1366 196.024C80.8379 196.657 81.3964 197.431 81.7749 198.296C82.1534 199.161 82.3431 200.096 82.3315 201.04ZM76.0244 196.753C74.2118 196.701 72.8285 197.496 72.4703 198.665C72.1122 199.833 72.7246 201.122 74.056 201.996C74.4715 202.269 74.9008 202.529 75.3382 202.769C76.4782 203.391 78.6654 202.799 79.5074 201.652C80.3494 200.505 80.0952 199.121 78.8786 198.012C78.0974 197.282 77.0911 196.838 76.0244 196.753Z" fill="white"/>
<path d="M69.1566 236.317C66.9381 235.425 64.8932 234.151 63.1146 232.554C64.1726 232.713 64.714 233.674 65.5751 234.152C66.7945 234.826 67.9646 235.591 69.1566 236.317Z" fill="white"/>
<path d="M62.7265 232.259C61.9528 231.82 61.1873 231.369 60.6515 230.621C61.4361 231.055 62.2262 231.476 62.7265 232.259Z" fill="white"/>
<path d="M59.9436 230.053C59.3968 229.919 59.1097 229.45 58.7516 229.075C59.4269 229.062 59.6565 229.605 59.9436 230.053Z" fill="white"/>
<path d="M73.6841 237.718L71.8907 236.956C72.5714 237.016 73.2194 237.153 73.6841 237.718Z" fill="white"/>
<path d="M65.6985 238.209C66.289 238.483 66.9834 238.515 67.481 238.993C66.8263 238.9 66.2097 238.629 65.6985 238.209Z" fill="white"/>
<path d="M73.2465 239.826L74.0666 239.326C73.9627 239.763 73.6593 239.889 73.2465 239.826Z" fill="white"/>
<path d="M69.0776 239.624C69.381 239.607 69.6982 239.536 69.9278 239.826C69.7827 239.885 69.6227 239.897 69.4703 239.861C69.3178 239.825 69.1805 239.742 69.0776 239.624Z" fill="white"/>
<path d="M71.177 236.844C71.0625 236.882 70.9395 236.886 70.8227 236.856C70.7058 236.826 70.6001 236.763 70.5181 236.675C70.6309 236.625 70.7575 236.614 70.8771 236.645C70.9968 236.675 71.1025 236.746 71.177 236.844Z" fill="white"/>
<path d="M74.2581 238.482L74.0257 238.048C74.2553 238.122 74.3838 238.239 74.2581 238.482Z" fill="white"/>
<path d="M59.9297 138.678C59.9257 139.172 59.7829 139.655 59.5175 140.072C59.2522 140.488 58.8749 140.822 58.4288 141.035C57.4036 141.581 56.5916 141.212 55.8453 140.489C55.5058 140.187 55.1853 139.866 54.8857 139.525C53.7921 138.16 53.8358 136.434 54.9759 135.486C56.1159 134.539 57.8847 134.845 59.0111 136.109C59.6153 136.786 59.9024 137.581 59.9297 138.678Z" fill="#FEFEFE"/>
<path d="M76.0242 196.753C77.092 196.832 78.1013 197.271 78.8866 197.998C80.1032 199.107 80.341 200.516 79.5154 201.638C78.6898 202.761 76.4862 203.378 75.3462 202.755C74.9088 202.515 74.4795 202.258 74.064 201.982C72.7326 201.1 72.1284 199.814 72.4783 198.651C72.8283 197.488 74.2116 196.704 76.0242 196.753Z" fill="#FEFEFE"/>
</g>
<defs>
<clipPath id="clip0_2630_5069">
<rect width="273" height="250" fill="white"/>
</clipPath>
</defs>
</svg>
