<svg width="21" height="24" viewBox="0 0 21 24" fill="none" xmlns="http://www.w3.org/2000/svg">
<path fill-rule="evenodd" clip-rule="evenodd" d="M11.2938 4.03774C11.4671 3.41409 11.6643 2.8161 11.8691 2.26105C12.4947 0.594932 13.8037 1.02133 13.9049 1.05638C14.1167 1.13074 15.0453 1.50831 14.8501 2.90122C14.8394 2.98455 14.6906 3.56528 14.6298 3.78806C14.499 4.26274 14.361 4.72615 14.1593 5.17106C13.9565 5.9703 13.8046 6.81096 13.7651 7.635C13.7021 8.84987 13.8512 10.0377 14.5436 10.8671C15.7796 12.3561 17.8366 12.9717 19.465 13.7717C20.1451 14.1055 20.4597 14.9943 20.2073 15.8644C19.9499 16.7336 19.2035 17.3244 18.4443 17.2537C16.1558 17.0426 12.951 18.5856 10.7853 19.9613C10.1196 20.3839 9.13987 21.5849 8.25554 22.2715C7.54382 22.8208 6.85326 23.1204 6.28325 23.1445C6.06081 23.1534 4.87342 23.0655 4.81743 21.5374C4.80485 21.1093 4.97017 18.9414 5.00012 18.6978C5.16 17.2981 5.16319 16.0029 4.76574 14.7213C4.42071 13.61 3.90288 12.5699 3.11643 11.8331C2.79939 11.536 2.45414 11.2768 2.1102 11.0135C1.9806 10.9501 1.61573 10.7688 1.49753 10.6698C1.25629 10.4703 1.10804 10.2313 1.01789 10.0115C0.846183 9.59528 0.830787 9.15914 0.949318 8.70621C1.02411 8.40632 1.16988 8.06879 1.46861 7.73857C1.68775 7.5062 2.11645 7.18811 2.73653 7.09144C3.38481 6.99032 4.66955 7.1088 4.90544 7.108C6.54522 7.10455 8.23607 6.84182 9.78309 5.94237C10.5542 5.49186 10.9041 4.85161 11.2938 4.03774ZM10.6559 9.29794C10.7716 10.9069 11.2412 12.3807 12.1884 13.5181C12.578 13.9894 13.0356 14.3991 13.5297 14.7619C12.0829 15.3491 10.6767 16.0932 9.51449 16.8282C9.13773 17.0679 8.67184 17.5019 8.16988 17.9816C8.29846 16.3122 8.20159 14.7446 7.71718 13.1832C7.42907 12.2617 7.05221 11.3832 6.57076 10.597C7.95846 10.4112 9.34514 10.0117 10.6559 9.29794Z" fill="#35312B"/>
</svg>
