<svg width="19" height="21" viewBox="0 0 19 21" fill="none" xmlns="http://www.w3.org/2000/svg">
<path fill-rule="evenodd" clip-rule="evenodd" d="M3.22372 4.71681C2.83269 4.20099 2.47656 3.68171 2.15921 3.18238C1.21308 1.67503 2.34562 0.892199 2.43484 0.832928C2.62233 0.709553 3.48541 0.199802 4.47507 1.19924C4.53489 1.25823 4.90662 1.72856 5.04699 1.91191C5.34525 2.30369 5.63023 2.6943 5.86191 3.12433C6.3747 3.77008 6.95132 4.40038 7.58286 4.93118C8.51096 5.71764 9.54614 6.31895 10.6256 6.27083C12.559 6.19013 14.2953 4.92703 15.9185 4.11666C16.5963 3.77803 17.4939 4.06642 18.0331 4.79449C18.5684 5.52599 18.5859 6.47778 18.0696 7.0388C16.5147 8.7312 15.7997 12.2155 15.5814 14.7719C15.5141 15.5576 15.8756 17.0647 15.8858 18.1843C15.8914 19.0832 15.7112 19.8141 15.3848 20.2821C15.2572 20.4645 14.4676 21.3557 13.2182 20.4741C12.87 20.2246 11.2459 18.7792 11.0703 18.6078C10.0538 17.6323 9.02552 16.8448 7.76519 16.3842C6.67218 15.9851 5.53106 15.7667 4.46833 15.9457C4.03989 16.0178 3.62446 16.1353 3.20659 16.2493C3.07759 16.314 2.71223 16.4943 2.56188 16.5283C2.25699 16.5993 1.977 16.5724 1.74755 16.5109C1.31241 16.3952 0.956159 16.1431 0.667726 15.7743C0.474518 15.5331 0.294392 15.2126 0.212776 14.7748C0.160755 14.4597 0.16756 13.9259 0.466472 13.3741C0.77894 12.7972 1.65182 11.8471 1.79414 11.659C2.78521 10.3525 3.60099 8.84839 3.82314 7.07273C3.93212 6.18636 3.63495 5.51998 3.22372 4.71681ZM7.02117 8.41221C8.37111 9.29529 9.82803 9.81496 11.3067 9.75089C11.9178 9.72664 12.521 9.61089 13.1091 9.43781C12.6992 10.9445 12.4389 12.514 12.3192 13.8839C12.2814 14.3288 12.3443 14.9624 12.4216 15.6524C11.1717 14.5384 9.8661 13.6654 8.33051 13.1044C7.423 12.7751 6.49577 12.5424 5.57867 12.4489C6.27187 11.2325 6.7945 9.88733 7.02117 8.41221Z" fill="#35312B"/>
</svg>
