<svg width="296" height="232" viewBox="0 0 296 232" fill="none" xmlns="http://www.w3.org/2000/svg">
<path d="M176.34 24.4335C182.622 24.3096 188.911 24.2477 195.2 24.3963C197.126 24.4387 198.99 25.089 200.525 26.2546C202.998 28.1128 205.132 30.225 206.27 33.1734C206.95 34.9387 207.939 36.5492 208.632 38.3021C209.04 39.3241 209.399 40.3647 209.745 41.3991C209.824 41.6294 209.819 41.8803 209.731 42.1071C209.642 42.334 209.476 42.5221 209.263 42.638C204.315 46.2801 199.127 49.532 193.988 52.8706C190.179 55.3482 186.314 57.733 182.511 60.223C181.115 61.1484 179.552 61.7922 177.91 62.1184C169.253 63.8899 160.676 65.7915 152.055 67.6311C151.517 67.7488 151.375 67.9222 151.486 68.4859C151.598 69.0496 151.95 68.9319 152.315 68.8514C160.49 67.0014 168.663 65.1432 176.834 63.2767C177.149 63.2028 177.475 63.1927 177.794 63.2469C178.112 63.3012 178.417 63.4187 178.689 63.5926C182.579 65.6676 186.438 67.7984 190.352 69.7867C198.313 73.8872 206.286 77.9505 214.271 81.9766C214.89 82.2987 215.001 82.6332 214.89 83.3084C214.383 86.7482 213.806 90.1694 213.158 93.572C211.415 102.721 209.485 111.826 207.593 120.931C207.438 121.668 207.265 122.405 207.179 123.155C207.144 123.545 206.984 123.913 206.723 124.204C206.462 124.495 206.114 124.694 205.732 124.772C203.307 125.564 200.896 126.407 198.484 127.249C198.249 127.33 197.866 127.324 197.866 127.658C197.866 127.993 198.144 128.024 198.336 128.154C208.848 135.252 218.192 143.744 226.738 153.128C235.397 162.739 243.256 173.043 250.237 183.938C251.437 185.796 253.242 186.533 255.184 186.979C257.608 187.543 260.094 187.865 262.506 188.552C266.674 189.729 271.009 189.989 275.245 190.788C278.788 191.457 282.047 192.702 284.768 195.211C285.323 195.719 285.817 196.291 286.24 196.914C288.15 199.788 287.674 202.792 284.953 204.911C283.021 206.292 280.801 207.215 278.46 207.611C276.141 208.113 273.779 208.274 271.435 208.59C270.849 208.655 270.269 208.773 269.704 208.943C268.38 209.364 268.077 210.101 268.659 211.346C269.022 212.068 269.464 212.748 269.976 213.372C270.699 214.313 271.466 215.23 272.159 216.172C274.317 219.126 273.89 222.211 270.99 224.459C268.3 226.547 265.159 227.656 261.906 228.448C255.92 229.823 249.754 230.235 243.639 229.669C234.592 228.981 225.842 226.726 217.085 224.534C213.425 223.564 209.708 222.829 205.954 222.335C201.319 221.831 196.63 222.239 192.152 223.536C188.213 224.614 184.298 225.785 180.272 226.516C175.175 227.348 169.995 227.542 164.85 227.092C156.081 226.51 147.331 225.673 138.525 225.853C135.744 225.822 133.014 226.605 130.672 228.108C126.145 231.112 121.216 231.651 115.997 230.3C111.774 229.21 107.692 227.693 103.53 226.423C97.2847 224.521 91.0266 222.663 84.8056 220.681C76.7666 218.117 68.8388 218.364 60.8863 220.947C57.1575 222.263 53.3154 223.231 49.4091 223.84C46.3171 224.249 43.2252 224.41 40.2074 223.586C37.0165 222.725 34.3637 221.108 33.1083 217.826C32.463 215.925 32.4091 213.873 32.9537 211.941C33.3 210.393 33.6958 208.844 34.0297 207.308C34.5368 204.936 33.9246 203.901 31.5995 203.214C29.745 202.75 27.8304 202.574 25.9227 202.693C22.6452 202.743 19.3677 202.966 16.1088 202.433C15.4985 202.34 14.8952 202.206 14.3031 202.031C13.5452 201.832 12.8349 201.483 12.2146 201.004C11.5942 200.525 11.0764 199.926 10.6921 199.242C10.3078 198.558 10.0649 197.804 9.97767 197.024C9.89049 196.244 9.96088 195.455 10.1847 194.703C10.803 192.225 12.3614 190.293 14.0681 188.472C16.6345 185.734 19.8748 183.993 23.2079 182.383C29.8742 179.15 36.9362 177.118 44.1218 175.458C46.5422 174.833 49.0063 174.392 51.493 174.139C51.9444 174.108 52.1114 173.81 52.3526 173.519C56.7619 167.18 61.5098 161.085 66.5755 155.259C72.5066 148.398 78.9793 142.027 85.9311 136.206C86.6608 135.587 86.667 135.587 85.8692 135.072C83.1793 133.289 80.4645 131.548 77.8302 129.64C77.6191 129.507 77.4493 129.318 77.34 129.094C77.2307 128.869 77.1863 128.619 77.2118 128.37C77.4221 124.338 77.8302 120.318 78.1827 116.304C78.6712 110.674 79.2154 105.05 79.7719 99.4254C80.211 95.0028 80.65 90.5864 81.3488 86.201C81.59 84.702 81.5653 84.6835 83.0865 84.3428L109.615 78.5389C109.806 78.5229 109.989 78.4522 110.141 78.3354C110.293 78.2185 110.409 78.0604 110.474 77.8797C110.539 77.699 110.551 77.5034 110.508 77.3162C110.466 77.1289 110.371 76.9578 110.234 76.8232C109.986 76.5073 109.683 76.7426 109.424 76.8232C105.818 77.5788 102.226 78.3655 98.6204 79.1212C93.1539 80.2691 87.6853 81.4068 82.2146 82.5341C81.7716 82.6541 81.3035 82.6434 80.8665 82.5031C80.6845 82.4555 80.5209 82.3546 80.3964 82.2134C80.2719 82.0722 80.1923 81.897 80.1677 81.7103C79.4194 76.7055 78.3744 71.7502 78.2136 66.671C78.0002 61.5199 78.736 56.3734 80.3841 51.4893C82.6165 45.0598 87.0689 40.7364 93.1972 37.9428C98.8987 35.3413 104.866 33.607 110.902 32.0151C119.85 29.7703 128.941 28.1375 138.111 27.1279C150.799 25.5718 163.559 24.6724 176.34 24.4335ZM83.1298 81.1466C83.4142 81.3758 83.6925 81.1466 83.9522 81.0971C87.8666 80.2609 91.7749 79.3999 95.7016 78.5575C112.757 74.841 129.816 71.1432 146.879 67.4639C156.904 65.3083 166.94 63.2147 176.976 61.0963C177.924 60.9291 178.832 60.5867 179.654 60.0867C188.429 54.4563 197.173 48.7701 206.133 43.4246C206.307 43.3193 206.542 43.2759 206.616 43.022C206.272 42.9853 205.925 43.0212 205.595 43.1273C183.037 47.5561 160.546 52.1335 137.975 56.4074C129.979 57.9188 122.014 59.6098 113.956 60.7433C113.456 60.8415 112.984 61.0534 112.577 61.3627C104.332 66.863 96.1139 72.3655 87.9223 77.87C86.3207 78.9415 84.6448 79.9016 83.1483 81.1157L83.0185 81.1714L83.1174 81.2148L83.1298 81.1466ZM152.433 214.084C159.474 214.121 166.509 213.859 173.538 213.298C187.457 212.279 201.227 209.769 214.612 205.809C226.825 202.093 238.401 197.026 248.951 189.754C249.884 189.134 249.891 189.134 249.278 188.156C244.287 180.336 238.896 172.779 233.126 165.516C229.004 160.313 224.636 155.313 220.022 150.514C219.435 149.895 219.404 149.895 219.107 150.688C218.718 151.697 218.545 152.763 218.229 153.785C215.137 163.77 209.151 171.568 200.209 176.907C191.768 181.949 182.468 183.287 172.784 182.532C166.754 182.061 161.034 180.45 155.382 178.313C151.381 176.79 147.591 174.814 143.75 172.937C138.323 170.278 132.155 169.542 126.256 170.85C121.322 171.936 116.508 173.511 111.885 175.551C108.02 177.161 104.223 178.958 100.166 180.079C96.8766 180.989 93.5867 181.119 90.3464 179.88C85.288 177.948 82.1218 174.201 80.279 169.208C79.2216 166.34 78.8196 163.311 78.1518 160.351C77.7374 158.529 77.1685 156.777 75.7586 155.426C74.6849 154.431 73.2631 153.899 71.8009 153.946C70.5641 153.946 70.1313 154.863 69.4263 155.513C69.2906 155.644 69.1626 155.782 69.0429 155.928C61.3941 164.397 54.2772 173.334 47.7332 182.686C45.8224 185.387 43.9672 188.131 42.0688 190.838C41.7163 191.346 41.7348 191.513 42.378 191.73C44.8268 192.556 47.2591 193.415 49.675 194.307C64.3625 199.856 79.4332 204.33 94.7679 207.692C113.722 211.787 133.044 213.929 152.433 214.084ZM177.539 181.788C179.634 181.812 181.729 181.702 183.81 181.46C195.559 179.911 205.144 174.715 212.045 164.878C214.55 161.467 216.415 157.629 217.549 153.549C217.743 152.491 218.039 151.454 218.433 150.452C218.854 149.598 218.538 148.978 217.932 148.396C217.005 147.498 216.077 146.587 215.156 145.695C208.88 139.605 202.048 134.117 194.749 129.306C194.503 129.126 194.215 129.014 193.912 128.979C193.61 128.944 193.304 128.989 193.024 129.107C190.507 130.012 187.971 130.854 185.442 131.734C179.376 133.834 173.309 135.952 167.243 138.046C153.855 142.66 140.566 147.547 127.116 151.976C124.024 152.986 120.981 153.971 117.84 154.726C117.463 154.819 117.017 155.036 116.708 154.652C116.279 154.206 115.777 153.838 115.224 153.562C106.709 148.272 98.1566 143.032 89.7466 137.575C89.5186 137.379 89.2224 137.283 88.9232 137.306C88.624 137.329 88.3463 137.47 88.1511 137.699C82.4812 142.333 77.111 147.323 72.073 152.639C71.8998 152.818 71.5721 152.986 71.6834 153.258C71.7947 153.531 72.2029 153.438 72.4688 153.444C73.1811 153.443 73.8858 153.591 74.5376 153.879C75.1894 154.167 75.7738 154.589 76.2533 155.117C77.3174 156.28 78.0965 157.675 78.529 159.192C78.9062 160.505 79.1474 161.856 79.438 163.2C80.143 166.699 81.0149 170.143 83.0927 173.11C86.2341 177.607 90.4639 180.097 96.0788 179.924C98.1481 179.795 100.186 179.35 102.121 178.604C106.585 177.037 110.871 175.037 115.261 173.284C120.115 171.293 125.23 170.016 130.449 169.493C134.785 169.134 139.138 169.927 143.07 171.791C145.958 173.092 148.778 174.541 151.678 175.817C159.909 179.484 168.424 181.937 177.539 181.788ZM51.0292 175.099C50.7324 175.154 50.4479 175.192 50.1635 175.26C47.6899 175.879 45.1484 176.461 42.6501 177.118C35.4829 178.976 28.4704 181.249 21.8908 184.73C19.2391 186.034 16.8478 187.812 14.8349 189.977C13.5315 191.308 12.526 192.903 11.8852 194.653C10.9948 197.478 12.2872 199.788 15.1441 200.519C16.269 200.783 17.4159 200.943 18.57 200.996C21.8227 201.219 25.0693 200.872 28.322 200.996C29.6398 201.034 30.9471 201.242 32.2117 201.616C35.2665 202.526 36.4229 204.397 35.8107 207.549C35.4891 209.21 35.0686 210.857 34.7223 212.505C33.9679 216.073 34.8893 218.631 37.5484 220.353C38.4961 220.976 39.5411 221.437 40.6403 221.715C43.512 222.335 46.4752 222.402 49.3719 221.914C53.2802 221.387 57.0276 220.21 60.7627 219.027C68.9068 216.385 77.6756 216.385 85.8198 219.027C91.8367 220.935 97.9031 222.7 103.945 224.521C108.273 225.828 112.54 227.451 116.931 228.554C121.47 229.687 125.762 229.173 129.694 226.627C132.362 224.984 135.437 224.126 138.568 224.15C147.912 223.896 157.2 224.769 166.507 225.345C170.477 225.635 174.465 225.519 178.411 224.998C182.42 224.359 186.379 223.44 190.259 222.248C196.616 220.33 203.343 219.985 209.862 221.245C214.562 222.161 219.194 223.332 223.856 224.397C231.772 226.212 239.724 227.829 247.893 227.94C253.508 228.015 259.061 227.581 264.435 225.766C266.606 225.035 268.721 224.156 270.434 222.564C271.149 221.991 271.613 221.162 271.728 220.252C271.844 219.342 271.601 218.423 271.052 217.689C270.557 216.921 269.964 216.221 269.407 215.497C268.506 214.459 267.73 213.32 267.094 212.102C266.099 209.922 266.872 208.15 269.135 207.376C270.01 207.112 270.909 206.935 271.819 206.85C274.564 206.509 277.329 206.23 279.981 205.4C281.436 204.995 282.793 204.297 283.97 203.35C285.671 201.894 285.949 200.166 284.799 198.24C284.249 197.375 283.55 196.616 282.733 195.998C280.204 193.953 277.211 193.099 274.076 192.485C270.941 191.872 267.824 191.909 264.713 191.451C261.232 190.943 257.757 190.373 254.244 190.051C254.063 190.008 253.876 190.004 253.693 190.04C253.511 190.075 253.338 190.148 253.187 190.256C250.066 192.727 246.772 194.971 243.33 196.97C232.706 203.164 221.327 207.469 209.479 210.597C193.945 214.71 178.108 216.692 162.067 217.188C143.812 217.722 125.549 216.43 107.55 213.329C90.1154 210.461 73.0104 205.857 56.4896 199.584C51.5771 197.76 46.7888 195.616 42.1554 193.167C40.9619 192.516 40.6156 192.12 41.4875 190.596C44.3321 185.571 47.3869 180.677 50.652 175.916C50.8066 175.699 51.0663 175.495 51.0292 175.099ZM138.513 105.923C138.649 106.239 138.983 106.251 139.236 106.375C141.629 107.546 143.676 109.07 144.74 111.634C145.351 113.077 145.621 114.643 145.53 116.208C145.439 117.773 144.989 119.296 144.214 120.659C143.299 122.183 142.226 123.605 141.011 124.902C139.632 126.562 138.302 128.247 137.554 130.309C136.936 131.944 137.239 133.047 138.649 134.026C139.817 134.843 141.073 135.531 142.211 136.386C144.295 137.94 145.525 139.953 145.204 142.685C145.08 143.738 145.092 143.744 146.094 143.397C159.876 138.624 173.66 133.844 187.446 129.058C187.76 128.983 188.053 128.839 188.305 128.637C190.037 126.878 191.781 125.094 192.801 122.79C193.76 120.622 193.16 119.073 191.045 117.977C190.028 117.484 188.96 117.106 187.86 116.849C187.019 116.669 186.213 116.353 185.473 115.914C184.924 115.591 184.488 115.106 184.224 114.525C183.961 113.944 183.883 113.295 184.001 112.668C184.152 111.708 184.493 110.788 185.003 109.962C185.733 108.723 186.5 107.533 187.229 106.307C187.974 105.149 188.441 103.835 188.596 102.467C188.862 98.8741 186.698 95.4921 183.03 93.795C182.354 93.4575 181.572 93.3996 180.854 93.6339C166.989 97.6911 153.113 101.736 139.193 105.607C138.989 105.65 138.68 105.619 138.513 105.923ZM79.1474 128.036C79.1474 129.498 79.1474 129.504 80.1244 130.049C87.0751 133.982 93.8588 138.188 100.63 142.437C105.849 145.695 111.062 148.966 116.269 152.249C116.999 152.701 117.048 152.676 117.11 151.796C117.11 151.685 117.11 151.58 117.11 151.474C117.358 147.554 117.599 143.633 117.858 139.706C118.209 134.337 118.57 128.944 118.941 123.527C119.219 119.531 119.429 115.524 119.986 111.553C120.05 111.314 120.029 111.059 119.926 110.833C119.823 110.607 119.646 110.424 119.423 110.315C107.241 102.262 94.873 94.5321 82.9381 86.0833C82.6907 85.9099 82.4186 85.7303 82.128 85.8603C81.8374 85.9904 81.9548 86.3311 81.9487 86.5789C81.8745 88.4371 81.8559 90.3449 81.7508 92.2217C81.2623 101.222 80.582 110.185 79.8585 119.191C79.6421 122.226 79.3762 125.273 79.1474 128.036ZM178.572 91.0572C178.17 84.8631 177.842 78.669 177.65 72.4749C177.613 71.4467 177.65 71.4343 176.612 71.6325C164.862 73.8686 153.181 76.2781 141.469 78.6318C134.289 80.0751 127.134 81.6607 119.899 82.8314C119.281 82.9367 119.182 83.104 119.33 83.6738C121.297 91.2492 122.824 98.9237 124.382 106.592C124.506 107.211 124.673 107.416 125.261 107.149C125.436 107.081 125.615 107.025 125.799 106.982C140.962 102.405 156.254 98.2795 171.454 93.8259C173.532 93.2065 175.641 92.6491 177.756 92.1597C178.411 92.0235 178.795 91.7695 178.572 91.0572ZM83.8657 85.6312C84.0014 85.8745 84.2214 86.0596 84.4841 86.1515C90.4453 89.7502 96.2767 93.5472 102.121 97.3442L119.435 108.599C119.556 108.704 119.702 108.774 119.859 108.802C120.015 108.83 120.177 108.816 120.326 108.76C121.051 108.475 121.79 108.227 122.54 108.017C123.028 107.88 123.158 107.67 123.034 107.149C122.577 104.969 122.169 102.77 121.754 100.577C120.685 94.9161 119.658 89.2547 118.836 83.5561C118.724 82.7943 118.953 82.3731 119.701 82.212C120.32 82.0757 120.895 81.8961 121.501 81.766C135.105 78.8796 148.71 76.309 162.314 73.5217L173.761 71.1803C174.163 71.0936 174.497 71.0317 174.577 70.4804C174.806 68.969 175.066 67.4515 175.393 65.9587C175.567 65.1721 175.27 65.1906 174.682 65.3393C159.091 68.8699 143.497 72.3799 127.901 75.8693C115.451 78.669 102.999 81.4563 90.5443 84.2313C88.3428 84.7392 86.129 85.1666 83.8657 85.6373V85.6312ZM80.7737 81.8589C80.9407 81.7536 81.0334 81.7041 81.1138 81.6422C86.3207 77.8328 91.6883 74.2526 96.9879 70.5733C101.935 67.1542 106.868 63.7454 111.786 60.3469C111.897 60.2953 111.996 60.2219 112.078 60.1311C112.159 60.0402 112.222 59.9338 112.262 59.8182C112.302 59.7026 112.318 59.5801 112.309 59.4581C112.301 59.3361 112.268 59.217 112.213 59.108C111.892 58.1377 111.516 57.1864 111.087 56.2588C108.817 51.801 105.503 47.9605 101.428 45.066C98.3978 42.83 95.1513 41.0213 91.3296 40.4948C90.9017 40.4169 90.4602 40.5031 90.0928 40.7364C87.0669 42.5705 84.5926 45.1901 82.9319 48.3179C80.0069 53.8926 79.1412 59.8575 79.1907 66.0454C79.2339 71.329 80.4336 76.5011 80.7861 81.8651L80.7737 81.8589ZM157.237 26.3785C155.586 26.5147 153.496 26.682 151.406 26.8616C145.358 27.3881 139.323 28.0323 133.306 28.8375C132.96 28.8809 132.687 28.918 132.657 29.3702C132.607 30.1445 132.459 30.9187 132.44 31.693C132.372 34.7281 133.46 36.066 136.453 36.6483C138.205 36.9138 139.936 37.2988 141.636 37.8004C144.561 38.81 147.009 40.4143 148.314 43.375C149.551 46.1624 149.353 48.9869 148.351 51.7928C148.129 52.4122 148.246 52.5237 148.877 52.4122C156.392 50.9546 163.908 49.5093 171.423 48.0764C171.771 48.0286 172.099 47.8849 172.369 47.6614C173.32 46.8619 174.153 45.9318 174.843 44.8988C175.749 43.5936 176.181 42.0174 176.069 40.432C175.956 38.8466 175.305 37.3475 174.225 36.1837C173.038 34.9204 171.548 33.984 169.896 33.4645C168.115 32.8946 166.247 32.8451 164.423 32.5354C162.407 32.2071 161.226 31.2966 160.867 29.6365C160.645 28.7138 160.712 27.7448 161.059 26.8616C161.319 26.2112 161.059 26.1431 160.515 26.1926C159.538 26.267 158.61 26.3041 157.237 26.3785ZM91.9171 39.8568C93.237 40.1439 94.5316 40.5375 95.7882 41.0337C100.358 42.9792 104.403 45.9805 107.593 49.7921C109.962 52.5051 112.009 55.4288 112.998 58.9594C113.153 59.4921 113.48 59.362 113.814 59.2877C120.258 57.8321 126.8 56.6923 133.25 55.4102C133.584 55.4232 133.912 55.3252 134.184 55.1314C135.22 54.1888 136.103 53.0894 136.8 51.8733C137.178 51.1482 137.401 50.352 137.454 49.5357C137.507 48.7193 137.389 47.9009 137.107 47.1329C136.826 46.3649 136.388 45.6642 135.821 45.0757C135.253 44.4873 134.569 44.024 133.813 43.7157C132.414 43.153 130.917 42.8791 129.41 42.9105C128.04 42.9883 126.666 42.901 125.316 42.6503C123.189 42.0991 122.323 40.5629 123.022 38.4817C123.307 37.6145 123.727 36.7969 124.079 35.9545C124.297 35.4721 124.368 34.9359 124.282 34.4134C124.196 33.8909 123.958 33.4056 123.597 33.0185C123.083 32.4302 122.475 31.9319 121.798 31.5443C121.426 31.3045 121.008 31.1472 120.57 31.083C120.133 31.0189 119.687 31.0495 119.262 31.1727C118.093 31.4824 116.894 31.6558 115.719 31.9408C109.028 33.5388 102.349 35.1803 95.9737 37.8437C94.5633 38.39 93.2055 39.0638 91.9171 39.8568ZM130.047 108.103V108.295L131.061 108.754C135.081 110.612 136.218 114.328 133.918 118.088C132.744 119.893 131.442 121.611 130.022 123.229C128.279 125.208 126.799 127.405 125.619 129.764C124.5 132.198 124.778 134.36 126.677 136.274L127.648 137.24C128.414 137.996 129.231 138.708 129.929 139.52C132.106 142.041 132.663 144.816 131.098 147.882C130.987 148.092 130.727 148.303 130.931 148.6C130.987 148.607 131.043 148.607 131.098 148.6C135.159 147.196 139.222 145.792 143.287 144.388C143.456 144.322 143.604 144.21 143.713 144.065C143.822 143.919 143.889 143.746 143.905 143.565C144.523 140.932 143.651 138.653 141.283 136.968C140.257 136.237 139.15 135.611 138.117 134.887C136.262 133.567 135.817 132.068 136.62 129.894C137.329 128.146 138.343 126.537 139.613 125.143C140.658 123.904 141.778 122.74 142.749 121.458C143.717 120.261 144.379 118.845 144.676 117.334C144.974 115.823 144.898 114.261 144.455 112.786C143.528 109.491 141.005 107.831 138.148 106.468C137.807 106.242 137.396 106.15 136.991 106.208L130.047 108.103ZM212.132 82.7075C212.086 82.5883 212.013 82.4815 211.918 82.3955C211.824 82.3095 211.711 82.2466 211.588 82.212C207.822 80.3538 204.049 78.5389 200.296 76.6745C192.795 72.958 185.213 69.3469 177.935 65.1721C177.691 65.0082 177.415 64.8984 177.125 64.85C176.599 64.8066 176.173 64.85 176.117 65.618C176.012 67.0613 175.746 68.4983 175.554 69.9539C175.437 70.8211 175.437 70.8273 176.321 70.6353C178.176 70.2264 178.275 70.2946 178.461 72.2457C178.461 72.2457 178.461 72.3015 178.461 72.3262C179.017 78.4646 179.469 84.6091 179.772 90.7661C179.772 91.4474 179.957 91.5651 180.619 91.3855C188.563 89.168 196.513 86.967 204.47 84.7826C207.005 84.0764 209.547 83.4137 212.132 82.7199V82.7075ZM120.369 114.297C120.017 119.792 119.689 125.032 119.336 130.266C118.965 135.741 118.57 141.211 118.186 146.686C118.05 148.644 117.92 150.607 117.797 152.565C117.753 153.345 118.019 153.605 118.619 153.357C121.816 152.013 125.063 150.799 128.315 149.598C128.577 149.526 128.809 149.372 128.977 149.158C131.005 146.154 131.692 143.329 128.94 140.195C128.148 139.284 127.227 138.485 126.361 137.643C123.337 134.719 122.917 132.273 124.791 128.5C124.896 128.284 125.019 128.073 125.137 127.881C126.621 125.168 128.717 122.926 130.702 120.566C131.814 119.321 132.786 117.958 133.603 116.503C134.129 115.566 134.322 114.478 134.151 113.418C133.981 112.357 133.456 111.385 132.663 110.661C131.692 109.766 130.549 109.077 129.305 108.636C129 108.522 128.664 108.522 128.359 108.636C125.922 109.472 123.523 110.445 120.938 110.717C120.53 110.761 120.357 110.959 120.375 111.411C120.394 112.476 120.369 113.529 120.369 114.316V114.297ZM192.393 90.2272V90.4378C194.081 90.8739 195.622 91.7576 196.851 92.9959C199.752 95.6594 200.778 98.8308 198.787 102.653C197.977 104.207 197.161 105.75 196.419 107.335C194.99 110.401 195.411 111.764 198.218 113.529L198.292 113.567C200.314 114.954 201.774 116.695 202.034 119.259C202.187 120.541 202.214 121.836 202.114 123.124C202.058 123.781 202.25 123.861 202.813 123.638C203.486 123.369 204.174 123.135 204.872 122.938C205.079 122.893 205.266 122.784 205.407 122.626C205.548 122.468 205.636 122.27 205.657 122.059C206.072 119.915 206.529 117.785 206.95 115.648C208.916 105.737 210.821 95.7895 213.202 85.9594C213.463 85.2792 213.617 84.5625 213.659 83.8349L192.393 90.2272ZM188.355 44.7997C188.707 44.7501 188.893 44.7316 189.072 44.6944C195.157 43.5093 201.242 42.32 207.327 41.1266C208.681 40.8602 208.669 41.0646 208.131 39.6276C207.277 37.3544 205.936 35.2918 205.039 33.0743C204.142 30.8568 202.485 29.2587 200.71 27.7226C198.959 26.1741 196.689 25.3446 194.353 25.3998C188.478 25.3998 182.604 25.3255 176.717 25.5237C175.48 25.567 175.307 25.8458 175.863 26.9979C176.203 27.6468 176.717 28.1876 177.347 28.5588C177.908 28.9265 178.516 29.2181 179.153 29.4259C180.433 29.8348 181.738 30.1754 182.987 30.6648C186.079 31.8354 188.553 33.7061 189.635 36.9889C190.078 38.296 190.193 39.6924 189.97 41.0547C189.747 42.417 189.192 43.7032 188.355 44.7997ZM190.637 127.801C190.725 127.815 190.815 127.815 190.903 127.801L200.642 124.406C201.038 124.27 201.069 123.973 201.094 123.638C201.196 122.325 201.196 121.006 201.094 119.692C201.045 118.543 200.7 117.426 200.093 116.449C199.487 115.473 198.638 114.67 197.631 114.118C197.196 113.859 196.783 113.567 196.394 113.244C195.894 112.874 195.501 112.377 195.257 111.804C195.012 111.232 194.925 110.604 195.002 109.986C195.07 109.262 195.232 108.55 195.485 107.868C196.212 106.169 197.038 104.515 197.958 102.913C198.707 101.476 199.356 100.026 199.195 98.3228C198.929 95.04 195.262 91.6394 192.139 90.797C191.24 90.6305 190.311 90.7317 189.468 91.0882L182.993 92.9959C183.568 93.2623 183.958 93.4357 184.335 93.6153C186.084 94.4453 187.529 95.8022 188.47 97.496C189.41 99.1898 189.798 101.136 189.579 103.061C189.332 105.068 188.268 106.734 187.223 108.407C186.351 109.788 185.368 111.107 184.991 112.743C184.838 113.266 184.879 113.826 185.106 114.321C185.334 114.816 185.732 115.213 186.228 115.437C186.68 115.675 187.157 115.862 187.65 115.995C189.276 116.441 190.952 116.75 192.393 117.717C193.144 118.157 193.721 118.841 194.031 119.656C194.34 120.47 194.362 121.366 194.093 122.195C193.592 123.793 192.748 125.263 191.62 126.5C191.236 126.894 190.905 127.338 190.637 127.819V127.801ZM174.089 47.5003C174.305 47.5003 174.491 47.5003 174.67 47.4508C178.38 46.7322 182.091 46.0075 185.801 45.3138C186.412 45.2077 186.969 44.8951 187.378 44.428C189.703 41.9009 189.697 37.5092 187.378 34.7095C185.742 32.8286 183.56 31.5056 181.138 30.9249C179.695 30.6007 178.313 30.0465 177.044 29.2835C175.981 28.5712 175.072 27.6792 175.121 26.3103C175.152 25.567 174.88 25.5546 174.336 25.5794C170.551 25.7487 166.769 25.9036 162.988 26.044C161.659 26.0997 161.659 26.0935 161.48 27.4314C161.164 29.8533 162.098 31.1479 164.528 31.5691C164.998 31.6558 165.481 31.6992 165.963 31.7487C167.545 31.8514 169.107 32.1639 170.607 32.6778C173.173 33.6751 175.332 35.2236 176.395 37.8499C177.688 41.0523 176.859 43.9573 174.756 46.5774C174.534 46.8623 174.194 47.0791 174.089 47.5003ZM136.546 54.6545C136.812 54.7362 137.097 54.7362 137.362 54.6545C139.657 54.2209 141.957 53.8245 144.239 53.3104C145.216 53.0874 146.484 53.3599 147.121 52.468C147.758 51.576 147.838 50.5106 148.017 49.4762C148.512 46.6641 148.098 44.044 146.162 41.8203C144.474 39.8382 142.186 38.8596 139.731 38.2154C138.173 37.8066 136.552 37.6579 135.019 37.1438C134.104 36.8869 133.297 36.3401 132.718 35.5852C132.14 34.8304 131.821 33.9082 131.809 32.9566C131.72 31.8824 131.818 30.8007 132.1 29.7604C132.273 29.141 132.1 29.0233 131.482 29.11C128.427 29.5622 125.372 30.0268 122.336 30.5842C122.206 30.5842 122.057 30.5842 122.039 30.832C122.292 30.9807 122.571 31.1293 122.843 31.3028C125.069 32.684 125.663 34.3998 124.735 36.8774C124.488 37.5278 124.191 38.1658 123.993 38.8348C123.572 40.2656 124.098 41.1142 125.539 41.4549C126.839 41.6633 128.158 41.7298 129.472 41.6531C131.797 41.6531 134.011 42.0805 135.946 43.5113C139.038 45.7598 139.57 50.3682 137.183 53.7006C136.911 53.9745 136.695 54.2984 136.546 54.6545ZM145.204 69.8796C145.346 69.2602 145.136 69.1053 144.492 69.2602C136.206 71.0606 127.916 72.8404 119.621 74.5995C118.817 74.7729 118.563 74.9711 118.786 75.8383C118.934 76.3958 119.027 76.4577 119.522 76.3152C127.895 74.3992 136.27 72.4976 144.647 70.6105C145.03 70.5114 145.402 70.4247 145.191 69.8796H145.204ZM136.466 54.7412L136.515 54.6979C136.515 54.6979 136.484 54.6545 136.466 54.6545C136.447 54.6545 136.435 54.6545 136.423 54.6979L136.466 54.7412ZM71.6587 153.426L71.6092 153.339C71.6092 153.339 71.5597 153.339 71.5659 153.382C71.5766 153.415 71.5911 153.446 71.6092 153.475L71.6587 153.426Z" fill="#35312B"/>
<path d="M3.41318 193.099C2.3681 194.387 1.35394 195.576 1.1004 197.057C0.482013 200.773 0.951988 204.378 3.05451 207.636C3.26566 207.948 3.50361 208.24 3.76566 208.51C5.34873 210.201 7.34613 210.585 9.52285 210.269C10.9823 210.058 12.4355 209.761 13.8825 209.494C14.6789 209.359 15.4885 209.32 16.2942 209.377C18.8605 209.494 20.4683 210.956 20.9012 213.496C21.1424 214.939 21.0249 216.401 21.1918 217.832C21.2599 218.389 21.3217 218.953 21.4207 219.504C21.5524 220.445 21.9684 221.324 22.6128 222.021C23.2572 222.719 24.0993 223.202 25.0259 223.406C26.0693 223.586 27.0685 223.964 27.9694 224.521C27.4761 224.813 26.9095 224.957 26.3368 224.936C22.5338 225.048 20.153 222.973 19.7696 219.114C19.6706 218.179 19.6644 217.256 19.6273 216.296C19.6273 215.676 19.6273 215.001 19.584 214.357C19.448 211.83 18.3473 210.709 15.7995 210.603C14.4286 210.616 13.0635 210.784 11.7305 211.105C10.5499 211.363 9.34593 211.498 8.13766 211.508C5.94238 211.458 4.03156 210.702 2.73913 208.912C1.35137 207.081 0.452723 204.925 0.128111 202.649C-0.196501 200.373 0.0636457 198.052 0.883965 195.905C1.27929 194.956 1.88393 194.109 2.65256 193.427C2.80715 193.297 3.02977 193.26 3.41318 193.099Z" fill="#35312B"/>
<path d="M276.506 227.024C277.615 226.711 278.761 226.546 279.913 226.534C280.386 226.504 280.854 226.414 281.305 226.268C284.236 225.271 285.374 223.344 284.811 220.285C284.637 219.387 284.385 218.506 284.057 217.652C283.859 217.126 283.661 216.593 283.512 216.048C283.135 214.642 283.587 213.744 284.959 213.261C286.147 212.845 287.371 212.517 288.559 212.102C289.217 211.869 289.86 211.592 290.482 211.272C291.437 210.83 292.283 210.183 292.962 209.377C293.64 208.571 294.134 207.626 294.408 206.608C294.563 206.075 294.773 205.555 294.977 204.979C295.596 205.338 295.515 205.914 295.46 206.41C295.358 207.611 294.954 208.766 294.284 209.767C293.614 210.768 292.702 211.582 291.632 212.133C290.128 212.913 288.532 213.501 286.883 213.886C286.573 213.967 286.264 214.029 285.943 214.109C284.372 214.518 284.186 214.84 284.706 216.382C285.373 218 285.79 219.711 285.943 221.455C286.097 225.209 283.08 226.894 280.606 227.03C279.246 227.08 277.873 227.024 276.506 227.024Z" fill="#35312B"/>
<path d="M58.4436 63.0722C58.4436 62.6634 58.3879 62.3723 58.5549 62.1493C58.7219 61.9263 58.8888 61.6104 59.1733 61.5857C59.4578 61.5609 59.5938 61.8954 59.7113 62.1183C60.2612 63.2904 60.6103 64.5467 60.744 65.8348C60.7841 65.9802 60.7734 66.1349 60.7139 66.2735C60.6543 66.412 60.5493 66.526 60.4163 66.5967C60.3076 66.6442 60.2148 66.722 60.149 66.8208C60.0832 66.9197 60.0472 67.0354 60.0452 67.1541C60.0452 67.3833 59.9834 67.7054 59.7113 67.7116C59.4392 67.7178 59.3279 67.4267 59.2599 67.2037C58.8659 65.8535 58.5927 64.4709 58.4436 63.0722Z" fill="#35312B"/>
<path d="M64.7637 70.0406C64.299 70.0731 63.832 70.0355 63.3785 69.9291C63.1435 69.8547 62.9147 69.737 62.9147 69.4459C62.9147 69.1548 63.1435 69.1362 63.3723 69.1362C63.5021 69.1362 63.7124 69.1362 63.7062 69C63.6691 68.2752 64.2257 68.1885 64.6956 68.0894C65.5614 67.9036 66.4457 67.6868 67.299 68.0894C67.4614 68.1629 67.5944 68.289 67.6763 68.4475C67.7582 68.606 67.7843 68.7876 67.7505 68.9628C67.723 69.1645 67.6331 69.3525 67.4933 69.5003C67.3535 69.6481 67.1709 69.7483 66.9713 69.7866C66.2503 69.9713 65.5076 70.0567 64.7637 70.0406Z" fill="#35312B"/>
<path d="M210.975 58.4639C209.739 59.9753 208.112 59.9443 206.405 59.4674C206.23 59.437 206.073 59.3389 205.969 59.1941C205.865 59.0493 205.822 58.8695 205.849 58.6931C205.877 58.5056 205.976 58.3362 206.126 58.2207C206.276 58.1051 206.465 58.0524 206.653 58.0737C208.1 58.0675 209.627 57.7021 210.975 58.4639Z" fill="#35312B"/>
<path d="M54.4118 72.0785C53.9356 72.0413 53.5337 71.9174 53.4409 71.3971C53.4028 71.1943 53.4465 70.9846 53.5624 70.814C53.6783 70.6434 53.857 70.5256 54.0593 70.4866C54.6898 70.2686 55.3474 70.1394 56.0134 70.1026C56.6318 70.1026 56.8606 70.5485 56.9905 70.9759C57.077 71.2609 56.6627 71.4529 56.3721 71.5953C55.7434 71.8441 55.084 72.0067 54.4118 72.0785Z" fill="#35312B"/>
<path d="M216.72 58.848C216.535 58.8604 216.349 58.8604 216.164 58.848C215.892 58.8108 215.595 58.7674 215.545 58.4453C215.496 58.1232 215.756 57.9622 216.046 57.8259C216.672 57.5188 217.342 57.3099 218.031 57.2065C218.489 57.1508 218.928 57.2375 219.033 57.7702C219.138 58.3029 218.724 58.5816 218.241 58.6745C217.759 58.7674 217.24 58.8046 216.739 58.8665L216.72 58.848Z" fill="#35312B"/>
<path d="M139.131 6.53261C138.797 6.48925 138.339 6.65029 138.29 6.13618C138.24 5.62208 138.686 5.61588 139.007 5.51678C139.971 5.26851 140.962 5.14568 141.957 5.15132C142.161 5.15132 142.458 5.15132 142.514 5.35573C142.569 5.56013 142.309 5.77693 142.099 5.86364C141.149 6.23343 140.148 6.45891 139.131 6.53261Z" fill="#35312B"/>
<path d="M134.004 6.5573C133.108 7.35014 132.063 7.47402 131.036 7.62268C130.945 7.65361 130.848 7.66278 130.752 7.64946C130.657 7.63614 130.566 7.60069 130.487 7.54595C130.408 7.49121 130.342 7.41868 130.296 7.33415C130.25 7.24961 130.224 7.1554 130.22 7.05902C130.164 6.58827 130.504 6.43961 130.888 6.30953C131.93 6.11381 133.006 6.19932 134.004 6.5573Z" fill="#35312B"/>
<path d="M62.995 75.7268C62.995 76.0241 62.995 76.3834 62.692 76.501C62.389 76.6187 62.1973 76.3586 61.9994 76.179C61.7224 75.8238 61.5241 75.4137 61.4174 74.9758C61.3108 74.538 61.2984 74.0824 61.381 73.6394C61.4738 73.3978 61.616 73.2677 61.8634 73.435C62.4175 74.0977 62.8054 74.8835 62.995 75.7268Z" fill="#35312B"/>
<path d="M213.665 62.4776C213.665 62.9298 213.603 63.3757 213.103 63.512C212.602 63.6483 212.367 63.2209 212.2 62.8121C212.14 62.6919 212.094 62.5651 212.064 62.4342C211.971 62.0316 211.686 61.5795 212.033 61.1954C212.379 60.8114 212.744 61.1954 213.078 61.2512C213.529 61.3379 213.597 61.8086 213.647 62.2113C213.659 62.3166 213.659 62.3971 213.665 62.4776Z" fill="#35312B"/>
<path d="M135.928 2.92151C135.513 2.29614 135.298 1.55978 135.309 0.809321C135.26 0.406705 135.39 0.0350591 135.884 0.0040886C136.087 -0.0168127 136.289 0.0429877 136.448 0.170528C136.606 0.298068 136.708 0.483072 136.732 0.685439C136.96 1.59597 136.54 2.27732 135.928 2.92151Z" fill="#35312B"/>
<path d="M135.816 9.94548C135.796 9.46154 135.867 8.97808 136.027 8.52084C136.046 8.42757 136.101 8.34535 136.179 8.29117C136.257 8.23699 136.353 8.21499 136.447 8.22971C136.645 8.22971 136.695 8.40934 136.719 8.57658C136.837 9.26413 136.967 9.94548 137.059 10.633C137.109 11.0047 137.028 11.3639 136.571 11.4073C136.113 11.4506 136.008 11.1471 135.952 10.7879C135.897 10.4286 135.841 10.1251 135.816 9.94548Z" fill="#35312B"/>
<path d="M214.036 55.4846C214.049 55.6505 214.004 55.8157 213.908 55.9514C213.812 56.0872 213.671 56.185 213.511 56.2279C213.158 56.3208 213.016 55.9925 212.892 55.7324C212.718 55.3348 212.587 54.9195 212.503 54.4936C212.447 54.2148 212.286 53.7751 212.676 53.6636C212.87 53.6022 213.081 53.6189 213.263 53.7102C213.446 53.8015 213.585 53.9603 213.653 54.1529C213.826 54.6051 213.913 55.051 214.036 55.4846Z" fill="#35312B"/>
<path d="M152.433 214.084C133.044 213.929 113.721 211.787 94.7678 207.692C79.4331 204.33 64.3625 199.856 49.6749 194.307C47.2632 193.402 44.8309 192.543 42.3779 191.73C41.7595 191.513 41.7162 191.346 42.0687 190.838C43.9672 188.131 45.8223 185.387 47.7332 182.686C54.2714 173.337 61.382 164.402 69.0243 155.934C69.144 155.789 69.272 155.65 69.4077 155.519C70.1126 154.9 70.5455 153.921 71.7823 153.952C73.2445 153.905 74.6663 154.437 75.74 155.432C77.1499 156.783 77.7188 158.529 78.1331 160.357C78.801 163.318 79.203 166.346 80.2604 169.214C82.1156 174.207 85.2694 177.954 90.3278 179.887C93.5681 181.126 96.858 180.995 100.148 180.085C104.204 178.964 108.001 177.168 111.866 175.557C116.489 173.517 121.304 171.942 126.238 170.856C132.137 169.549 138.304 170.284 143.732 172.943C147.572 174.801 151.363 176.796 155.364 178.32C160.991 180.457 166.736 182.067 172.765 182.538C182.449 183.293 191.75 181.956 200.191 176.914C209.133 171.574 215.125 163.776 218.211 153.791C218.526 152.763 218.699 151.697 219.089 150.694C219.385 149.926 219.416 149.907 220.004 150.521C224.605 155.306 228.973 160.307 233.108 165.523C238.884 172.785 244.281 180.342 249.278 188.162C249.897 189.116 249.897 189.116 248.951 189.76C238.401 197.032 226.825 202.148 214.612 205.815C201.227 209.775 187.457 212.286 173.538 213.304C166.513 213.87 159.478 214.13 152.433 214.084Z" fill="#FEFEFE"/>
<path d="M177.539 181.788C168.424 181.937 159.909 179.484 151.666 175.848C148.766 174.572 145.946 173.123 143.058 171.822C139.126 169.958 134.772 169.165 130.437 169.524C125.218 170.047 120.102 171.324 115.249 173.315C110.858 175.068 106.591 177.068 102.108 178.635C100.173 179.381 98.1357 179.826 96.0665 179.955C90.501 180.122 86.2526 177.632 83.0803 173.141C81.0025 170.168 80.1306 166.724 79.4256 163.231C79.1535 161.887 78.8938 160.536 78.5166 159.223C78.0887 157.71 77.316 156.317 76.2595 155.154C75.78 154.626 75.1956 154.205 74.5438 153.917C73.892 153.629 73.1873 153.48 72.4749 153.481C72.209 153.481 71.8256 153.667 71.6896 153.295C71.5536 152.924 71.906 152.837 72.0792 152.676C77.1172 147.36 82.4874 142.37 88.1573 137.736C88.3525 137.508 88.6302 137.366 88.9294 137.343C89.2286 137.32 89.5247 137.417 89.7527 137.612C98.1628 143.069 106.715 148.309 115.23 153.599C115.784 153.875 116.286 154.243 116.714 154.689C117.024 155.073 117.469 154.856 117.846 154.763C120.981 154.008 124.03 153.023 127.122 152.013C140.572 147.584 153.861 142.722 167.249 138.083C173.316 135.989 179.382 133.871 185.448 131.771C187.978 130.891 190.513 130.049 193.03 129.145C193.31 129.026 193.616 128.981 193.919 129.016C194.221 129.051 194.509 129.163 194.755 129.343C202.054 134.155 208.887 139.642 215.162 145.732C216.096 146.624 217.017 147.535 217.939 148.433C218.557 149.015 218.86 149.635 218.439 150.49C218.045 151.491 217.749 152.528 217.555 153.587C216.421 157.666 214.556 161.504 212.051 164.916C205.15 174.752 195.559 179.949 183.816 181.497C181.732 181.727 179.635 181.825 177.539 181.788Z" fill="#FEFEFE"/>
<path d="M51.0292 175.099C51.0663 175.495 50.8066 175.718 50.652 175.929C47.3869 180.686 44.3279 185.563 41.4751 190.559C40.6032 192.083 40.9495 192.479 42.143 193.13C46.7764 195.579 51.5647 197.723 56.4772 199.547C72.998 205.82 90.103 210.424 107.538 213.291C125.536 216.392 143.799 217.685 162.055 217.15C178.096 216.655 193.933 214.673 209.467 210.56C221.315 207.419 232.693 203.127 243.317 196.933C246.759 194.934 250.053 192.69 253.174 190.218C253.326 190.111 253.499 190.038 253.681 190.002C253.863 189.967 254.051 189.971 254.232 190.014C257.744 190.336 261.219 190.906 264.701 191.414C267.793 191.872 270.971 191.841 274.063 192.448C277.155 193.055 280.179 193.916 282.721 195.96C283.537 196.579 284.237 197.338 284.786 198.203C285.936 200.129 285.658 201.857 283.958 203.313C282.781 204.26 281.424 204.958 279.969 205.363C277.316 206.212 274.552 206.472 271.806 206.812C270.896 206.898 269.997 207.074 269.122 207.339C266.859 208.113 266.086 209.885 267.082 212.065C267.718 213.283 268.494 214.422 269.395 215.459C269.951 216.184 270.545 216.884 271.039 217.652C271.589 218.386 271.831 219.305 271.716 220.215C271.6 221.125 271.136 221.954 270.421 222.527C268.708 224.119 266.593 225.005 264.423 225.729C259.049 227.544 253.496 227.978 247.881 227.903C239.712 227.792 231.759 226.175 223.844 224.36C219.181 223.295 214.568 222.124 209.85 221.208C203.331 219.948 196.604 220.293 190.247 222.211C186.366 223.402 182.407 224.321 178.399 224.961C174.453 225.482 170.464 225.598 166.495 225.308C157.188 224.757 147.9 223.859 138.556 224.113C135.425 224.089 132.35 224.947 129.682 226.59C125.749 229.136 121.457 229.65 116.919 228.517C112.503 227.414 108.261 225.791 103.932 224.484C97.8907 222.663 91.8243 220.898 85.8074 218.99C77.6632 216.348 68.8944 216.348 60.7503 218.99C57.0399 220.173 53.2678 221.35 49.3596 221.877C46.4628 222.365 43.4996 222.298 40.6279 221.678C39.5287 221.4 38.4837 220.939 37.536 220.316C34.8769 218.594 33.9555 216.035 34.7099 212.468C35.0562 210.814 35.4767 209.166 35.7983 207.512C36.4167 204.36 35.2541 202.489 32.1993 201.578C30.9347 201.205 29.6274 200.997 28.3096 200.959C25.0569 200.841 21.8103 201.188 18.5576 200.959C17.4035 200.906 16.2567 200.746 15.1317 200.482C12.2748 199.751 10.9824 197.441 11.8728 194.616C12.5219 192.878 13.5314 191.296 14.8349 189.977C16.854 187.805 19.254 186.022 21.9155 184.718C28.4951 181.237 35.52 178.951 42.6748 177.106C45.1483 176.486 47.6837 175.867 50.1882 175.247C50.4479 175.192 50.7324 175.154 51.0292 175.099Z" fill="#FEFEFE"/>
<path d="M138.513 105.923C138.667 105.632 138.976 105.663 139.218 105.595C153.138 101.724 167.045 97.6788 180.878 93.6217C181.597 93.3874 182.379 93.4452 183.055 93.7827C186.697 95.5047 188.862 98.8866 188.621 102.454C188.466 103.823 187.998 105.137 187.254 106.295C186.524 107.534 185.758 108.723 185.028 109.949C184.517 110.776 184.177 111.696 184.026 112.656C183.908 113.283 183.986 113.931 184.249 114.512C184.512 115.093 184.949 115.579 185.498 115.902C186.238 116.341 187.044 116.657 187.885 116.837C188.985 117.094 190.053 117.472 191.069 117.964C193.184 119.048 193.784 120.609 192.826 122.777C191.805 125.081 190.062 126.865 188.33 128.624C188.078 128.826 187.784 128.97 187.47 129.046C173.689 133.836 159.905 138.616 146.119 143.385C145.117 143.732 145.105 143.726 145.228 142.673C145.55 139.941 144.319 137.928 142.235 136.373C141.098 135.519 139.842 134.831 138.673 134.013C137.263 133.022 136.985 131.92 137.579 130.297C138.327 128.234 139.657 126.58 141.036 124.889C142.25 123.593 143.324 122.17 144.239 120.646C145.013 119.284 145.464 117.761 145.555 116.196C145.646 114.63 145.376 113.065 144.765 111.622C143.701 109.057 141.673 107.534 139.261 106.363C138.995 106.239 138.661 106.227 138.513 105.923ZM172.351 100.348C170.737 100.392 168.974 101.507 168.641 102.715C168.325 103.799 169.098 105.304 170.527 106.264C170.91 106.524 170.941 106.716 170.755 107.1C170.309 108.173 169.777 109.209 169.166 110.197C169.055 110.315 168.982 110.464 168.956 110.624C168.929 110.783 168.951 110.948 169.018 111.095C169.109 111.247 169.244 111.367 169.406 111.439C169.567 111.512 169.747 111.532 169.921 111.498C170.241 111.465 170.559 111.413 170.873 111.343C172.616 110.913 174.334 110.386 176.018 109.763C176.636 109.565 176.717 109.144 176.432 108.63C176.22 108.286 175.93 107.998 175.585 107.788C175.022 107.425 174.515 106.98 174.082 106.468C173.711 105.979 173.649 105.669 174.212 105.229C175.239 104.449 175.418 103.445 174.911 102.132C174.729 101.603 174.385 101.146 173.927 100.825C173.469 100.505 172.922 100.338 172.363 100.348H172.351Z" fill="#FEFEFE"/>
<path d="M79.1473 128.036C79.3823 125.273 79.6482 122.226 79.8956 119.166C80.6191 110.185 81.2993 101.203 81.7879 92.197C81.893 90.3388 81.9115 88.4372 81.9857 86.5542C81.9857 86.3064 81.8559 85.9658 82.1651 85.8357C82.4743 85.7056 82.7278 85.8852 82.9752 86.0587C94.8853 94.5074 107.253 102.262 119.46 110.29C119.683 110.399 119.86 110.582 119.963 110.808C120.066 111.034 120.087 111.289 120.023 111.529C119.466 115.499 119.256 119.507 118.978 123.502C118.607 128.895 118.246 134.288 117.896 139.681C117.636 143.602 117.395 147.523 117.147 151.45C117.147 151.555 117.147 151.66 117.147 151.772C117.085 152.651 117.036 152.676 116.306 152.224C111.091 148.953 105.878 145.683 100.667 142.413C93.8959 138.194 87.1122 133.989 80.1615 130.024C79.1473 129.504 79.1473 129.498 79.1473 128.036ZM86.6051 96.9355C86.4814 97.7593 86.3268 98.5831 86.2403 99.4131C85.325 107.707 84.1625 115.964 82.901 124.19C82.805 124.664 82.805 125.152 82.901 125.627C82.901 125.627 82.901 125.627 82.87 125.676H82.9195L83.1359 125.707C85.1504 116.24 86.3094 106.611 86.5989 96.9355H86.6051ZM89.3384 105.397C89.1371 105.621 89.0287 105.913 89.0354 106.214C88.5345 109.559 88.0769 112.91 87.7986 116.286C87.7244 117.24 87.5203 118.218 87.8914 119.197C88.4665 118.045 89.6599 106.666 89.3322 105.397H89.3384Z" fill="#FEFEFE"/>
<path d="M83.1482 81.1467C84.6447 79.9079 86.3205 78.9726 87.9221 77.901C96.1302 72.3883 104.349 66.8858 112.577 61.3937C112.984 61.0844 113.455 60.8725 113.956 60.7743C121.995 59.6284 129.979 57.9374 137.975 56.4385C160.546 52.1645 183.055 47.5871 205.595 43.1583C205.924 43.0522 206.272 43.0163 206.616 43.053C206.541 43.307 206.306 43.3504 206.133 43.4557C197.173 48.8012 188.429 54.4873 179.654 60.1178C178.824 60.6112 177.91 60.9452 176.958 61.1026C166.921 63.221 156.885 65.3146 146.861 67.4702C129.793 71.1412 112.734 74.8391 95.6829 78.5638C91.7747 79.4062 87.8665 80.2672 83.9335 81.1034C83.6738 81.1591 83.3955 81.3821 83.1111 81.1529L83.1482 81.1467Z" fill="#FEFEFE"/>
<path d="M178.572 91.0571C178.794 91.7633 178.411 92.0172 177.755 92.1721C175.641 92.6614 173.532 93.2251 171.454 93.8383C156.254 98.2918 140.961 102.417 125.798 106.995C125.615 107.037 125.435 107.093 125.26 107.162C124.673 107.428 124.506 107.205 124.382 106.604C122.824 98.9422 121.29 91.2677 119.33 83.6862C119.182 83.1163 119.262 82.9491 119.899 82.8438C127.134 81.6731 134.289 80.0874 141.468 78.6442C153.181 76.2904 164.881 73.8809 176.611 71.6448C177.632 71.4466 177.613 71.459 177.65 72.4872C177.842 78.6689 178.17 84.863 178.572 91.0571ZM132.038 86.2567C130.949 86.3125 129.893 86.6507 128.974 87.2381C128.055 87.8256 127.304 88.6421 126.794 89.6077C126.672 89.8307 126.601 90.0784 126.587 90.3326C126.573 90.5867 126.616 90.8406 126.714 91.0757C127.066 91.9429 127.363 92.8348 127.672 93.7268C128.383 95.7832 129.082 97.8459 129.812 99.9209C129.966 100.354 130.14 101.017 130.752 100.813C131.364 100.608 131.098 99.9519 130.95 99.4935C130.721 98.7502 130.418 98.0255 130.158 97.2884C129.484 95.3744 129.49 95.3744 131.166 94.1913C132.691 93.2081 133.898 91.8031 134.641 90.1466C135.52 87.9105 134.388 86.2505 132.038 86.2629V86.2567ZM143.874 93.5348C144.41 93.1452 144.806 92.5937 145.006 91.9615C145.395 90.5678 144.48 89.4838 143.095 89.6882C142.341 89.8056 141.659 90.2065 141.19 90.8094C141.09 90.9007 141.012 91.0131 140.961 91.1384C140.909 91.2637 140.886 91.3988 140.893 91.5341C141.269 93.3227 141.827 95.0681 142.557 96.7433C142.631 96.9477 142.792 97.1459 143.045 97.0778C143.299 97.0097 143.354 96.7123 143.293 96.4584C143.162 95.9083 142.999 95.3664 142.804 94.8355C142.656 94.4205 142.804 94.3214 143.188 94.3338C143.97 94.3535 144.732 94.5892 145.389 95.0152C145.797 95.2815 146.168 95.5912 146.558 95.8761C146.947 96.1611 147.269 96.3097 147.547 95.8761C147.825 95.4426 147.448 95.2567 147.17 95.0337C146.202 94.2844 145.074 93.7712 143.874 93.5348ZM144.548 87.8424C145.287 87.9567 146.044 87.8444 146.719 87.5203C147.114 87.3964 147.306 87.4708 147.43 87.8672C147.726 88.7901 148.048 89.6944 148.345 90.6173C148.766 92.1758 149.272 93.7101 149.86 95.2134C149.99 95.5231 150.144 95.8328 150.546 95.7275C150.948 95.6222 150.905 95.1886 150.806 94.8417C150.757 94.6621 150.67 94.4949 150.602 94.3152C149.817 92.2278 149.05 90.1342 148.227 88.0592C147.968 87.3964 148.079 87.1177 148.79 86.9566C149.662 86.7652 150.497 86.4348 151.264 85.978C151.455 85.8603 151.765 85.724 151.641 85.4391C151.517 85.1542 151.202 85.309 151.023 85.3648C149.619 85.7488 148.221 86.1204 146.836 86.554C145.984 86.8072 145.202 87.2521 144.548 87.8548V87.8424ZM172.375 83.2278C171.928 83.216 171.487 83.3454 171.117 83.5977C170.746 83.85 170.464 84.2124 170.31 84.6339C169.896 86.1514 170.112 87.861 171.807 88.8335C172.229 89.0765 172.718 89.1786 173.203 89.1252C173.688 89.0717 174.143 88.8655 174.503 88.5361C174.912 88.1044 175.183 87.56 175.281 86.9728C175.379 86.3857 175.3 85.7825 175.053 85.2409C174.847 84.6892 174.487 84.2079 174.018 83.8535C173.548 83.4992 172.987 83.2864 172.4 83.2402L172.375 83.2278ZM140.071 94.9966C140.088 94.2083 139.793 93.4453 139.251 92.8735C138.709 92.3016 137.964 91.9672 137.177 91.9429C135.631 91.9429 134.474 93.2437 134.474 94.9594C134.468 95.3432 134.537 95.7245 134.679 96.0811C134.821 96.4377 135.032 96.7626 135.3 97.0369C135.568 97.3112 135.888 97.5294 136.241 97.6789C136.594 97.8284 136.973 97.9062 137.356 97.9078C137.726 97.9014 138.091 97.8214 138.43 97.6723C138.769 97.5232 139.075 97.3081 139.33 97.0394C139.584 96.7708 139.784 96.454 139.915 96.1075C140.047 95.761 140.108 95.3918 140.096 95.0214L140.071 94.9966ZM159.284 92.7605C160.016 92.7873 160.729 92.5218 161.266 92.0224C161.803 91.5229 162.12 90.8304 162.147 90.097C162.15 89.7531 162.084 89.4121 161.954 89.0938C161.823 88.7756 161.631 88.4864 161.388 88.2432C161.146 88 160.857 87.8076 160.539 87.6771C160.222 87.5466 159.881 87.4807 159.538 87.4831C158.779 87.4809 158.049 87.7733 157.502 88.2989C156.954 88.8245 156.631 89.5423 156.6 90.3015C156.636 90.9888 156.94 91.6347 157.446 92.0995C157.953 92.5643 158.622 92.8106 159.309 92.7853L159.284 92.7605ZM152.117 88.3751C152.386 90.5363 152.927 92.6548 153.725 94.6807C153.873 95.0276 154.09 95.3001 154.516 95.1514C154.943 95.0028 154.894 94.6002 154.77 94.2595C154.554 93.6834 154.281 93.126 154.065 92.5437C153.781 91.7756 153.36 90.958 154.547 90.5183C154.733 90.4501 154.937 90.2085 154.826 89.9918C154.714 89.775 154.417 89.8555 154.207 89.8988C153.997 89.9422 153.743 90.2333 153.465 90.128C153.082 89.9856 152.964 88.4804 153.304 88.2017C153.813 87.8074 154.278 87.3588 154.69 86.8637C154.801 86.7213 154.974 86.5478 154.813 86.3682C154.652 86.1886 154.461 86.3063 154.294 86.3682L152.556 87.3778C152.376 87.464 152.233 87.612 152.152 87.795C152.072 87.9779 152.059 88.1837 152.117 88.3751ZM162.704 86.0585C163.063 87.8672 163.44 89.775 163.829 91.7075C163.848 91.8549 163.923 91.9893 164.038 92.0828C164.153 92.1763 164.3 92.2216 164.448 92.2092C165.348 92.0755 166.221 91.7973 167.033 91.3854C167.121 91.3472 167.19 91.2757 167.226 91.1864C167.262 91.0971 167.261 90.9972 167.224 90.9085C167.132 90.6793 166.934 90.6917 166.748 90.7536C166.216 90.9333 165.678 91.1005 165.165 91.3173C164.652 91.5341 164.479 91.3173 164.386 90.8156C164.095 89.1555 163.767 87.5017 163.44 85.8603C163.384 85.5878 163.359 85.1913 162.939 85.2842C162.518 85.3771 162.747 85.6869 162.729 86.0585H162.704ZM167.082 85.8045C167.172 87.0953 167.508 88.3569 168.071 89.521C168.164 89.7378 168.288 90.0227 168.579 89.9298C168.869 89.8369 168.838 89.5024 168.752 89.2609C168.337 88.0495 167.785 86.8898 167.107 85.8045H167.082ZM165.963 83.3269C165.635 83.4074 165.344 83.5747 165.344 83.9959C165.344 84.4171 165.678 84.5719 166.062 84.5533C166.146 84.5646 166.231 84.5563 166.311 84.5291C166.391 84.5019 166.464 84.4566 166.524 84.3967C166.584 84.3368 166.629 84.2639 166.656 84.1836C166.683 84.1034 166.691 84.0179 166.68 83.9339C166.692 83.5127 166.433 83.3269 165.988 83.3083L165.963 83.3269Z" fill="#FFCB3C"/>
<path d="M83.8656 85.6375C86.1289 85.1667 88.3427 84.7393 90.538 84.2438C102.992 81.4688 115.445 78.6815 127.895 75.8818C143.491 72.3759 159.084 68.8659 174.676 65.3518C175.263 65.2217 175.56 65.2031 175.387 65.9712C175.059 67.464 174.8 68.9815 174.571 70.4929C174.49 71.0442 174.157 71.1123 173.755 71.1928L162.308 73.5404C148.704 76.3277 135.062 78.8983 121.495 81.7847C120.876 81.9148 120.295 82.0944 119.695 82.2307C118.947 82.3918 118.718 82.813 118.829 83.5748C119.652 89.2734 120.684 94.9348 121.748 100.596C122.162 102.789 122.571 104.988 123.028 107.168C123.133 107.688 123.028 107.899 122.533 108.035C121.784 108.246 121.045 108.494 120.32 108.779C120.17 108.835 120.009 108.849 119.852 108.821C119.696 108.792 119.549 108.722 119.429 108.618L102.114 97.3629C96.2705 93.5659 90.4391 89.7689 84.4778 86.1702C84.2153 86.0739 83.9974 85.8843 83.8656 85.6375Z" fill="#FEFEFE"/>
<path d="M80.7859 81.8651C80.4335 76.501 79.2338 71.3352 79.1905 66.0392C79.1472 59.8513 80.0068 53.8926 82.9317 48.3179C84.5992 45.1869 87.0824 42.5669 90.1174 40.7363C90.4848 40.5031 90.9263 40.4168 91.3542 40.4948C95.1758 41.0213 98.4224 42.8299 101.452 45.066C105.528 47.9605 108.842 51.801 111.112 56.2587C111.54 57.1864 111.916 58.1377 112.237 59.108C112.293 59.217 112.326 59.3361 112.334 59.4581C112.342 59.5801 112.326 59.7026 112.286 59.8182C112.247 59.9338 112.184 60.0402 112.102 60.131C112.02 60.2219 111.921 60.2953 111.811 60.3468C106.863 63.7412 101.931 67.15 97.0125 70.5733C91.7129 74.2526 86.3453 77.8328 81.1384 81.6421C81.0457 81.7103 80.9529 81.766 80.7859 81.8651ZM84.2798 69.8548C84.2893 62.7512 85.5452 55.7045 87.9902 49.0364C87.4482 49.4983 87.0545 50.1103 86.8585 50.7955C85.7369 53.988 84.8887 57.2703 84.3231 60.607C83.8339 63.2781 83.6431 65.9955 83.7542 68.7089C83.7272 68.9299 83.7621 69.1541 83.8549 69.3564C83.9477 69.5588 84.0948 69.7313 84.2798 69.8548ZM88.5467 65.6738C89.196 62.651 88.5467 59.6221 89.2764 56.7171C88.0892 59.5448 87.8335 62.6781 88.5467 65.6614V65.6738Z" fill="#FEFEFE"/>
<path d="M157.237 26.3784C158.61 26.3041 159.55 26.2669 160.484 26.1802C161.059 26.1306 161.288 26.1802 161.028 26.8492C160.681 27.7324 160.614 28.7014 160.836 29.6241C161.195 31.2532 162.376 32.1947 164.392 32.523C166.216 32.8203 168.103 32.8822 169.865 33.4521C171.517 33.9715 173.008 34.908 174.194 36.1713C175.274 37.335 175.925 38.8342 176.038 40.4196C176.15 42.005 175.718 43.5812 174.812 44.8864C174.122 45.9194 173.289 46.8495 172.339 47.6489C172.068 47.8725 171.74 48.0162 171.392 48.0639C163.877 49.501 156.361 50.9463 148.846 52.3998C148.228 52.5237 148.098 52.3998 148.32 51.7804C149.322 48.9745 149.52 46.15 148.283 43.3626C146.978 40.4266 144.53 38.8223 141.605 37.7879C139.905 37.2863 138.174 36.9014 136.423 36.6358C133.43 36.0164 132.341 34.6909 132.409 31.6806C132.409 30.9063 132.576 30.132 132.626 29.3578C132.657 28.9056 132.929 28.8684 133.275 28.8251C139.292 28.0198 145.327 27.3757 151.375 26.8492C153.496 26.6819 155.586 26.5147 157.237 26.3784Z" fill="#FEFEFE"/>
<path d="M91.9171 39.8568C93.1966 39.0566 94.5461 38.3745 95.9489 37.819C102.325 35.1555 109.003 33.5141 115.694 31.916C116.869 31.6311 118.069 31.4576 119.237 31.1479C119.662 31.0247 120.108 30.9942 120.545 31.0583C120.983 31.1224 121.401 31.2797 121.773 31.5196C122.45 31.9072 123.059 32.4054 123.572 32.9938C123.933 33.3808 124.171 33.8661 124.257 34.3886C124.343 34.9111 124.273 35.4473 124.055 35.9298C123.702 36.7722 123.282 37.5898 122.997 38.457C122.298 40.5382 123.164 42.0743 125.291 42.6256C126.641 42.8762 128.015 42.9636 129.385 42.8857C130.892 42.8543 132.39 43.1282 133.788 43.691C134.545 43.9993 135.228 44.4625 135.796 45.051C136.363 45.6394 136.801 46.3401 137.083 47.1082C137.364 47.8762 137.482 48.6946 137.429 49.5109C137.376 50.3273 137.153 51.1235 136.775 51.8486C136.088 53.0717 135.213 54.1795 134.184 55.1315C133.924 55.3276 133.607 55.4341 133.281 55.435C126.8 56.7171 120.295 57.8569 113.845 59.3125C113.511 59.3868 113.183 59.5169 113.029 58.9842C112.039 55.4536 109.993 52.5299 107.624 49.8169C104.432 46.0045 100.385 43.0032 95.8129 41.0585C94.549 40.5526 93.2461 40.1507 91.9171 39.8568Z" fill="#FEFEFE"/>
<path d="M130.047 108.103L137.035 106.189C137.439 106.131 137.851 106.224 138.191 106.45C141.048 107.794 143.571 109.472 144.499 112.768C144.941 114.243 145.017 115.804 144.719 117.316C144.422 118.827 143.76 120.243 142.792 121.439C141.821 122.721 140.702 123.917 139.657 125.125C138.386 126.518 137.373 128.127 136.664 129.876C135.86 132.05 136.286 133.549 138.16 134.868C139.193 135.593 140.3 136.218 141.326 136.949C143.695 138.634 144.579 140.914 143.948 143.546C143.932 143.727 143.865 143.901 143.756 144.046C143.647 144.192 143.499 144.304 143.33 144.37C139.261 145.766 135.198 147.17 131.141 148.582C131.086 148.588 131.03 148.588 130.974 148.582C130.77 148.284 131.03 148.074 131.141 147.863C132.706 144.766 132.149 142.022 129.973 139.501C129.274 138.69 128.458 137.978 127.691 137.222L126.689 136.274C124.791 134.36 124.512 132.198 125.632 129.764C126.812 127.405 128.291 125.208 130.034 123.229C131.455 121.612 132.757 119.893 133.93 118.088C136.231 114.31 135.093 110.593 131.073 108.754L130.059 108.295L130.047 108.103Z" fill="#FEFEFE"/>
<path d="M212.132 82.72C209.547 83.4137 207.005 84.0765 204.476 84.7702C196.524 86.9629 188.573 89.1639 180.625 91.3731C179.963 91.5589 179.809 91.4412 179.778 90.7537C179.475 84.5968 179.023 78.4522 178.467 72.3139C178.467 72.3139 178.467 72.2581 178.467 72.2334C178.281 70.2822 178.201 70.2141 176.327 70.6229C175.443 70.8149 175.443 70.8087 175.56 69.9415C175.752 68.5045 176.018 67.0675 176.123 65.6057C176.179 64.8314 176.605 64.7943 177.131 64.8376C177.421 64.886 177.697 64.9958 177.941 65.1597C185.219 69.3345 192.782 72.9271 200.302 76.6621C204.056 78.5204 207.828 80.3786 211.594 82.1997C211.718 82.2376 211.832 82.3046 211.925 82.395C212.019 82.4855 212.09 82.5968 212.132 82.72Z" fill="#FEFEFE"/>
<path d="M120.369 114.316C120.369 113.529 120.369 112.458 120.369 111.43C120.369 110.978 120.524 110.81 120.932 110.736C123.523 110.463 125.922 109.497 128.352 108.655C128.657 108.54 128.994 108.54 129.299 108.655C130.543 109.095 131.685 109.784 132.656 110.68C133.45 111.404 133.974 112.375 134.145 113.436C134.316 114.497 134.122 115.585 133.596 116.521C132.78 117.977 131.807 119.34 130.696 120.585C128.723 122.932 126.627 125.187 125.131 127.9C125.013 128.11 124.889 128.321 124.784 128.519C122.929 132.291 123.331 134.713 126.355 137.662C127.221 138.504 128.142 139.303 128.934 140.214C131.686 143.348 130.999 146.172 128.971 149.176C128.803 149.39 128.571 149.544 128.309 149.616C125.056 150.818 121.81 152.032 118.613 153.376C117.994 153.624 117.747 153.376 117.79 152.583C117.914 150.626 118.044 148.662 118.18 146.705C118.563 141.229 118.959 135.76 119.33 130.284C119.689 125.05 120.017 119.81 120.369 114.316Z" fill="#FEFEFE"/>
<path d="M192.393 90.2458L213.678 83.8411C213.636 84.5687 213.481 85.2854 213.22 85.9656C210.839 95.7957 208.935 105.731 206.968 115.654C206.548 117.791 206.09 119.922 205.676 122.065C205.654 122.276 205.567 122.474 205.426 122.632C205.285 122.79 205.097 122.9 204.89 122.944C204.192 123.141 203.505 123.375 202.831 123.644C202.268 123.867 202.077 123.787 202.132 123.13C202.232 121.842 202.205 120.548 202.052 119.265C201.792 116.701 200.333 114.96 198.311 113.573L198.237 113.536C195.429 111.783 195.009 110.439 196.437 107.341C197.179 105.756 197.995 104.213 198.806 102.659C200.797 98.837 199.77 95.6656 196.87 93.0021C195.64 91.7638 194.1 90.8801 192.411 90.444L192.393 90.2458Z" fill="#FEFEFE"/>
<path d="M188.355 44.7998C189.193 43.7026 189.748 42.4153 189.972 41.0518C190.195 39.6884 190.079 38.2908 189.635 36.9828C188.571 33.7 186.073 31.8293 182.987 30.6587C181.75 30.1817 180.433 29.841 179.153 29.4198C178.516 29.212 177.908 28.9204 177.347 28.5527C176.717 28.1815 176.203 27.6407 175.863 26.9918C175.307 25.8397 175.474 25.5609 176.717 25.5176C182.597 25.3193 188.466 25.4185 194.353 25.3937C196.69 25.3352 198.962 26.1626 200.716 27.7103C202.46 29.2464 204.111 30.8631 205.045 33.062C205.979 35.2609 207.308 37.3421 208.137 39.6153C208.675 41.0524 208.687 40.8541 207.333 41.1143C201.248 42.3077 195.163 43.497 189.078 44.6821C188.893 44.7316 188.707 44.7502 188.355 44.7998Z" fill="#FEFEFE"/>
<path d="M190.637 127.819C190.914 127.352 191.251 126.923 191.638 126.543C192.766 125.306 193.611 123.837 194.112 122.238C194.381 121.409 194.359 120.514 194.049 119.699C193.74 118.885 193.162 118.2 192.411 117.76C190.971 116.794 189.319 116.484 187.668 116.038C187.175 115.905 186.698 115.718 186.246 115.481C185.75 115.256 185.352 114.86 185.125 114.365C184.898 113.87 184.857 113.309 185.009 112.786C185.362 111.132 186.37 109.813 187.242 108.45C188.287 106.778 189.35 105.112 189.598 103.105C189.816 101.179 189.428 99.2332 188.488 97.5394C187.548 95.8456 186.102 94.4887 184.354 93.6588C183.977 93.4667 183.587 93.2933 183.012 93.0393L189.486 91.1316C190.329 90.7751 191.258 90.6739 192.158 90.8404C195.281 91.6828 198.96 95.0834 199.214 98.3663C199.356 100.07 198.707 101.519 197.977 102.956C197.056 104.558 196.23 106.213 195.503 107.911C195.25 108.593 195.088 109.305 195.021 110.03C194.943 110.648 195.031 111.275 195.275 111.848C195.52 112.42 195.912 112.918 196.412 113.288C196.801 113.611 197.215 113.903 197.649 114.161C198.657 114.713 199.505 115.516 200.112 116.493C200.719 117.469 201.063 118.587 201.112 119.736C201.214 121.049 201.214 122.368 201.112 123.682C201.112 124.016 201.056 124.301 200.661 124.45L190.921 127.844C190.826 127.853 190.729 127.844 190.637 127.819Z" fill="#FEFEFE"/>
<path d="M174.088 47.5002C174.194 47.0728 174.534 46.8808 174.762 46.5773C176.865 43.9572 177.694 41.0522 176.401 37.8498C175.338 35.2235 173.179 33.675 170.613 32.6778C169.113 32.1638 167.551 31.8514 165.969 31.7487C165.487 31.6991 165.004 31.6557 164.534 31.569C162.116 31.1478 161.17 29.8533 161.486 27.4314C161.665 26.0935 161.665 26.0996 162.995 26.0439C166.775 25.8952 170.557 25.7404 174.342 25.5793C174.886 25.5793 175.158 25.5793 175.127 26.3102C175.078 27.6791 175.987 28.5711 177.051 29.2834C178.319 30.0465 179.701 30.6007 181.144 30.9248C183.557 31.504 185.731 32.8201 187.365 34.6909C189.697 37.4906 189.703 41.8822 187.365 44.4094C186.956 44.8764 186.4 45.189 185.788 45.2951C182.078 45.9889 178.368 46.7136 174.657 47.4321C174.49 47.4817 174.305 47.4817 174.088 47.5002Z" fill="#FEFEFE"/>
<path d="M136.546 54.6544C136.699 54.2781 136.926 53.9367 137.214 53.651C139.619 50.3186 139.069 45.7102 135.977 43.4617C134.042 42.0433 131.828 41.6468 129.503 41.6035C128.188 41.6802 126.87 41.6137 125.57 41.4053C124.129 41.0646 123.603 40.216 124.024 38.7852C124.222 38.1162 124.518 37.4782 124.766 36.8278C125.693 34.3812 125.1 32.6406 122.873 31.2532C122.601 31.0797 122.323 30.9311 122.07 30.7824C122.07 30.5532 122.237 30.5594 122.366 30.5346C125.403 29.9772 128.458 29.5126 131.512 29.0604C132.131 28.9737 132.285 29.0976 132.131 29.7108C131.849 30.7511 131.75 31.8328 131.84 32.907C131.852 33.8586 132.171 34.7808 132.749 35.5356C133.328 36.2905 134.135 36.8373 135.05 37.0942C136.583 37.6083 138.203 37.757 139.762 38.1658C142.235 38.7852 144.505 39.7886 146.193 41.7707C148.098 43.9944 148.512 46.6145 148.048 49.4266C147.869 50.461 147.739 51.5946 147.151 52.4184C146.564 53.2422 145.247 53.0378 144.27 53.2608C141.988 53.7749 139.687 54.1713 137.393 54.6049C137.123 54.7094 136.827 54.7267 136.546 54.6544Z" fill="#FEFEFE"/>
<path d="M145.191 69.8796C145.401 70.4247 145.03 70.499 144.635 70.6043C136.253 72.4997 127.878 74.4013 119.509 76.309C119.015 76.4267 118.891 76.3896 118.774 75.8321C118.551 74.9587 118.774 74.7605 119.608 74.5933C127.903 72.8383 136.194 71.0585 144.48 69.254C145.123 69.1053 145.315 69.2416 145.191 69.8796Z" fill="#FEFEFE"/>
<path d="M83.1297 81.1466V81.2581L83.0308 81.2148L83.1606 81.159L83.1297 81.1466Z" fill="#FEFEFE"/>
<path d="M136.466 54.7412L136.422 54.6979C136.422 54.6979 136.422 54.6545 136.466 54.6545C136.509 54.6545 136.497 54.6545 136.515 54.6979L136.466 54.7412Z" fill="#FEFEFE"/>
<path d="M71.6586 153.426L71.6091 153.475C71.591 153.446 71.5765 153.415 71.5658 153.382C71.5658 153.382 71.5658 153.351 71.6091 153.339L71.6586 153.426Z" fill="#FEFEFE"/>
<path d="M172.363 100.348C172.918 100.337 173.461 100.501 173.918 100.817C174.374 101.132 174.719 101.584 174.905 102.107C175.412 103.427 175.233 104.43 174.206 105.204C173.643 105.638 173.705 105.948 174.076 106.443C174.509 106.955 175.016 107.4 175.579 107.763C175.924 107.973 176.214 108.261 176.426 108.605C176.711 109.138 176.624 109.54 176.012 109.739C174.328 110.361 172.61 110.888 170.867 111.318C170.553 111.388 170.235 111.44 169.914 111.473C169.741 111.507 169.561 111.487 169.399 111.415C169.238 111.343 169.102 111.222 169.012 111.07C168.945 110.923 168.923 110.759 168.949 110.599C168.976 110.439 169.049 110.29 169.16 110.172C169.771 109.184 170.303 108.148 170.749 107.075C170.935 106.691 170.904 106.499 170.52 106.239C169.092 105.279 168.319 103.761 168.634 102.69C168.987 101.513 170.749 100.398 172.363 100.348Z" fill="#35312B"/>
<path d="M86.5988 96.9355C86.311 106.608 85.154 116.236 83.142 125.701L82.9256 125.67H82.8761C82.8761 125.67 82.907 125.633 82.907 125.62C82.8111 125.146 82.8111 124.657 82.907 124.183C84.1438 115.939 85.3311 107.682 86.2463 99.4069C86.3205 98.5831 86.4751 97.7593 86.5988 96.9355Z" fill="#35312B"/>
<path d="M89.3322 105.396C89.6475 106.635 88.4664 118.045 87.8975 119.197C87.5265 118.218 87.7305 117.24 87.8047 116.286C88.0707 112.91 88.5283 109.559 89.0415 106.214C89.0315 105.915 89.1354 105.622 89.3322 105.396Z" fill="#35312B"/>
<path d="M132.038 86.2629C134.388 86.2629 135.52 87.9105 134.641 90.1033C133.898 91.7598 132.691 93.1648 131.166 94.148C129.49 95.3558 129.484 95.3558 130.158 97.245C130.418 97.9821 130.721 98.7068 130.95 99.4501C131.098 99.9085 131.413 100.54 130.752 100.769C130.09 100.999 129.966 100.311 129.812 99.8775C129.082 97.8273 128.383 95.7647 127.672 93.6834C127.363 92.7915 127.054 91.8995 126.714 91.0324C126.616 90.7973 126.573 90.5433 126.587 90.2892C126.601 90.0351 126.672 89.7874 126.794 89.5644C127.31 88.608 128.064 87.8014 128.983 87.223C129.901 86.6445 130.954 86.3138 132.038 86.2629ZM129.156 94.4143C129.694 94.0675 130.195 93.7949 130.678 93.4295C132.013 92.5676 133.083 91.3519 133.77 89.9174C134.549 88.1583 133.77 87.0186 131.877 87.1115C129.985 87.2044 128.563 88.3503 127.4 89.8059C127.319 89.8977 127.271 90.0138 127.263 90.1361C127.255 90.2583 127.288 90.3797 127.357 90.4811C128.035 91.7548 128.636 93.0683 129.156 94.4143Z" fill="#35312B"/>
<path d="M143.874 93.5348C145.079 93.7878 146.208 94.3203 147.17 95.0895C147.448 95.3063 147.819 95.5479 147.547 95.9319C147.275 96.316 146.879 96.1302 146.558 95.9319C146.236 95.7337 145.797 95.3125 145.389 95.071C144.732 94.6451 143.97 94.4093 143.188 94.3896C142.786 94.3896 142.656 94.4763 142.804 94.8913C142.999 95.4222 143.162 95.9641 143.293 96.5142C143.355 96.7434 143.355 97.0283 143.045 97.1336C142.736 97.2389 142.631 97.0035 142.557 96.7991C141.827 95.1239 141.269 93.3785 140.893 91.5899C140.886 91.4546 140.909 91.3195 140.961 91.1942C141.012 91.0689 141.09 90.9565 141.19 90.8652C141.659 90.2623 142.341 89.8614 143.095 89.7441C144.48 89.5211 145.395 90.6236 145.006 92.0173C144.796 92.6291 144.4 93.1598 143.874 93.5348ZM143.385 90.4997C142.691 90.5897 142.042 90.8951 141.53 91.3731C141.369 91.5899 142.149 93.4977 142.421 93.5596C142.474 93.5651 142.528 93.5651 142.582 93.5596C143.033 93.3829 143.428 93.0858 143.724 92.7004C144.019 92.315 144.204 91.856 144.257 91.3731C144.267 91.2565 144.251 91.1393 144.21 91.0296C144.17 90.9199 144.106 90.8205 144.022 90.7384C143.939 90.6563 143.839 90.5935 143.729 90.5544C143.619 90.5153 143.502 90.5008 143.385 90.5121V90.4997Z" fill="#35312B"/>
<path d="M144.548 87.8549C145.194 87.2607 145.966 86.8203 146.805 86.5665C148.19 86.1329 149.588 85.7613 150.992 85.3772C151.196 85.3215 151.511 85.1666 151.61 85.4516C151.709 85.7365 151.425 85.8728 151.233 85.9905C150.466 86.4473 149.631 86.7777 148.759 86.9691C148.048 87.1302 147.937 87.4089 148.197 88.0717C149.019 90.1467 149.786 92.2403 150.571 94.3277C150.639 94.5073 150.726 94.6746 150.775 94.8542C150.874 95.2011 150.973 95.5913 150.516 95.74C150.058 95.8886 149.959 95.5356 149.829 95.2259C149.241 93.7226 148.735 92.1883 148.314 90.6298C148.042 89.7069 147.696 88.8026 147.399 87.8797C147.275 87.4832 147.084 87.4089 146.688 87.5328C146.022 87.8507 145.277 87.9628 144.548 87.8549Z" fill="#35312B"/>
<path d="M172.4 83.2404C172.992 83.283 173.56 83.4955 174.035 83.8525C174.51 84.2095 174.872 84.6958 175.078 85.2534C175.325 85.7951 175.404 86.3982 175.306 86.9854C175.208 87.5726 174.937 88.117 174.528 88.5487C174.168 88.878 173.713 89.0843 173.228 89.1377C172.743 89.1912 172.254 89.089 171.831 88.846C170.137 87.8735 169.921 86.164 170.335 84.6464C170.489 84.2249 170.771 83.8625 171.142 83.6103C171.512 83.358 171.952 83.2286 172.4 83.2404ZM174.565 86.4365C174.537 85.6933 174.219 84.9907 173.68 84.4792C173.5 84.2686 173.266 84.1105 173.003 84.0216C172.74 83.9327 172.459 83.9162 172.187 83.9738C171.916 84.0314 171.665 84.1611 171.461 84.3492C171.257 84.5372 171.107 84.7768 171.028 85.0428C170.843 85.5044 170.809 86.0129 170.931 86.4949C171.053 86.977 171.325 87.4076 171.708 87.7249C171.935 87.9794 172.234 88.1584 172.566 88.2381C172.897 88.3178 173.245 88.2943 173.563 88.1709C173.882 88.0135 174.148 87.7647 174.327 87.456C174.505 87.1472 174.588 86.7924 174.565 86.4365Z" fill="#35312B"/>
<path d="M140.096 95.0214C140.111 95.3918 140.053 95.7617 139.925 96.1095C139.796 96.4572 139.6 96.7759 139.347 97.0468C139.095 97.3178 138.791 97.5357 138.453 97.6878C138.115 97.8398 137.751 97.9231 137.381 97.9326C136.998 97.931 136.619 97.8532 136.266 97.7037C135.913 97.5542 135.593 97.336 135.325 97.0617C135.057 96.7874 134.846 96.4625 134.704 96.1059C134.562 95.7493 134.493 95.368 134.499 94.9842C134.499 93.2684 135.656 91.9801 137.202 91.9677C137.988 91.992 138.734 92.3264 139.276 92.8983C139.818 93.4701 140.112 94.2331 140.096 95.0214ZM139.329 95.0214C139.356 94.4255 139.151 93.8425 138.756 93.396C138.361 92.9496 137.808 92.675 137.214 92.6304C136.661 92.6611 136.14 92.8983 135.753 93.295C135.366 93.6917 135.141 94.2193 135.124 94.7736C135.124 96.0124 136.212 97.2512 137.319 97.2141C137.869 97.1868 138.387 96.9457 138.762 96.542C139.137 96.1383 139.341 95.6038 139.329 95.0523V95.0214Z" fill="#35312B"/>
<path d="M159.309 92.7854C158.627 92.8041 157.966 92.5556 157.464 92.0929C156.963 91.6301 156.662 90.9896 156.625 90.3077C156.656 89.5486 156.979 88.8308 157.526 88.3052C158.074 87.7796 158.804 87.4872 159.562 87.4894C159.906 87.4869 160.246 87.5529 160.564 87.6834C160.882 87.8138 161.17 88.0063 161.413 88.2495C161.656 88.4927 161.848 88.7819 161.978 89.1001C162.109 89.4184 162.175 89.7594 162.172 90.1033C162.161 90.4681 162.078 90.827 161.928 91.1595C161.778 91.4919 161.563 91.7914 161.297 92.0407C161.031 92.2899 160.719 92.484 160.377 92.6118C160.036 92.7396 159.673 92.7986 159.309 92.7854ZM159.346 92.0173C159.875 92.0309 160.388 91.8372 160.776 91.4773C161.164 91.1175 161.397 90.62 161.424 90.0909C161.425 89.835 161.372 89.5817 161.271 89.3469C161.169 89.1121 161.02 88.9008 160.833 88.7263C160.646 88.5519 160.425 88.418 160.184 88.333C159.943 88.2481 159.687 88.2139 159.433 88.2327C159.171 88.2211 158.911 88.2616 158.665 88.3518C158.42 88.442 158.195 88.5802 158.003 88.7583C157.812 88.9364 157.657 89.1508 157.549 89.3891C157.441 89.6275 157.381 89.885 157.373 90.1467C157.371 90.402 157.422 90.655 157.521 90.8899C157.621 91.1249 157.768 91.3367 157.953 91.5122C158.138 91.6878 158.357 91.8232 158.597 91.9101C158.837 91.997 159.092 92.0335 159.346 92.0173Z" fill="#35312B"/>
<path d="M152.117 88.3752C152.066 88.1903 152.08 87.9933 152.156 87.8174C152.233 87.6414 152.367 87.4972 152.538 87.4089L154.275 86.3993C154.442 86.3064 154.652 86.2073 154.795 86.3993C154.937 86.5913 154.795 86.7524 154.671 86.8948C154.259 87.3899 153.795 87.8385 153.286 88.2328C152.946 88.5115 153.063 90.0167 153.447 90.1591C153.725 90.2644 153.929 89.9795 154.189 89.9299C154.448 89.8804 154.702 89.7689 154.807 90.0229C154.912 90.2768 154.714 90.4812 154.529 90.5493C153.342 90.9891 153.762 91.7882 154.046 92.5748C154.263 93.1571 154.535 93.7145 154.751 94.2906C154.875 94.6313 154.918 95.0153 154.498 95.1825C154.077 95.3498 153.88 95.0586 153.706 94.7118C152.912 92.6752 152.378 90.5461 152.117 88.3752Z" fill="#35312B"/>
<path d="M162.729 86.0586C162.729 85.687 162.642 85.3401 162.982 85.2658C163.322 85.1914 163.427 85.5693 163.483 85.8418C163.811 87.5018 164.139 89.1557 164.429 90.7971C164.522 91.3112 164.664 91.528 165.208 91.2988C165.753 91.0696 166.26 90.9148 166.791 90.7351C166.977 90.6732 167.175 90.6608 167.268 90.89C167.305 90.9788 167.306 91.0786 167.27 91.168C167.234 91.2573 167.164 91.3288 167.076 91.3669C166.264 91.7788 165.391 92.057 164.491 92.1908C164.343 92.2031 164.196 92.1578 164.081 92.0643C163.966 91.9708 163.891 91.8364 163.873 91.689C163.464 89.8184 163.087 87.8673 162.729 86.0586Z" fill="#35312B"/>
<path d="M167.107 85.8047C167.795 86.8927 168.355 88.0566 168.776 89.2734C168.863 89.515 168.968 89.8371 168.603 89.9424C168.238 90.0477 168.189 89.7503 168.096 89.5336C167.531 88.3656 167.195 87.0997 167.107 85.8047Z" fill="#35312B"/>
<path d="M165.988 83.3084C166.433 83.3084 166.693 83.5128 166.693 83.9278C166.704 84.0118 166.695 84.0972 166.668 84.1775C166.641 84.2578 166.596 84.3307 166.536 84.3906C166.476 84.4505 166.404 84.4958 166.323 84.523C166.243 84.5501 166.158 84.5584 166.074 84.5472C165.691 84.5472 165.375 84.4233 165.357 83.9897C165.338 83.5561 165.66 83.3889 165.988 83.3084Z" fill="#35312B"/>
<path d="M84.2798 69.8548C84.0969 69.7323 83.951 69.5618 83.8583 69.3619C83.7656 69.162 83.7296 68.9403 83.7542 68.7213C83.6431 66.0079 83.8339 63.2905 84.3231 60.6194C84.888 57.2786 85.7362 53.9921 86.8585 50.7956C87.0607 50.102 87.4656 49.485 88.0211 49.0241C85.5642 55.6942 84.2978 62.7452 84.2798 69.8548Z" fill="#35312B"/>
<path d="M88.5467 65.6615C87.8309 62.6744 88.0865 59.5362 89.2764 56.7048C88.5406 59.6223 89.196 62.6512 88.5467 65.6615Z" fill="#35312B"/>
<path d="M129.156 94.4144C128.646 93.0691 128.055 91.7556 127.388 90.4812C127.319 90.3798 127.286 90.2584 127.294 90.1362C127.302 90.0139 127.35 89.8977 127.431 89.806C128.594 88.3566 129.948 87.2045 131.908 87.1116C133.868 87.0187 134.58 88.1584 133.8 89.9175C133.114 91.352 132.044 92.5677 130.709 93.4296C130.195 93.7702 129.694 94.0676 129.156 94.4144Z" fill="#FFCB3C"/>
<path d="M143.386 90.5121C143.5 90.502 143.616 90.5169 143.724 90.5557C143.832 90.5945 143.931 90.6564 144.013 90.737C144.095 90.8176 144.159 90.9151 144.2 91.0228C144.242 91.1304 144.259 91.2457 144.251 91.3607C144.198 91.8436 144.013 92.3026 143.718 92.688C143.422 93.0734 143.027 93.3705 142.575 93.5472C142.522 93.5527 142.468 93.5527 142.415 93.5472C142.143 93.4853 141.363 91.5775 141.524 91.3607C142.041 90.8905 142.692 90.5938 143.386 90.5121Z" fill="#FFCB3C"/>
<path d="M174.565 86.4364C174.586 86.7943 174.5 87.1506 174.319 87.4595C174.137 87.7685 173.867 88.0161 173.544 88.1707C173.226 88.2942 172.879 88.3176 172.547 88.238C172.216 88.1583 171.916 87.9792 171.689 87.7247C171.307 87.4075 171.035 86.9768 170.913 86.4948C170.79 86.0127 170.824 85.5043 171.009 85.0427C171.089 84.7767 171.239 84.5371 171.443 84.349C171.647 84.1609 171.897 84.0313 172.169 83.9736C172.44 83.916 172.722 83.9325 172.984 84.0214C173.247 84.1103 173.481 84.2684 173.662 84.479C174.208 84.9874 174.532 85.6905 174.565 86.4364Z" fill="#FFCB3C"/>
<path d="M139.329 95.0523C139.349 95.6091 139.149 96.1514 138.773 96.5619C138.397 96.9723 137.875 97.2177 137.319 97.2451C136.212 97.2451 135.099 96.0062 135.124 94.8046C135.141 94.2503 135.366 93.7227 135.753 93.326C136.14 92.9292 136.661 92.6921 137.214 92.6614C137.808 92.7059 138.361 92.9806 138.756 93.427C139.151 93.8734 139.356 94.4565 139.329 95.0523Z" fill="#FFCB3C"/>
<path d="M159.346 92.0173C159.093 92.0334 158.839 91.9972 158.6 91.9111C158.361 91.825 158.143 91.6906 157.958 91.5164C157.773 91.3423 157.626 91.1319 157.525 90.8984C157.425 90.665 157.373 90.4133 157.374 90.1591C157.381 89.8974 157.441 89.6399 157.549 89.4015C157.658 89.1632 157.812 88.9487 158.003 88.7707C158.195 88.5926 158.42 88.4544 158.665 88.3642C158.911 88.2739 159.172 88.2335 159.433 88.2451C159.688 88.2263 159.944 88.2605 160.185 88.3454C160.426 88.4304 160.646 88.5643 160.833 88.7387C161.02 88.9132 161.169 89.1244 161.271 89.3592C161.373 89.5941 161.425 89.8474 161.424 90.1033C161.394 90.6302 161.16 91.1245 160.772 91.4817C160.384 91.839 159.873 92.031 159.346 92.0173Z" fill="#FFCB3C"/>
</svg>
